SplineFontDB: 3.0
FontName: BLoadA8192
FullName: BLoad A8192
FamilyName: BLoad A8192
Weight: Medium
Copyright: Created by Rebecca Bettencourt with FontForge 2.0 (http://fontforge.sf.net)
UComments: "2014-6-29: Created." 
Version: 001.000
ItalicAngle: 0
UnderlinePosition: -20
UnderlineWidth: 10
Ascent: 200
Descent: 0
LayerCount: 2
Layer: 0 0 "Back"  1
Layer: 1 0 "Fore"  0
XUID: [1021 734 2001724053 11848524]
FSType: 8
OS2Version: 0
OS2_WeightWidthSlopeOnly: 0
OS2_UseTypoMetrics: 1
CreationTime: 1404086790
ModificationTime: 1404088509
PfmFamily: 17
TTFWeight: 500
TTFWidth: 5
LineGap: 0
VLineGap: 0
OS2TypoAscent: 200
OS2TypoAOffset: 0
OS2TypoDescent: 0
OS2TypoDOffset: 0
OS2TypoLinegap: 0
OS2WinAscent: 200
OS2WinAOffset: 0
OS2WinDescent: 0
OS2WinDOffset: 0
HheadAscent: 200
HheadAOffset: 0
HheadDescent: 0
HheadDOffset: 0
OS2Vendor: 'KrKo'
DEI: 91125
Encoding: UnicodeBmp
UnicodeInterp: none
NameList: Adobe Glyph List
DisplaySize: -24
AntiAlias: 1
FitToEm: 1
WinInfo: 0 32 17
BeginChars: 65536 1054

StartChar: uniE001
Encoding: 57345 57345 1
Width: 1400
VWidth: 0
Flags: HW
LayerCount: 2
Fore
SplineSet
0 200 m 1
 200 200 l 1
 200 0 l 1
 0 0 l 1
 0 200 l 1
EndSplineSet
EndChar

StartChar: uniE002
Encoding: 57346 57346 2
Width: 1400
VWidth: 0
Flags: HW
LayerCount: 2
Fore
SplineSet
200 200 m 1
 400 200 l 1
 400 0 l 1
 200 0 l 1
 200 200 l 1
EndSplineSet
EndChar

StartChar: uniE003
Encoding: 57347 57347 3
Width: 1400
VWidth: 0
Flags: HW
LayerCount: 2
Fore
SplineSet
400 0 m 1
 0 0 l 1
 0 200 l 1
 400 200 l 1
 400 0 l 1
EndSplineSet
EndChar

StartChar: uniE004
Encoding: 57348 57348 4
Width: 1400
VWidth: 0
Flags: HW
LayerCount: 2
Fore
SplineSet
400 200 m 1
 600 200 l 1
 600 0 l 1
 400 0 l 1
 400 200 l 1
EndSplineSet
EndChar

StartChar: uniE005
Encoding: 57349 57349 5
Width: 1400
VWidth: 0
Flags: HW
LayerCount: 2
Fore
SplineSet
0 200 m 1
 200 200 l 1
 200 0 l 1
 0 0 l 1
 0 200 l 1
400 200 m 1
 600 200 l 1
 600 0 l 1
 400 0 l 1
 400 200 l 1
EndSplineSet
EndChar

StartChar: uniE006
Encoding: 57350 57350 6
Width: 1400
VWidth: 0
Flags: HW
LayerCount: 2
Fore
SplineSet
600 0 m 1
 200 0 l 1
 200 200 l 1
 600 200 l 1
 600 0 l 1
EndSplineSet
EndChar

StartChar: uniE007
Encoding: 57351 57351 7
Width: 1400
VWidth: 0
Flags: HW
LayerCount: 2
Fore
SplineSet
0 200 m 1
 600 200 l 1
 600 0 l 1
 0 0 l 1
 0 200 l 1
EndSplineSet
EndChar

StartChar: uniE008
Encoding: 57352 57352 8
Width: 1400
VWidth: 0
Flags: HW
LayerCount: 2
Fore
SplineSet
600 200 m 1
 800 200 l 1
 800 0 l 1
 600 0 l 1
 600 200 l 1
EndSplineSet
EndChar

StartChar: uniE009
Encoding: 57353 57353 9
Width: 1400
VWidth: 0
Flags: HW
LayerCount: 2
Fore
SplineSet
600 200 m 1
 800 200 l 1
 800 0 l 1
 600 0 l 1
 600 200 l 1
0 200 m 1
 200 200 l 1
 200 0 l 1
 0 0 l 1
 0 200 l 1
EndSplineSet
EndChar

StartChar: uniE00A
Encoding: 57354 57354 10
Width: 1400
VWidth: 0
Flags: HW
LayerCount: 2
Fore
SplineSet
600 200 m 1
 800 200 l 1
 800 0 l 1
 600 0 l 1
 600 200 l 1
200 200 m 1
 400 200 l 1
 400 0 l 1
 200 0 l 1
 200 200 l 1
EndSplineSet
EndChar

StartChar: uniE00B
Encoding: 57355 57355 11
Width: 1400
VWidth: 0
Flags: HW
LayerCount: 2
Fore
SplineSet
600 200 m 1
 800 200 l 1
 800 0 l 1
 600 0 l 1
 600 200 l 1
400 0 m 1
 0 0 l 1
 0 200 l 1
 400 200 l 1
 400 0 l 1
EndSplineSet
EndChar

StartChar: uniE00C
Encoding: 57356 57356 12
Width: 1400
VWidth: 0
Flags: HW
LayerCount: 2
Fore
SplineSet
800 0 m 1
 400 0 l 1
 400 200 l 1
 800 200 l 1
 800 0 l 1
EndSplineSet
EndChar

StartChar: uniE00D
Encoding: 57357 57357 13
Width: 1400
VWidth: 0
Flags: HW
LayerCount: 2
Fore
SplineSet
800 0 m 1
 400 0 l 1
 400 200 l 1
 800 200 l 1
 800 0 l 1
0 200 m 1
 200 200 l 1
 200 0 l 1
 0 0 l 1
 0 200 l 1
EndSplineSet
EndChar

StartChar: uniE00E
Encoding: 57358 57358 14
Width: 1400
VWidth: 0
Flags: HW
LayerCount: 2
Fore
SplineSet
200 200 m 1
 800 200 l 1
 800 0 l 1
 200 0 l 1
 200 200 l 1
EndSplineSet
EndChar

StartChar: uniE00F
Encoding: 57359 57359 15
Width: 1400
VWidth: 0
Flags: HW
LayerCount: 2
Fore
SplineSet
800 0 m 1
 0 0 l 1
 0 200 l 1
 800 200 l 1
 800 0 l 1
EndSplineSet
EndChar

StartChar: uniE010
Encoding: 57360 57360 16
Width: 1400
VWidth: 0
Flags: HW
LayerCount: 2
Fore
SplineSet
800 200 m 1
 1000 200 l 1
 1000 0 l 1
 800 0 l 1
 800 200 l 1
EndSplineSet
EndChar

StartChar: uniE011
Encoding: 57361 57361 17
Width: 1400
VWidth: 0
Flags: HW
LayerCount: 2
Fore
SplineSet
0 200 m 1
 200 200 l 1
 200 0 l 1
 0 0 l 1
 0 200 l 1
800 200 m 1
 1000 200 l 1
 1000 0 l 1
 800 0 l 1
 800 200 l 1
EndSplineSet
EndChar

StartChar: uniE012
Encoding: 57362 57362 18
Width: 1400
VWidth: 0
Flags: HW
LayerCount: 2
Fore
SplineSet
200 200 m 1
 400 200 l 1
 400 0 l 1
 200 0 l 1
 200 200 l 1
800 200 m 1
 1000 200 l 1
 1000 0 l 1
 800 0 l 1
 800 200 l 1
EndSplineSet
EndChar

StartChar: uniE013
Encoding: 57363 57363 19
Width: 1400
VWidth: 0
Flags: HW
LayerCount: 2
Fore
SplineSet
400 0 m 1
 0 0 l 1
 0 200 l 1
 400 200 l 1
 400 0 l 1
800 200 m 1
 1000 200 l 1
 1000 0 l 1
 800 0 l 1
 800 200 l 1
EndSplineSet
EndChar

StartChar: uniE014
Encoding: 57364 57364 20
Width: 1400
VWidth: 0
Flags: HW
LayerCount: 2
Fore
SplineSet
400 200 m 1
 600 200 l 1
 600 0 l 1
 400 0 l 1
 400 200 l 1
800 200 m 1
 1000 200 l 1
 1000 0 l 1
 800 0 l 1
 800 200 l 1
EndSplineSet
EndChar

StartChar: uniE015
Encoding: 57365 57365 21
Width: 1400
VWidth: 0
Flags: HW
LayerCount: 2
Fore
SplineSet
400 200 m 1
 600 200 l 1
 600 0 l 1
 400 0 l 1
 400 200 l 1
0 200 m 1
 200 200 l 1
 200 0 l 1
 0 0 l 1
 0 200 l 1
800 200 m 1
 1000 200 l 1
 1000 0 l 1
 800 0 l 1
 800 200 l 1
EndSplineSet
EndChar

StartChar: uniE016
Encoding: 57366 57366 22
Width: 1400
VWidth: 0
Flags: HW
LayerCount: 2
Fore
SplineSet
600 0 m 1
 200 0 l 1
 200 200 l 1
 600 200 l 1
 600 0 l 1
800 200 m 1
 1000 200 l 1
 1000 0 l 1
 800 0 l 1
 800 200 l 1
EndSplineSet
EndChar

StartChar: uniE017
Encoding: 57367 57367 23
Width: 1400
VWidth: 0
Flags: HW
LayerCount: 2
Fore
SplineSet
0 200 m 1
 600 200 l 1
 600 0 l 1
 0 0 l 1
 0 200 l 1
800 200 m 1
 1000 200 l 1
 1000 0 l 1
 800 0 l 1
 800 200 l 1
EndSplineSet
EndChar

StartChar: uniE018
Encoding: 57368 57368 24
Width: 1400
VWidth: 0
Flags: HW
LayerCount: 2
Fore
SplineSet
1000 0 m 1
 600 0 l 1
 600 200 l 1
 1000 200 l 1
 1000 0 l 1
EndSplineSet
EndChar

StartChar: uniE019
Encoding: 57369 57369 25
Width: 1400
VWidth: 0
Flags: HW
LayerCount: 2
Fore
SplineSet
1000 0 m 1
 600 0 l 1
 600 200 l 1
 1000 200 l 1
 1000 0 l 1
0 200 m 1
 200 200 l 1
 200 0 l 1
 0 0 l 1
 0 200 l 1
EndSplineSet
EndChar

StartChar: uniE01A
Encoding: 57370 57370 26
Width: 1400
VWidth: 0
Flags: HW
LayerCount: 2
Fore
SplineSet
1000 0 m 1
 600 0 l 1
 600 200 l 1
 1000 200 l 1
 1000 0 l 1
200 200 m 1
 400 200 l 1
 400 0 l 1
 200 0 l 1
 200 200 l 1
EndSplineSet
EndChar

StartChar: uniE01B
Encoding: 57371 57371 27
Width: 1400
VWidth: 0
Flags: HW
LayerCount: 2
Fore
SplineSet
1000 0 m 1
 600 0 l 1
 600 200 l 1
 1000 200 l 1
 1000 0 l 1
400 0 m 1
 0 0 l 1
 0 200 l 1
 400 200 l 1
 400 0 l 1
EndSplineSet
EndChar

StartChar: uniE01C
Encoding: 57372 57372 28
Width: 1400
VWidth: 0
Flags: HW
LayerCount: 2
Fore
SplineSet
1000 0 m 1
 400 0 l 1
 400 200 l 1
 1000 200 l 1
 1000 0 l 1
EndSplineSet
EndChar

StartChar: uniE01D
Encoding: 57373 57373 29
Width: 1400
VWidth: 0
Flags: HW
LayerCount: 2
Fore
SplineSet
1000 0 m 1
 400 0 l 1
 400 200 l 1
 1000 200 l 1
 1000 0 l 1
0 200 m 1
 200 200 l 1
 200 0 l 1
 0 0 l 1
 0 200 l 1
EndSplineSet
EndChar

StartChar: uniE01E
Encoding: 57374 57374 30
Width: 1400
VWidth: 0
Flags: HW
LayerCount: 2
Fore
SplineSet
1000 0 m 1
 200 0 l 1
 200 200 l 1
 1000 200 l 1
 1000 0 l 1
EndSplineSet
EndChar

StartChar: uniE01F
Encoding: 57375 57375 31
Width: 1400
VWidth: 0
Flags: HW
LayerCount: 2
Fore
SplineSet
1000 0 m 1
 0 0 l 1
 0 200 l 1
 1000 200 l 1
 1000 0 l 1
EndSplineSet
EndChar

StartChar: uniE020
Encoding: 57376 57376 32
Width: 1400
VWidth: 0
Flags: HW
LayerCount: 2
Fore
SplineSet
1000 200 m 1
 1200 200 l 1
 1200 0 l 1
 1000 0 l 1
 1000 200 l 1
EndSplineSet
EndChar

StartChar: uniE021
Encoding: 57377 57377 33
Width: 1400
VWidth: 0
Flags: HW
LayerCount: 2
Fore
SplineSet
0 200 m 1
 200 200 l 1
 200 0 l 1
 0 0 l 1
 0 200 l 1
1000 200 m 1
 1200 200 l 1
 1200 0 l 1
 1000 0 l 1
 1000 200 l 1
EndSplineSet
EndChar

StartChar: uniE022
Encoding: 57378 57378 34
Width: 1400
VWidth: 0
Flags: HW
LayerCount: 2
Fore
SplineSet
200 200 m 1
 400 200 l 1
 400 0 l 1
 200 0 l 1
 200 200 l 1
1000 200 m 1
 1200 200 l 1
 1200 0 l 1
 1000 0 l 1
 1000 200 l 1
EndSplineSet
EndChar

StartChar: uniE023
Encoding: 57379 57379 35
Width: 1400
VWidth: 0
Flags: HW
LayerCount: 2
Fore
SplineSet
400 0 m 1
 0 0 l 1
 0 200 l 1
 400 200 l 1
 400 0 l 1
1000 200 m 1
 1200 200 l 1
 1200 0 l 1
 1000 0 l 1
 1000 200 l 1
EndSplineSet
EndChar

StartChar: uniE024
Encoding: 57380 57380 36
Width: 1400
VWidth: 0
Flags: HW
LayerCount: 2
Fore
SplineSet
400 200 m 1
 600 200 l 1
 600 0 l 1
 400 0 l 1
 400 200 l 1
1000 200 m 1
 1200 200 l 1
 1200 0 l 1
 1000 0 l 1
 1000 200 l 1
EndSplineSet
EndChar

StartChar: uniE025
Encoding: 57381 57381 37
Width: 1400
VWidth: 0
Flags: HW
LayerCount: 2
Fore
SplineSet
400 200 m 1
 600 200 l 1
 600 0 l 1
 400 0 l 1
 400 200 l 1
0 200 m 1
 200 200 l 1
 200 0 l 1
 0 0 l 1
 0 200 l 1
1000 200 m 1
 1200 200 l 1
 1200 0 l 1
 1000 0 l 1
 1000 200 l 1
EndSplineSet
EndChar

StartChar: uniE026
Encoding: 57382 57382 38
Width: 1400
VWidth: 0
Flags: HW
LayerCount: 2
Fore
SplineSet
600 0 m 1
 200 0 l 1
 200 200 l 1
 600 200 l 1
 600 0 l 1
1000 200 m 1
 1200 200 l 1
 1200 0 l 1
 1000 0 l 1
 1000 200 l 1
EndSplineSet
EndChar

StartChar: uniE027
Encoding: 57383 57383 39
Width: 1400
VWidth: 0
Flags: HW
LayerCount: 2
Fore
SplineSet
0 200 m 1
 600 200 l 1
 600 0 l 1
 0 0 l 1
 0 200 l 1
1000 200 m 1
 1200 200 l 1
 1200 0 l 1
 1000 0 l 1
 1000 200 l 1
EndSplineSet
EndChar

StartChar: uniE028
Encoding: 57384 57384 40
Width: 1400
VWidth: 0
Flags: HW
LayerCount: 2
Fore
SplineSet
600 200 m 1
 800 200 l 1
 800 0 l 1
 600 0 l 1
 600 200 l 1
1000 200 m 1
 1200 200 l 1
 1200 0 l 1
 1000 0 l 1
 1000 200 l 1
EndSplineSet
EndChar

StartChar: uniE029
Encoding: 57385 57385 41
Width: 1400
VWidth: 0
Flags: HW
LayerCount: 2
Fore
SplineSet
0 200 m 1
 200 200 l 1
 200 0 l 1
 0 0 l 1
 0 200 l 1
600 200 m 1
 800 200 l 1
 800 0 l 1
 600 0 l 1
 600 200 l 1
1000 200 m 1
 1200 200 l 1
 1200 0 l 1
 1000 0 l 1
 1000 200 l 1
EndSplineSet
EndChar

StartChar: uniE02A
Encoding: 57386 57386 42
Width: 1400
VWidth: 0
Flags: HW
LayerCount: 2
Fore
SplineSet
200 200 m 1
 400 200 l 1
 400 0 l 1
 200 0 l 1
 200 200 l 1
600 200 m 1
 800 200 l 1
 800 0 l 1
 600 0 l 1
 600 200 l 1
1000 200 m 1
 1200 200 l 1
 1200 0 l 1
 1000 0 l 1
 1000 200 l 1
EndSplineSet
EndChar

StartChar: uniE02B
Encoding: 57387 57387 43
Width: 1400
VWidth: 0
Flags: HW
LayerCount: 2
Fore
SplineSet
400 0 m 1
 0 0 l 1
 0 200 l 1
 400 200 l 1
 400 0 l 1
600 200 m 1
 800 200 l 1
 800 0 l 1
 600 0 l 1
 600 200 l 1
1000 200 m 1
 1200 200 l 1
 1200 0 l 1
 1000 0 l 1
 1000 200 l 1
EndSplineSet
EndChar

StartChar: uniE02C
Encoding: 57388 57388 44
Width: 1400
VWidth: 0
Flags: HW
LayerCount: 2
Fore
SplineSet
800 0 m 1
 400 0 l 1
 400 200 l 1
 800 200 l 1
 800 0 l 1
1000 200 m 1
 1200 200 l 1
 1200 0 l 1
 1000 0 l 1
 1000 200 l 1
EndSplineSet
EndChar

StartChar: uniE02D
Encoding: 57389 57389 45
Width: 1400
VWidth: 0
Flags: HW
LayerCount: 2
Fore
SplineSet
800 0 m 1
 400 0 l 1
 400 200 l 1
 800 200 l 1
 800 0 l 1
0 200 m 1
 200 200 l 1
 200 0 l 1
 0 0 l 1
 0 200 l 1
1000 200 m 1
 1200 200 l 1
 1200 0 l 1
 1000 0 l 1
 1000 200 l 1
EndSplineSet
EndChar

StartChar: uniE02E
Encoding: 57390 57390 46
Width: 1400
VWidth: 0
Flags: HW
LayerCount: 2
Fore
SplineSet
200 200 m 1
 800 200 l 1
 800 0 l 1
 200 0 l 1
 200 200 l 1
1000 200 m 1
 1200 200 l 1
 1200 0 l 1
 1000 0 l 1
 1000 200 l 1
EndSplineSet
EndChar

StartChar: uniE02F
Encoding: 57391 57391 47
Width: 1400
VWidth: 0
Flags: HW
LayerCount: 2
Fore
SplineSet
800 0 m 1
 0 0 l 1
 0 200 l 1
 800 200 l 1
 800 0 l 1
1000 200 m 1
 1200 200 l 1
 1200 0 l 1
 1000 0 l 1
 1000 200 l 1
EndSplineSet
EndChar

StartChar: uniE030
Encoding: 57392 57392 48
Width: 1400
VWidth: 0
Flags: HW
LayerCount: 2
Fore
SplineSet
1200 0 m 1
 800 0 l 1
 800 200 l 1
 1200 200 l 1
 1200 0 l 1
EndSplineSet
EndChar

StartChar: uniE031
Encoding: 57393 57393 49
Width: 1400
VWidth: 0
Flags: HW
LayerCount: 2
Fore
SplineSet
1200 0 m 1
 800 0 l 1
 800 200 l 1
 1200 200 l 1
 1200 0 l 1
0 200 m 1
 200 200 l 1
 200 0 l 1
 0 0 l 1
 0 200 l 1
EndSplineSet
EndChar

StartChar: uniE032
Encoding: 57394 57394 50
Width: 1400
VWidth: 0
Flags: HW
LayerCount: 2
Fore
SplineSet
1200 0 m 1
 800 0 l 1
 800 200 l 1
 1200 200 l 1
 1200 0 l 1
200 200 m 1
 400 200 l 1
 400 0 l 1
 200 0 l 1
 200 200 l 1
EndSplineSet
EndChar

StartChar: uniE033
Encoding: 57395 57395 51
Width: 1400
VWidth: 0
Flags: HW
LayerCount: 2
Fore
SplineSet
1200 0 m 1
 800 0 l 1
 800 200 l 1
 1200 200 l 1
 1200 0 l 1
400 0 m 1
 0 0 l 1
 0 200 l 1
 400 200 l 1
 400 0 l 1
EndSplineSet
EndChar

StartChar: uniE034
Encoding: 57396 57396 52
Width: 1400
VWidth: 0
Flags: HW
LayerCount: 2
Fore
SplineSet
1200 0 m 1
 800 0 l 1
 800 200 l 1
 1200 200 l 1
 1200 0 l 1
400 200 m 1
 600 200 l 1
 600 0 l 1
 400 0 l 1
 400 200 l 1
EndSplineSet
EndChar

StartChar: uniE035
Encoding: 57397 57397 53
Width: 1400
VWidth: 0
Flags: HW
LayerCount: 2
Fore
SplineSet
1200 0 m 1
 800 0 l 1
 800 200 l 1
 1200 200 l 1
 1200 0 l 1
0 200 m 1
 200 200 l 1
 200 0 l 1
 0 0 l 1
 0 200 l 1
400 200 m 1
 600 200 l 1
 600 0 l 1
 400 0 l 1
 400 200 l 1
EndSplineSet
EndChar

StartChar: uniE036
Encoding: 57398 57398 54
Width: 1400
VWidth: 0
Flags: HW
LayerCount: 2
Fore
SplineSet
1200 0 m 1
 800 0 l 1
 800 200 l 1
 1200 200 l 1
 1200 0 l 1
600 0 m 1
 200 0 l 1
 200 200 l 1
 600 200 l 1
 600 0 l 1
EndSplineSet
EndChar

StartChar: uniE037
Encoding: 57399 57399 55
Width: 1400
VWidth: 0
Flags: HW
LayerCount: 2
Fore
SplineSet
1200 0 m 1
 800 0 l 1
 800 200 l 1
 1200 200 l 1
 1200 0 l 1
0 200 m 1
 600 200 l 1
 600 0 l 1
 0 0 l 1
 0 200 l 1
EndSplineSet
EndChar

StartChar: uniE038
Encoding: 57400 57400 56
Width: 1400
VWidth: 0
Flags: HW
LayerCount: 2
Fore
SplineSet
600 200 m 1
 1200 200 l 1
 1200 0 l 1
 600 0 l 1
 600 200 l 1
EndSplineSet
EndChar

StartChar: uniE039
Encoding: 57401 57401 57
Width: 1400
VWidth: 0
Flags: HW
LayerCount: 2
Fore
SplineSet
600 200 m 1
 1200 200 l 1
 1200 0 l 1
 600 0 l 1
 600 200 l 1
0 200 m 1
 200 200 l 1
 200 0 l 1
 0 0 l 1
 0 200 l 1
EndSplineSet
EndChar

StartChar: uniE03A
Encoding: 57402 57402 58
Width: 1400
VWidth: 0
Flags: HW
LayerCount: 2
Fore
SplineSet
600 200 m 1
 1200 200 l 1
 1200 0 l 1
 600 0 l 1
 600 200 l 1
200 200 m 1
 400 200 l 1
 400 0 l 1
 200 0 l 1
 200 200 l 1
EndSplineSet
EndChar

StartChar: uniE03B
Encoding: 57403 57403 59
Width: 1400
VWidth: 0
Flags: HW
LayerCount: 2
Fore
SplineSet
600 200 m 1
 1200 200 l 1
 1200 0 l 1
 600 0 l 1
 600 200 l 1
400 0 m 1
 0 0 l 1
 0 200 l 1
 400 200 l 1
 400 0 l 1
EndSplineSet
EndChar

StartChar: uniE03C
Encoding: 57404 57404 60
Width: 1400
VWidth: 0
Flags: HW
LayerCount: 2
Fore
SplineSet
400 200 m 1
 1200 200 l 1
 1200 0 l 1
 400 0 l 1
 400 200 l 1
EndSplineSet
EndChar

StartChar: uniE03D
Encoding: 57405 57405 61
Width: 1400
VWidth: 0
Flags: HW
LayerCount: 2
Fore
SplineSet
400 200 m 1
 1200 200 l 1
 1200 0 l 1
 400 0 l 1
 400 200 l 1
0 200 m 1
 200 200 l 1
 200 0 l 1
 0 0 l 1
 0 200 l 1
EndSplineSet
EndChar

StartChar: uniE03E
Encoding: 57406 57406 62
Width: 1400
VWidth: 0
Flags: HW
LayerCount: 2
Fore
SplineSet
200 200 m 1
 1200 200 l 1
 1200 0 l 1
 200 0 l 1
 200 200 l 1
EndSplineSet
EndChar

StartChar: uniE03F
Encoding: 57407 57407 63
Width: 1400
VWidth: 0
Flags: HW
LayerCount: 2
Fore
SplineSet
0 200 m 1
 1200 200 l 1
 1200 0 l 1
 0 0 l 1
 0 200 l 1
EndSplineSet
EndChar

StartChar: uniE040
Encoding: 57408 57408 64
Width: 1400
VWidth: 0
Flags: HW
LayerCount: 2
Fore
SplineSet
1200 200 m 1
 1400 200 l 1
 1400 0 l 1
 1200 0 l 1
 1200 200 l 1
EndSplineSet
EndChar

StartChar: uniE041
Encoding: 57409 57409 65
Width: 1400
VWidth: 0
Flags: HW
LayerCount: 2
Fore
SplineSet
0 200 m 1
 200 200 l 1
 200 0 l 1
 0 0 l 1
 0 200 l 1
1200 200 m 1
 1400 200 l 1
 1400 0 l 1
 1200 0 l 1
 1200 200 l 1
EndSplineSet
EndChar

StartChar: uniE042
Encoding: 57410 57410 66
Width: 1400
VWidth: 0
Flags: HW
LayerCount: 2
Fore
SplineSet
200 200 m 1
 400 200 l 1
 400 0 l 1
 200 0 l 1
 200 200 l 1
1200 200 m 1
 1400 200 l 1
 1400 0 l 1
 1200 0 l 1
 1200 200 l 1
EndSplineSet
EndChar

StartChar: uniE043
Encoding: 57411 57411 67
Width: 1400
VWidth: 0
Flags: HW
LayerCount: 2
Fore
SplineSet
400 0 m 1
 0 0 l 1
 0 200 l 1
 400 200 l 1
 400 0 l 1
1200 200 m 1
 1400 200 l 1
 1400 0 l 1
 1200 0 l 1
 1200 200 l 1
EndSplineSet
EndChar

StartChar: uniE044
Encoding: 57412 57412 68
Width: 1400
VWidth: 0
Flags: HW
LayerCount: 2
Fore
SplineSet
400 200 m 1
 600 200 l 1
 600 0 l 1
 400 0 l 1
 400 200 l 1
1200 200 m 1
 1400 200 l 1
 1400 0 l 1
 1200 0 l 1
 1200 200 l 1
EndSplineSet
EndChar

StartChar: uniE045
Encoding: 57413 57413 69
Width: 1400
VWidth: 0
Flags: HW
LayerCount: 2
Fore
SplineSet
400 200 m 1
 600 200 l 1
 600 0 l 1
 400 0 l 1
 400 200 l 1
0 200 m 1
 200 200 l 1
 200 0 l 1
 0 0 l 1
 0 200 l 1
1200 200 m 1
 1400 200 l 1
 1400 0 l 1
 1200 0 l 1
 1200 200 l 1
EndSplineSet
EndChar

StartChar: uniE046
Encoding: 57414 57414 70
Width: 1400
VWidth: 0
Flags: HW
LayerCount: 2
Fore
SplineSet
600 0 m 1
 200 0 l 1
 200 200 l 1
 600 200 l 1
 600 0 l 1
1200 200 m 1
 1400 200 l 1
 1400 0 l 1
 1200 0 l 1
 1200 200 l 1
EndSplineSet
EndChar

StartChar: uniE047
Encoding: 57415 57415 71
Width: 1400
VWidth: 0
Flags: HW
LayerCount: 2
Fore
SplineSet
0 200 m 1
 600 200 l 1
 600 0 l 1
 0 0 l 1
 0 200 l 1
1200 200 m 1
 1400 200 l 1
 1400 0 l 1
 1200 0 l 1
 1200 200 l 1
EndSplineSet
EndChar

StartChar: uniE048
Encoding: 57416 57416 72
Width: 1400
VWidth: 0
Flags: HW
LayerCount: 2
Fore
SplineSet
600 200 m 1
 800 200 l 1
 800 0 l 1
 600 0 l 1
 600 200 l 1
1200 200 m 1
 1400 200 l 1
 1400 0 l 1
 1200 0 l 1
 1200 200 l 1
EndSplineSet
EndChar

StartChar: uniE049
Encoding: 57417 57417 73
Width: 1400
VWidth: 0
Flags: HW
LayerCount: 2
Fore
SplineSet
0 200 m 1
 200 200 l 1
 200 0 l 1
 0 0 l 1
 0 200 l 1
600 200 m 1
 800 200 l 1
 800 0 l 1
 600 0 l 1
 600 200 l 1
1200 200 m 1
 1400 200 l 1
 1400 0 l 1
 1200 0 l 1
 1200 200 l 1
EndSplineSet
EndChar

StartChar: uniE04A
Encoding: 57418 57418 74
Width: 1400
VWidth: 0
Flags: HW
LayerCount: 2
Fore
SplineSet
200 200 m 1
 400 200 l 1
 400 0 l 1
 200 0 l 1
 200 200 l 1
600 200 m 1
 800 200 l 1
 800 0 l 1
 600 0 l 1
 600 200 l 1
1200 200 m 1
 1400 200 l 1
 1400 0 l 1
 1200 0 l 1
 1200 200 l 1
EndSplineSet
EndChar

StartChar: uniE04B
Encoding: 57419 57419 75
Width: 1400
VWidth: 0
Flags: HW
LayerCount: 2
Fore
SplineSet
400 0 m 1
 0 0 l 1
 0 200 l 1
 400 200 l 1
 400 0 l 1
600 200 m 1
 800 200 l 1
 800 0 l 1
 600 0 l 1
 600 200 l 1
1200 200 m 1
 1400 200 l 1
 1400 0 l 1
 1200 0 l 1
 1200 200 l 1
EndSplineSet
EndChar

StartChar: uniE04C
Encoding: 57420 57420 76
Width: 1400
VWidth: 0
Flags: HW
LayerCount: 2
Fore
SplineSet
800 0 m 1
 400 0 l 1
 400 200 l 1
 800 200 l 1
 800 0 l 1
1200 200 m 1
 1400 200 l 1
 1400 0 l 1
 1200 0 l 1
 1200 200 l 1
EndSplineSet
EndChar

StartChar: uniE04D
Encoding: 57421 57421 77
Width: 1400
VWidth: 0
Flags: HW
LayerCount: 2
Fore
SplineSet
800 0 m 1
 400 0 l 1
 400 200 l 1
 800 200 l 1
 800 0 l 1
0 200 m 1
 200 200 l 1
 200 0 l 1
 0 0 l 1
 0 200 l 1
1200 200 m 1
 1400 200 l 1
 1400 0 l 1
 1200 0 l 1
 1200 200 l 1
EndSplineSet
EndChar

StartChar: uniE04E
Encoding: 57422 57422 78
Width: 1400
VWidth: 0
Flags: HW
LayerCount: 2
Fore
SplineSet
200 200 m 1
 800 200 l 1
 800 0 l 1
 200 0 l 1
 200 200 l 1
1200 200 m 1
 1400 200 l 1
 1400 0 l 1
 1200 0 l 1
 1200 200 l 1
EndSplineSet
EndChar

StartChar: uniE04F
Encoding: 57423 57423 79
Width: 1400
VWidth: 0
Flags: HW
LayerCount: 2
Fore
SplineSet
800 0 m 1
 0 0 l 1
 0 200 l 1
 800 200 l 1
 800 0 l 1
1200 200 m 1
 1400 200 l 1
 1400 0 l 1
 1200 0 l 1
 1200 200 l 1
EndSplineSet
EndChar

StartChar: uniE050
Encoding: 57424 57424 80
Width: 1400
VWidth: 0
Flags: HW
LayerCount: 2
Fore
SplineSet
800 200 m 1
 1000 200 l 1
 1000 0 l 1
 800 0 l 1
 800 200 l 1
1200 200 m 1
 1400 200 l 1
 1400 0 l 1
 1200 0 l 1
 1200 200 l 1
EndSplineSet
EndChar

StartChar: uniE051
Encoding: 57425 57425 81
Width: 1400
VWidth: 0
Flags: HW
LayerCount: 2
Fore
SplineSet
800 200 m 1
 1000 200 l 1
 1000 0 l 1
 800 0 l 1
 800 200 l 1
0 200 m 1
 200 200 l 1
 200 0 l 1
 0 0 l 1
 0 200 l 1
1200 200 m 1
 1400 200 l 1
 1400 0 l 1
 1200 0 l 1
 1200 200 l 1
EndSplineSet
EndChar

StartChar: uniE052
Encoding: 57426 57426 82
Width: 1400
VWidth: 0
Flags: HW
LayerCount: 2
Fore
SplineSet
800 200 m 1
 1000 200 l 1
 1000 0 l 1
 800 0 l 1
 800 200 l 1
200 200 m 1
 400 200 l 1
 400 0 l 1
 200 0 l 1
 200 200 l 1
1200 200 m 1
 1400 200 l 1
 1400 0 l 1
 1200 0 l 1
 1200 200 l 1
EndSplineSet
EndChar

StartChar: uniE053
Encoding: 57427 57427 83
Width: 1400
VWidth: 0
Flags: HW
LayerCount: 2
Fore
SplineSet
800 200 m 1
 1000 200 l 1
 1000 0 l 1
 800 0 l 1
 800 200 l 1
400 0 m 1
 0 0 l 1
 0 200 l 1
 400 200 l 1
 400 0 l 1
1200 200 m 1
 1400 200 l 1
 1400 0 l 1
 1200 0 l 1
 1200 200 l 1
EndSplineSet
EndChar

StartChar: uniE054
Encoding: 57428 57428 84
Width: 1400
VWidth: 0
Flags: HW
LayerCount: 2
Fore
SplineSet
800 200 m 1
 1000 200 l 1
 1000 0 l 1
 800 0 l 1
 800 200 l 1
400 200 m 1
 600 200 l 1
 600 0 l 1
 400 0 l 1
 400 200 l 1
1200 200 m 1
 1400 200 l 1
 1400 0 l 1
 1200 0 l 1
 1200 200 l 1
EndSplineSet
EndChar

StartChar: uniE055
Encoding: 57429 57429 85
Width: 1400
VWidth: 0
Flags: HW
LayerCount: 2
Fore
SplineSet
800 200 m 1
 1000 200 l 1
 1000 0 l 1
 800 0 l 1
 800 200 l 1
0 200 m 1
 200 200 l 1
 200 0 l 1
 0 0 l 1
 0 200 l 1
400 200 m 1
 600 200 l 1
 600 0 l 1
 400 0 l 1
 400 200 l 1
1200 200 m 1
 1400 200 l 1
 1400 0 l 1
 1200 0 l 1
 1200 200 l 1
EndSplineSet
EndChar

StartChar: uniE056
Encoding: 57430 57430 86
Width: 1400
VWidth: 0
Flags: HW
LayerCount: 2
Fore
SplineSet
800 200 m 1
 1000 200 l 1
 1000 0 l 1
 800 0 l 1
 800 200 l 1
600 0 m 1
 200 0 l 1
 200 200 l 1
 600 200 l 1
 600 0 l 1
1200 200 m 1
 1400 200 l 1
 1400 0 l 1
 1200 0 l 1
 1200 200 l 1
EndSplineSet
EndChar

StartChar: uniE057
Encoding: 57431 57431 87
Width: 1400
VWidth: 0
Flags: HW
LayerCount: 2
Fore
SplineSet
800 200 m 1
 1000 200 l 1
 1000 0 l 1
 800 0 l 1
 800 200 l 1
0 200 m 1
 600 200 l 1
 600 0 l 1
 0 0 l 1
 0 200 l 1
1200 200 m 1
 1400 200 l 1
 1400 0 l 1
 1200 0 l 1
 1200 200 l 1
EndSplineSet
EndChar

StartChar: uniE058
Encoding: 57432 57432 88
Width: 1400
VWidth: 0
Flags: HW
LayerCount: 2
Fore
SplineSet
1000 0 m 1
 600 0 l 1
 600 200 l 1
 1000 200 l 1
 1000 0 l 1
1200 200 m 1
 1400 200 l 1
 1400 0 l 1
 1200 0 l 1
 1200 200 l 1
EndSplineSet
EndChar

StartChar: uniE059
Encoding: 57433 57433 89
Width: 1400
VWidth: 0
Flags: HW
LayerCount: 2
Fore
SplineSet
0 200 m 1
 200 200 l 1
 200 0 l 1
 0 0 l 1
 0 200 l 1
1000 0 m 1
 600 0 l 1
 600 200 l 1
 1000 200 l 1
 1000 0 l 1
1200 200 m 1
 1400 200 l 1
 1400 0 l 1
 1200 0 l 1
 1200 200 l 1
EndSplineSet
EndChar

StartChar: uniE05A
Encoding: 57434 57434 90
Width: 1400
VWidth: 0
Flags: HW
LayerCount: 2
Fore
SplineSet
200 200 m 1
 400 200 l 1
 400 0 l 1
 200 0 l 1
 200 200 l 1
1000 0 m 1
 600 0 l 1
 600 200 l 1
 1000 200 l 1
 1000 0 l 1
1200 200 m 1
 1400 200 l 1
 1400 0 l 1
 1200 0 l 1
 1200 200 l 1
EndSplineSet
EndChar

StartChar: uniE05B
Encoding: 57435 57435 91
Width: 1400
VWidth: 0
Flags: HW
LayerCount: 2
Fore
SplineSet
400 0 m 1
 0 0 l 1
 0 200 l 1
 400 200 l 1
 400 0 l 1
1000 0 m 1
 600 0 l 1
 600 200 l 1
 1000 200 l 1
 1000 0 l 1
1200 200 m 1
 1400 200 l 1
 1400 0 l 1
 1200 0 l 1
 1200 200 l 1
EndSplineSet
EndChar

StartChar: uniE05C
Encoding: 57436 57436 92
Width: 1400
VWidth: 0
Flags: HW
LayerCount: 2
Fore
SplineSet
1000 0 m 1
 400 0 l 1
 400 200 l 1
 1000 200 l 1
 1000 0 l 1
1200 200 m 1
 1400 200 l 1
 1400 0 l 1
 1200 0 l 1
 1200 200 l 1
EndSplineSet
EndChar

StartChar: uniE05D
Encoding: 57437 57437 93
Width: 1400
VWidth: 0
Flags: HW
LayerCount: 2
Fore
SplineSet
0 200 m 1
 200 200 l 1
 200 0 l 1
 0 0 l 1
 0 200 l 1
1000 0 m 1
 400 0 l 1
 400 200 l 1
 1000 200 l 1
 1000 0 l 1
1200 200 m 1
 1400 200 l 1
 1400 0 l 1
 1200 0 l 1
 1200 200 l 1
EndSplineSet
EndChar

StartChar: uniE05E
Encoding: 57438 57438 94
Width: 1400
VWidth: 0
Flags: HW
LayerCount: 2
Fore
SplineSet
1000 0 m 1
 200 0 l 1
 200 200 l 1
 1000 200 l 1
 1000 0 l 1
1200 200 m 1
 1400 200 l 1
 1400 0 l 1
 1200 0 l 1
 1200 200 l 1
EndSplineSet
EndChar

StartChar: uniE05F
Encoding: 57439 57439 95
Width: 1400
VWidth: 0
Flags: HW
LayerCount: 2
Fore
SplineSet
1000 0 m 1
 0 0 l 1
 0 200 l 1
 1000 200 l 1
 1000 0 l 1
1200 200 m 1
 1400 200 l 1
 1400 0 l 1
 1200 0 l 1
 1200 200 l 1
EndSplineSet
EndChar

StartChar: uniE060
Encoding: 57440 57440 96
Width: 1400
VWidth: 0
Flags: HW
LayerCount: 2
Fore
SplineSet
1400 0 m 1
 1000 0 l 1
 1000 200 l 1
 1400 200 l 1
 1400 0 l 1
EndSplineSet
EndChar

StartChar: uniE061
Encoding: 57441 57441 97
Width: 1400
VWidth: 0
Flags: HW
LayerCount: 2
Fore
SplineSet
1400 0 m 1
 1000 0 l 1
 1000 200 l 1
 1400 200 l 1
 1400 0 l 1
0 200 m 1
 200 200 l 1
 200 0 l 1
 0 0 l 1
 0 200 l 1
EndSplineSet
EndChar

StartChar: uniE062
Encoding: 57442 57442 98
Width: 1400
VWidth: 0
Flags: HW
LayerCount: 2
Fore
SplineSet
1400 0 m 1
 1000 0 l 1
 1000 200 l 1
 1400 200 l 1
 1400 0 l 1
200 200 m 1
 400 200 l 1
 400 0 l 1
 200 0 l 1
 200 200 l 1
EndSplineSet
EndChar

StartChar: uniE063
Encoding: 57443 57443 99
Width: 1400
VWidth: 0
Flags: HW
LayerCount: 2
Fore
SplineSet
1400 0 m 1
 1000 0 l 1
 1000 200 l 1
 1400 200 l 1
 1400 0 l 1
400 0 m 1
 0 0 l 1
 0 200 l 1
 400 200 l 1
 400 0 l 1
EndSplineSet
EndChar

StartChar: uniE064
Encoding: 57444 57444 100
Width: 1400
VWidth: 0
Flags: HW
LayerCount: 2
Fore
SplineSet
1400 0 m 1
 1000 0 l 1
 1000 200 l 1
 1400 200 l 1
 1400 0 l 1
400 200 m 1
 600 200 l 1
 600 0 l 1
 400 0 l 1
 400 200 l 1
EndSplineSet
EndChar

StartChar: uniE065
Encoding: 57445 57445 101
Width: 1400
VWidth: 0
Flags: HW
LayerCount: 2
Fore
SplineSet
1400 0 m 1
 1000 0 l 1
 1000 200 l 1
 1400 200 l 1
 1400 0 l 1
0 200 m 1
 200 200 l 1
 200 0 l 1
 0 0 l 1
 0 200 l 1
400 200 m 1
 600 200 l 1
 600 0 l 1
 400 0 l 1
 400 200 l 1
EndSplineSet
EndChar

StartChar: uniE066
Encoding: 57446 57446 102
Width: 1400
VWidth: 0
Flags: HW
LayerCount: 2
Fore
SplineSet
1400 0 m 1
 1000 0 l 1
 1000 200 l 1
 1400 200 l 1
 1400 0 l 1
600 0 m 1
 200 0 l 1
 200 200 l 1
 600 200 l 1
 600 0 l 1
EndSplineSet
EndChar

StartChar: uniE067
Encoding: 57447 57447 103
Width: 1400
VWidth: 0
Flags: HW
LayerCount: 2
Fore
SplineSet
1400 0 m 1
 1000 0 l 1
 1000 200 l 1
 1400 200 l 1
 1400 0 l 1
0 200 m 1
 600 200 l 1
 600 0 l 1
 0 0 l 1
 0 200 l 1
EndSplineSet
EndChar

StartChar: uniE068
Encoding: 57448 57448 104
Width: 1400
VWidth: 0
Flags: HW
LayerCount: 2
Fore
SplineSet
1400 0 m 1
 1000 0 l 1
 1000 200 l 1
 1400 200 l 1
 1400 0 l 1
600 200 m 1
 800 200 l 1
 800 0 l 1
 600 0 l 1
 600 200 l 1
EndSplineSet
EndChar

StartChar: uniE069
Encoding: 57449 57449 105
Width: 1400
VWidth: 0
Flags: HW
LayerCount: 2
Fore
SplineSet
1400 0 m 1
 1000 0 l 1
 1000 200 l 1
 1400 200 l 1
 1400 0 l 1
600 200 m 1
 800 200 l 1
 800 0 l 1
 600 0 l 1
 600 200 l 1
0 200 m 1
 200 200 l 1
 200 0 l 1
 0 0 l 1
 0 200 l 1
EndSplineSet
EndChar

StartChar: uniE06A
Encoding: 57450 57450 106
Width: 1400
VWidth: 0
Flags: HW
LayerCount: 2
Fore
SplineSet
1400 0 m 1
 1000 0 l 1
 1000 200 l 1
 1400 200 l 1
 1400 0 l 1
600 200 m 1
 800 200 l 1
 800 0 l 1
 600 0 l 1
 600 200 l 1
200 200 m 1
 400 200 l 1
 400 0 l 1
 200 0 l 1
 200 200 l 1
EndSplineSet
EndChar

StartChar: uniE06B
Encoding: 57451 57451 107
Width: 1400
VWidth: 0
Flags: HW
LayerCount: 2
Fore
SplineSet
1400 0 m 1
 1000 0 l 1
 1000 200 l 1
 1400 200 l 1
 1400 0 l 1
600 200 m 1
 800 200 l 1
 800 0 l 1
 600 0 l 1
 600 200 l 1
400 0 m 1
 0 0 l 1
 0 200 l 1
 400 200 l 1
 400 0 l 1
EndSplineSet
EndChar

StartChar: uniE06C
Encoding: 57452 57452 108
Width: 1400
VWidth: 0
Flags: HW
LayerCount: 2
Fore
SplineSet
1400 0 m 1
 1000 0 l 1
 1000 200 l 1
 1400 200 l 1
 1400 0 l 1
800 0 m 1
 400 0 l 1
 400 200 l 1
 800 200 l 1
 800 0 l 1
EndSplineSet
EndChar

StartChar: uniE06D
Encoding: 57453 57453 109
Width: 1400
VWidth: 0
Flags: HW
LayerCount: 2
Fore
SplineSet
1400 0 m 1
 1000 0 l 1
 1000 200 l 1
 1400 200 l 1
 1400 0 l 1
0 200 m 1
 200 200 l 1
 200 0 l 1
 0 0 l 1
 0 200 l 1
800 0 m 1
 400 0 l 1
 400 200 l 1
 800 200 l 1
 800 0 l 1
EndSplineSet
EndChar

StartChar: uniE06E
Encoding: 57454 57454 110
Width: 1400
VWidth: 0
Flags: HW
LayerCount: 2
Fore
SplineSet
1400 0 m 1
 1000 0 l 1
 1000 200 l 1
 1400 200 l 1
 1400 0 l 1
200 200 m 1
 800 200 l 1
 800 0 l 1
 200 0 l 1
 200 200 l 1
EndSplineSet
EndChar

StartChar: uniE06F
Encoding: 57455 57455 111
Width: 1400
VWidth: 0
Flags: HW
LayerCount: 2
Fore
SplineSet
1400 0 m 1
 1000 0 l 1
 1000 200 l 1
 1400 200 l 1
 1400 0 l 1
800 0 m 1
 0 0 l 1
 0 200 l 1
 800 200 l 1
 800 0 l 1
EndSplineSet
EndChar

StartChar: uniE070
Encoding: 57456 57456 112
Width: 1400
VWidth: 0
Flags: HW
LayerCount: 2
Fore
SplineSet
800 200 m 1
 1400 200 l 1
 1400 0 l 1
 800 0 l 1
 800 200 l 1
EndSplineSet
EndChar

StartChar: uniE071
Encoding: 57457 57457 113
Width: 1400
VWidth: 0
Flags: HW
LayerCount: 2
Fore
SplineSet
800 200 m 1
 1400 200 l 1
 1400 0 l 1
 800 0 l 1
 800 200 l 1
0 200 m 1
 200 200 l 1
 200 0 l 1
 0 0 l 1
 0 200 l 1
EndSplineSet
EndChar

StartChar: uniE072
Encoding: 57458 57458 114
Width: 1400
VWidth: 0
Flags: HW
LayerCount: 2
Fore
SplineSet
800 200 m 1
 1400 200 l 1
 1400 0 l 1
 800 0 l 1
 800 200 l 1
200 200 m 1
 400 200 l 1
 400 0 l 1
 200 0 l 1
 200 200 l 1
EndSplineSet
EndChar

StartChar: uniE073
Encoding: 57459 57459 115
Width: 1400
VWidth: 0
Flags: HW
LayerCount: 2
Fore
SplineSet
800 200 m 1
 1400 200 l 1
 1400 0 l 1
 800 0 l 1
 800 200 l 1
400 0 m 1
 0 0 l 1
 0 200 l 1
 400 200 l 1
 400 0 l 1
EndSplineSet
EndChar

StartChar: uniE074
Encoding: 57460 57460 116
Width: 1400
VWidth: 0
Flags: HW
LayerCount: 2
Fore
SplineSet
800 200 m 1
 1400 200 l 1
 1400 0 l 1
 800 0 l 1
 800 200 l 1
400 200 m 1
 600 200 l 1
 600 0 l 1
 400 0 l 1
 400 200 l 1
EndSplineSet
EndChar

StartChar: uniE075
Encoding: 57461 57461 117
Width: 1400
VWidth: 0
Flags: HW
LayerCount: 2
Fore
SplineSet
800 200 m 1
 1400 200 l 1
 1400 0 l 1
 800 0 l 1
 800 200 l 1
400 200 m 1
 600 200 l 1
 600 0 l 1
 400 0 l 1
 400 200 l 1
0 200 m 1
 200 200 l 1
 200 0 l 1
 0 0 l 1
 0 200 l 1
EndSplineSet
EndChar

StartChar: uniE076
Encoding: 57462 57462 118
Width: 1400
VWidth: 0
Flags: HW
LayerCount: 2
Fore
SplineSet
800 200 m 1
 1400 200 l 1
 1400 0 l 1
 800 0 l 1
 800 200 l 1
600 0 m 1
 200 0 l 1
 200 200 l 1
 600 200 l 1
 600 0 l 1
EndSplineSet
EndChar

StartChar: uniE077
Encoding: 57463 57463 119
Width: 1400
VWidth: 0
Flags: HW
LayerCount: 2
Fore
SplineSet
800 200 m 1
 1400 200 l 1
 1400 0 l 1
 800 0 l 1
 800 200 l 1
0 200 m 1
 600 200 l 1
 600 0 l 1
 0 0 l 1
 0 200 l 1
EndSplineSet
EndChar

StartChar: uniE078
Encoding: 57464 57464 120
Width: 1400
VWidth: 0
Flags: HW
LayerCount: 2
Fore
SplineSet
1400 0 m 1
 600 0 l 1
 600 200 l 1
 1400 200 l 1
 1400 0 l 1
EndSplineSet
EndChar

StartChar: uniE079
Encoding: 57465 57465 121
Width: 1400
VWidth: 0
Flags: HW
LayerCount: 2
Fore
SplineSet
1400 0 m 1
 600 0 l 1
 600 200 l 1
 1400 200 l 1
 1400 0 l 1
0 200 m 1
 200 200 l 1
 200 0 l 1
 0 0 l 1
 0 200 l 1
EndSplineSet
EndChar

StartChar: uniE07A
Encoding: 57466 57466 122
Width: 1400
VWidth: 0
Flags: HW
LayerCount: 2
Fore
SplineSet
1400 0 m 1
 600 0 l 1
 600 200 l 1
 1400 200 l 1
 1400 0 l 1
200 200 m 1
 400 200 l 1
 400 0 l 1
 200 0 l 1
 200 200 l 1
EndSplineSet
EndChar

StartChar: uniE07B
Encoding: 57467 57467 123
Width: 1400
VWidth: 0
Flags: HW
LayerCount: 2
Fore
SplineSet
1400 0 m 1
 600 0 l 1
 600 200 l 1
 1400 200 l 1
 1400 0 l 1
400 0 m 1
 0 0 l 1
 0 200 l 1
 400 200 l 1
 400 0 l 1
EndSplineSet
EndChar

StartChar: uniE07C
Encoding: 57468 57468 124
Width: 1400
VWidth: 0
Flags: HW
LayerCount: 2
Fore
SplineSet
1400 0 m 1
 400 0 l 1
 400 200 l 1
 1400 200 l 1
 1400 0 l 1
EndSplineSet
EndChar

StartChar: uniE07D
Encoding: 57469 57469 125
Width: 1400
VWidth: 0
Flags: HW
LayerCount: 2
Fore
SplineSet
1400 0 m 1
 400 0 l 1
 400 200 l 1
 1400 200 l 1
 1400 0 l 1
0 200 m 1
 200 200 l 1
 200 0 l 1
 0 0 l 1
 0 200 l 1
EndSplineSet
EndChar

StartChar: uniE07E
Encoding: 57470 57470 126
Width: 1400
VWidth: 0
Flags: HW
LayerCount: 2
Fore
SplineSet
1400 0 m 1
 200 0 l 1
 200 200 l 1
 1400 200 l 1
 1400 0 l 1
EndSplineSet
EndChar

StartChar: uniE07F
Encoding: 57471 57471 127
Width: 1400
VWidth: 0
Flags: HW
LayerCount: 2
Fore
SplineSet
1400 0 m 1
 0 0 l 1
 0 200 l 1
 1400 200 l 1
 1400 0 l 1
EndSplineSet
EndChar

StartChar: uniE081
Encoding: 57473 57473 129
Width: 1400
VWidth: 0
Flags: HW
LayerCount: 2
Fore
SplineSet
100 200 m 1
 300 200 l 1
 300 0 l 1
 100 0 l 1
 100 200 l 1
EndSplineSet
EndChar

StartChar: uniE082
Encoding: 57474 57474 130
Width: 1400
VWidth: 0
Flags: HW
LayerCount: 2
Fore
SplineSet
300 200 m 1
 500 200 l 1
 500 0 l 1
 300 0 l 1
 300 200 l 1
EndSplineSet
EndChar

StartChar: uniE083
Encoding: 57475 57475 131
Width: 1400
VWidth: 0
Flags: HW
LayerCount: 2
Fore
SplineSet
500 0 m 1
 100 0 l 1
 100 200 l 1
 500 200 l 1
 500 0 l 1
EndSplineSet
EndChar

StartChar: uniE084
Encoding: 57476 57476 132
Width: 1400
VWidth: 0
Flags: HW
LayerCount: 2
Fore
SplineSet
500 200 m 1
 700 200 l 1
 700 0 l 1
 500 0 l 1
 500 200 l 1
EndSplineSet
EndChar

StartChar: uniE085
Encoding: 57477 57477 133
Width: 1400
VWidth: 0
Flags: HW
LayerCount: 2
Fore
SplineSet
100 200 m 1
 300 200 l 1
 300 0 l 1
 100 0 l 1
 100 200 l 1
500 200 m 1
 700 200 l 1
 700 0 l 1
 500 0 l 1
 500 200 l 1
EndSplineSet
EndChar

StartChar: uniE086
Encoding: 57478 57478 134
Width: 1400
VWidth: 0
Flags: HW
LayerCount: 2
Fore
SplineSet
700 0 m 1
 300 0 l 1
 300 200 l 1
 700 200 l 1
 700 0 l 1
EndSplineSet
EndChar

StartChar: uniE087
Encoding: 57479 57479 135
Width: 1400
VWidth: 0
Flags: HW
LayerCount: 2
Fore
SplineSet
100 200 m 1
 700 200 l 1
 700 0 l 1
 100 0 l 1
 100 200 l 1
EndSplineSet
EndChar

StartChar: uniE088
Encoding: 57480 57480 136
Width: 1400
VWidth: 0
Flags: HW
LayerCount: 2
Fore
SplineSet
700 200 m 1
 900 200 l 1
 900 0 l 1
 700 0 l 1
 700 200 l 1
EndSplineSet
EndChar

StartChar: uniE089
Encoding: 57481 57481 137
Width: 1400
VWidth: 0
Flags: HW
LayerCount: 2
Fore
SplineSet
700 200 m 1
 900 200 l 1
 900 0 l 1
 700 0 l 1
 700 200 l 1
100 200 m 1
 300 200 l 1
 300 0 l 1
 100 0 l 1
 100 200 l 1
EndSplineSet
EndChar

StartChar: uniE08A
Encoding: 57482 57482 138
Width: 1400
VWidth: 0
Flags: HW
LayerCount: 2
Fore
SplineSet
700 200 m 1
 900 200 l 1
 900 0 l 1
 700 0 l 1
 700 200 l 1
300 200 m 1
 500 200 l 1
 500 0 l 1
 300 0 l 1
 300 200 l 1
EndSplineSet
EndChar

StartChar: uniE08B
Encoding: 57483 57483 139
Width: 1400
VWidth: 0
Flags: HW
LayerCount: 2
Fore
SplineSet
700 200 m 1
 900 200 l 1
 900 0 l 1
 700 0 l 1
 700 200 l 1
500 0 m 1
 100 0 l 1
 100 200 l 1
 500 200 l 1
 500 0 l 1
EndSplineSet
EndChar

StartChar: uniE08C
Encoding: 57484 57484 140
Width: 1400
VWidth: 0
Flags: HW
LayerCount: 2
Fore
SplineSet
900 0 m 1
 500 0 l 1
 500 200 l 1
 900 200 l 1
 900 0 l 1
EndSplineSet
EndChar

StartChar: uniE08D
Encoding: 57485 57485 141
Width: 1400
VWidth: 0
Flags: HW
LayerCount: 2
Fore
SplineSet
900 0 m 1
 500 0 l 1
 500 200 l 1
 900 200 l 1
 900 0 l 1
100 200 m 1
 300 200 l 1
 300 0 l 1
 100 0 l 1
 100 200 l 1
EndSplineSet
EndChar

StartChar: uniE08E
Encoding: 57486 57486 142
Width: 1400
VWidth: 0
Flags: HW
LayerCount: 2
Fore
SplineSet
300 200 m 1
 900 200 l 1
 900 0 l 1
 300 0 l 1
 300 200 l 1
EndSplineSet
EndChar

StartChar: uniE08F
Encoding: 57487 57487 143
Width: 1400
VWidth: 0
Flags: HW
LayerCount: 2
Fore
SplineSet
900 0 m 1
 100 0 l 1
 100 200 l 1
 900 200 l 1
 900 0 l 1
EndSplineSet
EndChar

StartChar: uniE090
Encoding: 57488 57488 144
Width: 1400
VWidth: 0
Flags: HW
LayerCount: 2
Fore
SplineSet
900 200 m 1
 1100 200 l 1
 1100 0 l 1
 900 0 l 1
 900 200 l 1
EndSplineSet
EndChar

StartChar: uniE091
Encoding: 57489 57489 145
Width: 1400
VWidth: 0
Flags: HW
LayerCount: 2
Fore
SplineSet
100 200 m 1
 300 200 l 1
 300 0 l 1
 100 0 l 1
 100 200 l 1
900 200 m 1
 1100 200 l 1
 1100 0 l 1
 900 0 l 1
 900 200 l 1
EndSplineSet
EndChar

StartChar: uniE092
Encoding: 57490 57490 146
Width: 1400
VWidth: 0
Flags: HW
LayerCount: 2
Fore
SplineSet
300 200 m 1
 500 200 l 1
 500 0 l 1
 300 0 l 1
 300 200 l 1
900 200 m 1
 1100 200 l 1
 1100 0 l 1
 900 0 l 1
 900 200 l 1
EndSplineSet
EndChar

StartChar: uniE093
Encoding: 57491 57491 147
Width: 1400
VWidth: 0
Flags: HW
LayerCount: 2
Fore
SplineSet
500 0 m 1
 100 0 l 1
 100 200 l 1
 500 200 l 1
 500 0 l 1
900 200 m 1
 1100 200 l 1
 1100 0 l 1
 900 0 l 1
 900 200 l 1
EndSplineSet
EndChar

StartChar: uniE094
Encoding: 57492 57492 148
Width: 1400
VWidth: 0
Flags: HW
LayerCount: 2
Fore
SplineSet
500 200 m 1
 700 200 l 1
 700 0 l 1
 500 0 l 1
 500 200 l 1
900 200 m 1
 1100 200 l 1
 1100 0 l 1
 900 0 l 1
 900 200 l 1
EndSplineSet
EndChar

StartChar: uniE095
Encoding: 57493 57493 149
Width: 1400
VWidth: 0
Flags: HW
LayerCount: 2
Fore
SplineSet
500 200 m 1
 700 200 l 1
 700 0 l 1
 500 0 l 1
 500 200 l 1
100 200 m 1
 300 200 l 1
 300 0 l 1
 100 0 l 1
 100 200 l 1
900 200 m 1
 1100 200 l 1
 1100 0 l 1
 900 0 l 1
 900 200 l 1
EndSplineSet
EndChar

StartChar: uniE096
Encoding: 57494 57494 150
Width: 1400
VWidth: 0
Flags: HW
LayerCount: 2
Fore
SplineSet
700 0 m 1
 300 0 l 1
 300 200 l 1
 700 200 l 1
 700 0 l 1
900 200 m 1
 1100 200 l 1
 1100 0 l 1
 900 0 l 1
 900 200 l 1
EndSplineSet
EndChar

StartChar: uniE097
Encoding: 57495 57495 151
Width: 1400
VWidth: 0
Flags: HW
LayerCount: 2
Fore
SplineSet
100 200 m 1
 700 200 l 1
 700 0 l 1
 100 0 l 1
 100 200 l 1
900 200 m 1
 1100 200 l 1
 1100 0 l 1
 900 0 l 1
 900 200 l 1
EndSplineSet
EndChar

StartChar: uniE098
Encoding: 57496 57496 152
Width: 1400
VWidth: 0
Flags: HW
LayerCount: 2
Fore
SplineSet
1100 0 m 1
 700 0 l 1
 700 200 l 1
 1100 200 l 1
 1100 0 l 1
EndSplineSet
EndChar

StartChar: uniE099
Encoding: 57497 57497 153
Width: 1400
VWidth: 0
Flags: HW
LayerCount: 2
Fore
SplineSet
1100 0 m 1
 700 0 l 1
 700 200 l 1
 1100 200 l 1
 1100 0 l 1
100 200 m 1
 300 200 l 1
 300 0 l 1
 100 0 l 1
 100 200 l 1
EndSplineSet
EndChar

StartChar: uniE09A
Encoding: 57498 57498 154
Width: 1400
VWidth: 0
Flags: HW
LayerCount: 2
Fore
SplineSet
1100 0 m 1
 700 0 l 1
 700 200 l 1
 1100 200 l 1
 1100 0 l 1
300 200 m 1
 500 200 l 1
 500 0 l 1
 300 0 l 1
 300 200 l 1
EndSplineSet
EndChar

StartChar: uniE09B
Encoding: 57499 57499 155
Width: 1400
VWidth: 0
Flags: HW
LayerCount: 2
Fore
SplineSet
1100 0 m 1
 700 0 l 1
 700 200 l 1
 1100 200 l 1
 1100 0 l 1
500 0 m 1
 100 0 l 1
 100 200 l 1
 500 200 l 1
 500 0 l 1
EndSplineSet
EndChar

StartChar: uniE09C
Encoding: 57500 57500 156
Width: 1400
VWidth: 0
Flags: HW
LayerCount: 2
Fore
SplineSet
1100 0 m 1
 500 0 l 1
 500 200 l 1
 1100 200 l 1
 1100 0 l 1
EndSplineSet
EndChar

StartChar: uniE09D
Encoding: 57501 57501 157
Width: 1400
VWidth: 0
Flags: HW
LayerCount: 2
Fore
SplineSet
1100 0 m 1
 500 0 l 1
 500 200 l 1
 1100 200 l 1
 1100 0 l 1
100 200 m 1
 300 200 l 1
 300 0 l 1
 100 0 l 1
 100 200 l 1
EndSplineSet
EndChar

StartChar: uniE09E
Encoding: 57502 57502 158
Width: 1400
VWidth: 0
Flags: HW
LayerCount: 2
Fore
SplineSet
1100 0 m 1
 300 0 l 1
 300 200 l 1
 1100 200 l 1
 1100 0 l 1
EndSplineSet
EndChar

StartChar: uniE09F
Encoding: 57503 57503 159
Width: 1400
VWidth: 0
Flags: HW
LayerCount: 2
Fore
SplineSet
1100 0 m 1
 100 0 l 1
 100 200 l 1
 1100 200 l 1
 1100 0 l 1
EndSplineSet
EndChar

StartChar: uniE0A0
Encoding: 57504 57504 160
Width: 1400
VWidth: 0
Flags: HW
LayerCount: 2
Fore
SplineSet
1100 200 m 1
 1300 200 l 1
 1300 0 l 1
 1100 0 l 1
 1100 200 l 1
EndSplineSet
EndChar

StartChar: uniE0A1
Encoding: 57505 57505 161
Width: 1400
VWidth: 0
Flags: HW
LayerCount: 2
Fore
SplineSet
100 200 m 1
 300 200 l 1
 300 0 l 1
 100 0 l 1
 100 200 l 1
1100 200 m 1
 1300 200 l 1
 1300 0 l 1
 1100 0 l 1
 1100 200 l 1
EndSplineSet
EndChar

StartChar: uniE0A2
Encoding: 57506 57506 162
Width: 1400
VWidth: 0
Flags: HW
LayerCount: 2
Fore
SplineSet
300 200 m 1
 500 200 l 1
 500 0 l 1
 300 0 l 1
 300 200 l 1
1100 200 m 1
 1300 200 l 1
 1300 0 l 1
 1100 0 l 1
 1100 200 l 1
EndSplineSet
EndChar

StartChar: uniE0A3
Encoding: 57507 57507 163
Width: 1400
VWidth: 0
Flags: HW
LayerCount: 2
Fore
SplineSet
500 0 m 1
 100 0 l 1
 100 200 l 1
 500 200 l 1
 500 0 l 1
1100 200 m 1
 1300 200 l 1
 1300 0 l 1
 1100 0 l 1
 1100 200 l 1
EndSplineSet
EndChar

StartChar: uniE0A4
Encoding: 57508 57508 164
Width: 1400
VWidth: 0
Flags: HW
LayerCount: 2
Fore
SplineSet
500 200 m 1
 700 200 l 1
 700 0 l 1
 500 0 l 1
 500 200 l 1
1100 200 m 1
 1300 200 l 1
 1300 0 l 1
 1100 0 l 1
 1100 200 l 1
EndSplineSet
EndChar

StartChar: uniE0A5
Encoding: 57509 57509 165
Width: 1400
VWidth: 0
Flags: HW
LayerCount: 2
Fore
SplineSet
500 200 m 1
 700 200 l 1
 700 0 l 1
 500 0 l 1
 500 200 l 1
100 200 m 1
 300 200 l 1
 300 0 l 1
 100 0 l 1
 100 200 l 1
1100 200 m 1
 1300 200 l 1
 1300 0 l 1
 1100 0 l 1
 1100 200 l 1
EndSplineSet
EndChar

StartChar: uniE0A6
Encoding: 57510 57510 166
Width: 1400
VWidth: 0
Flags: HW
LayerCount: 2
Fore
SplineSet
700 0 m 1
 300 0 l 1
 300 200 l 1
 700 200 l 1
 700 0 l 1
1100 200 m 1
 1300 200 l 1
 1300 0 l 1
 1100 0 l 1
 1100 200 l 1
EndSplineSet
EndChar

StartChar: uniE0A7
Encoding: 57511 57511 167
Width: 1400
VWidth: 0
Flags: HW
LayerCount: 2
Fore
SplineSet
100 200 m 1
 700 200 l 1
 700 0 l 1
 100 0 l 1
 100 200 l 1
1100 200 m 1
 1300 200 l 1
 1300 0 l 1
 1100 0 l 1
 1100 200 l 1
EndSplineSet
EndChar

StartChar: uniE0A8
Encoding: 57512 57512 168
Width: 1400
VWidth: 0
Flags: HW
LayerCount: 2
Fore
SplineSet
700 200 m 1
 900 200 l 1
 900 0 l 1
 700 0 l 1
 700 200 l 1
1100 200 m 1
 1300 200 l 1
 1300 0 l 1
 1100 0 l 1
 1100 200 l 1
EndSplineSet
EndChar

StartChar: uniE0A9
Encoding: 57513 57513 169
Width: 1400
VWidth: 0
Flags: HW
LayerCount: 2
Fore
SplineSet
100 200 m 1
 300 200 l 1
 300 0 l 1
 100 0 l 1
 100 200 l 1
700 200 m 1
 900 200 l 1
 900 0 l 1
 700 0 l 1
 700 200 l 1
1100 200 m 1
 1300 200 l 1
 1300 0 l 1
 1100 0 l 1
 1100 200 l 1
EndSplineSet
EndChar

StartChar: uniE0AA
Encoding: 57514 57514 170
Width: 1400
VWidth: 0
Flags: HW
LayerCount: 2
Fore
SplineSet
300 200 m 1
 500 200 l 1
 500 0 l 1
 300 0 l 1
 300 200 l 1
700 200 m 1
 900 200 l 1
 900 0 l 1
 700 0 l 1
 700 200 l 1
1100 200 m 1
 1300 200 l 1
 1300 0 l 1
 1100 0 l 1
 1100 200 l 1
EndSplineSet
EndChar

StartChar: uniE0AB
Encoding: 57515 57515 171
Width: 1400
VWidth: 0
Flags: HW
LayerCount: 2
Fore
SplineSet
500 0 m 1
 100 0 l 1
 100 200 l 1
 500 200 l 1
 500 0 l 1
700 200 m 1
 900 200 l 1
 900 0 l 1
 700 0 l 1
 700 200 l 1
1100 200 m 1
 1300 200 l 1
 1300 0 l 1
 1100 0 l 1
 1100 200 l 1
EndSplineSet
EndChar

StartChar: uniE0AC
Encoding: 57516 57516 172
Width: 1400
VWidth: 0
Flags: HW
LayerCount: 2
Fore
SplineSet
900 0 m 1
 500 0 l 1
 500 200 l 1
 900 200 l 1
 900 0 l 1
1100 200 m 1
 1300 200 l 1
 1300 0 l 1
 1100 0 l 1
 1100 200 l 1
EndSplineSet
EndChar

StartChar: uniE0AD
Encoding: 57517 57517 173
Width: 1400
VWidth: 0
Flags: HW
LayerCount: 2
Fore
SplineSet
900 0 m 1
 500 0 l 1
 500 200 l 1
 900 200 l 1
 900 0 l 1
100 200 m 1
 300 200 l 1
 300 0 l 1
 100 0 l 1
 100 200 l 1
1100 200 m 1
 1300 200 l 1
 1300 0 l 1
 1100 0 l 1
 1100 200 l 1
EndSplineSet
EndChar

StartChar: uniE0AE
Encoding: 57518 57518 174
Width: 1400
VWidth: 0
Flags: HW
LayerCount: 2
Fore
SplineSet
300 200 m 1
 900 200 l 1
 900 0 l 1
 300 0 l 1
 300 200 l 1
1100 200 m 1
 1300 200 l 1
 1300 0 l 1
 1100 0 l 1
 1100 200 l 1
EndSplineSet
EndChar

StartChar: uniE0AF
Encoding: 57519 57519 175
Width: 1400
VWidth: 0
Flags: HW
LayerCount: 2
Fore
SplineSet
900 0 m 1
 100 0 l 1
 100 200 l 1
 900 200 l 1
 900 0 l 1
1100 200 m 1
 1300 200 l 1
 1300 0 l 1
 1100 0 l 1
 1100 200 l 1
EndSplineSet
EndChar

StartChar: uniE0B0
Encoding: 57520 57520 176
Width: 1400
VWidth: 0
Flags: HW
LayerCount: 2
Fore
SplineSet
1300 0 m 1
 900 0 l 1
 900 200 l 1
 1300 200 l 1
 1300 0 l 1
EndSplineSet
EndChar

StartChar: uniE0B1
Encoding: 57521 57521 177
Width: 1400
VWidth: 0
Flags: HW
LayerCount: 2
Fore
SplineSet
1300 0 m 1
 900 0 l 1
 900 200 l 1
 1300 200 l 1
 1300 0 l 1
100 200 m 1
 300 200 l 1
 300 0 l 1
 100 0 l 1
 100 200 l 1
EndSplineSet
EndChar

StartChar: uniE0B2
Encoding: 57522 57522 178
Width: 1400
VWidth: 0
Flags: HW
LayerCount: 2
Fore
SplineSet
1300 0 m 1
 900 0 l 1
 900 200 l 1
 1300 200 l 1
 1300 0 l 1
300 200 m 1
 500 200 l 1
 500 0 l 1
 300 0 l 1
 300 200 l 1
EndSplineSet
EndChar

StartChar: uniE0B3
Encoding: 57523 57523 179
Width: 1400
VWidth: 0
Flags: HW
LayerCount: 2
Fore
SplineSet
1300 0 m 1
 900 0 l 1
 900 200 l 1
 1300 200 l 1
 1300 0 l 1
500 0 m 1
 100 0 l 1
 100 200 l 1
 500 200 l 1
 500 0 l 1
EndSplineSet
EndChar

StartChar: uniE0B4
Encoding: 57524 57524 180
Width: 1400
VWidth: 0
Flags: HW
LayerCount: 2
Fore
SplineSet
1300 0 m 1
 900 0 l 1
 900 200 l 1
 1300 200 l 1
 1300 0 l 1
500 200 m 1
 700 200 l 1
 700 0 l 1
 500 0 l 1
 500 200 l 1
EndSplineSet
EndChar

StartChar: uniE0B5
Encoding: 57525 57525 181
Width: 1400
VWidth: 0
Flags: HW
LayerCount: 2
Fore
SplineSet
1300 0 m 1
 900 0 l 1
 900 200 l 1
 1300 200 l 1
 1300 0 l 1
100 200 m 1
 300 200 l 1
 300 0 l 1
 100 0 l 1
 100 200 l 1
500 200 m 1
 700 200 l 1
 700 0 l 1
 500 0 l 1
 500 200 l 1
EndSplineSet
EndChar

StartChar: uniE0B6
Encoding: 57526 57526 182
Width: 1400
VWidth: 0
Flags: HW
LayerCount: 2
Fore
SplineSet
1300 0 m 1
 900 0 l 1
 900 200 l 1
 1300 200 l 1
 1300 0 l 1
700 0 m 1
 300 0 l 1
 300 200 l 1
 700 200 l 1
 700 0 l 1
EndSplineSet
EndChar

StartChar: uniE0B7
Encoding: 57527 57527 183
Width: 1400
VWidth: 0
Flags: HW
LayerCount: 2
Fore
SplineSet
1300 0 m 1
 900 0 l 1
 900 200 l 1
 1300 200 l 1
 1300 0 l 1
100 200 m 1
 700 200 l 1
 700 0 l 1
 100 0 l 1
 100 200 l 1
EndSplineSet
EndChar

StartChar: uniE0B8
Encoding: 57528 57528 184
Width: 1400
VWidth: 0
Flags: HW
LayerCount: 2
Fore
SplineSet
700 200 m 1
 1300 200 l 1
 1300 0 l 1
 700 0 l 1
 700 200 l 1
EndSplineSet
EndChar

StartChar: uniE0B9
Encoding: 57529 57529 185
Width: 1400
VWidth: 0
Flags: HW
LayerCount: 2
Fore
SplineSet
700 200 m 1
 1300 200 l 1
 1300 0 l 1
 700 0 l 1
 700 200 l 1
100 200 m 1
 300 200 l 1
 300 0 l 1
 100 0 l 1
 100 200 l 1
EndSplineSet
EndChar

StartChar: uniE0BA
Encoding: 57530 57530 186
Width: 1400
VWidth: 0
Flags: HW
LayerCount: 2
Fore
SplineSet
700 200 m 1
 1300 200 l 1
 1300 0 l 1
 700 0 l 1
 700 200 l 1
300 200 m 1
 500 200 l 1
 500 0 l 1
 300 0 l 1
 300 200 l 1
EndSplineSet
EndChar

StartChar: uniE0BB
Encoding: 57531 57531 187
Width: 1400
VWidth: 0
Flags: HW
LayerCount: 2
Fore
SplineSet
700 200 m 1
 1300 200 l 1
 1300 0 l 1
 700 0 l 1
 700 200 l 1
500 0 m 1
 100 0 l 1
 100 200 l 1
 500 200 l 1
 500 0 l 1
EndSplineSet
EndChar

StartChar: uniE0BC
Encoding: 57532 57532 188
Width: 1400
VWidth: 0
Flags: HW
LayerCount: 2
Fore
SplineSet
500 200 m 1
 1300 200 l 1
 1300 0 l 1
 500 0 l 1
 500 200 l 1
EndSplineSet
EndChar

StartChar: uniE0BD
Encoding: 57533 57533 189
Width: 1400
VWidth: 0
Flags: HW
LayerCount: 2
Fore
SplineSet
500 200 m 1
 1300 200 l 1
 1300 0 l 1
 500 0 l 1
 500 200 l 1
100 200 m 1
 300 200 l 1
 300 0 l 1
 100 0 l 1
 100 200 l 1
EndSplineSet
EndChar

StartChar: uniE0BE
Encoding: 57534 57534 190
Width: 1400
VWidth: 0
Flags: HW
LayerCount: 2
Fore
SplineSet
300 200 m 1
 1300 200 l 1
 1300 0 l 1
 300 0 l 1
 300 200 l 1
EndSplineSet
EndChar

StartChar: uniE0BF
Encoding: 57535 57535 191
Width: 1400
VWidth: 0
Flags: HW
LayerCount: 2
Fore
SplineSet
100 200 m 1
 1300 200 l 1
 1300 0 l 1
 100 0 l 1
 100 200 l 1
EndSplineSet
EndChar

StartChar: uniE0C0
Encoding: 57536 57536 192
Width: 1400
VWidth: 0
Flags: HW
LayerCount: 2
Fore
SplineSet
1300 200 m 1
 1400 200 l 1
 1400 0 l 1
 1300 0 l 1
 1300 200 l 1
EndSplineSet
EndChar

StartChar: uniE0C1
Encoding: 57537 57537 193
Width: 1400
VWidth: 0
Flags: HW
LayerCount: 2
Fore
SplineSet
1300 200 m 1
 1400 200 l 1
 1400 0 l 1
 1300 0 l 1
 1300 200 l 1
100 200 m 1
 300 200 l 1
 300 0 l 1
 100 0 l 1
 100 200 l 1
EndSplineSet
EndChar

StartChar: uniE0C2
Encoding: 57538 57538 194
Width: 1400
VWidth: 0
Flags: HW
LayerCount: 2
Fore
SplineSet
1300 200 m 1
 1400 200 l 1
 1400 0 l 1
 1300 0 l 1
 1300 200 l 1
300 200 m 1
 500 200 l 1
 500 0 l 1
 300 0 l 1
 300 200 l 1
EndSplineSet
EndChar

StartChar: uniE0C3
Encoding: 57539 57539 195
Width: 1400
VWidth: 0
Flags: HW
LayerCount: 2
Fore
SplineSet
1300 200 m 1
 1400 200 l 1
 1400 0 l 1
 1300 0 l 1
 1300 200 l 1
500 0 m 1
 100 0 l 1
 100 200 l 1
 500 200 l 1
 500 0 l 1
EndSplineSet
EndChar

StartChar: uniE0C4
Encoding: 57540 57540 196
Width: 1400
VWidth: 0
Flags: HW
LayerCount: 2
Fore
SplineSet
1300 200 m 1
 1400 200 l 1
 1400 0 l 1
 1300 0 l 1
 1300 200 l 1
500 200 m 1
 700 200 l 1
 700 0 l 1
 500 0 l 1
 500 200 l 1
EndSplineSet
EndChar

StartChar: uniE0C5
Encoding: 57541 57541 197
Width: 1400
VWidth: 0
Flags: HW
LayerCount: 2
Fore
SplineSet
1300 200 m 1
 1400 200 l 1
 1400 0 l 1
 1300 0 l 1
 1300 200 l 1
500 200 m 1
 700 200 l 1
 700 0 l 1
 500 0 l 1
 500 200 l 1
100 200 m 1
 300 200 l 1
 300 0 l 1
 100 0 l 1
 100 200 l 1
EndSplineSet
EndChar

StartChar: uniE0C6
Encoding: 57542 57542 198
Width: 1400
VWidth: 0
Flags: HW
LayerCount: 2
Fore
SplineSet
1300 200 m 1
 1400 200 l 1
 1400 0 l 1
 1300 0 l 1
 1300 200 l 1
700 0 m 1
 300 0 l 1
 300 200 l 1
 700 200 l 1
 700 0 l 1
EndSplineSet
EndChar

StartChar: uniE0C7
Encoding: 57543 57543 199
Width: 1400
VWidth: 0
Flags: HW
LayerCount: 2
Fore
SplineSet
1300 200 m 1
 1400 200 l 1
 1400 0 l 1
 1300 0 l 1
 1300 200 l 1
100 200 m 1
 700 200 l 1
 700 0 l 1
 100 0 l 1
 100 200 l 1
EndSplineSet
EndChar

StartChar: uniE0C8
Encoding: 57544 57544 200
Width: 1400
VWidth: 0
Flags: HW
LayerCount: 2
Fore
SplineSet
1300 200 m 1
 1400 200 l 1
 1400 0 l 1
 1300 0 l 1
 1300 200 l 1
700 200 m 1
 900 200 l 1
 900 0 l 1
 700 0 l 1
 700 200 l 1
EndSplineSet
EndChar

StartChar: uniE0C9
Encoding: 57545 57545 201
Width: 1400
VWidth: 0
Flags: HW
LayerCount: 2
Fore
SplineSet
1300 200 m 1
 1400 200 l 1
 1400 0 l 1
 1300 0 l 1
 1300 200 l 1
100 200 m 1
 300 200 l 1
 300 0 l 1
 100 0 l 1
 100 200 l 1
700 200 m 1
 900 200 l 1
 900 0 l 1
 700 0 l 1
 700 200 l 1
EndSplineSet
EndChar

StartChar: uniE0CA
Encoding: 57546 57546 202
Width: 1400
VWidth: 0
Flags: HW
LayerCount: 2
Fore
SplineSet
1300 200 m 1
 1400 200 l 1
 1400 0 l 1
 1300 0 l 1
 1300 200 l 1
300 200 m 1
 500 200 l 1
 500 0 l 1
 300 0 l 1
 300 200 l 1
700 200 m 1
 900 200 l 1
 900 0 l 1
 700 0 l 1
 700 200 l 1
EndSplineSet
EndChar

StartChar: uniE0CB
Encoding: 57547 57547 203
Width: 1400
VWidth: 0
Flags: HW
LayerCount: 2
Fore
SplineSet
1300 200 m 1
 1400 200 l 1
 1400 0 l 1
 1300 0 l 1
 1300 200 l 1
500 0 m 1
 100 0 l 1
 100 200 l 1
 500 200 l 1
 500 0 l 1
700 200 m 1
 900 200 l 1
 900 0 l 1
 700 0 l 1
 700 200 l 1
EndSplineSet
EndChar

StartChar: uniE0CC
Encoding: 57548 57548 204
Width: 1400
VWidth: 0
Flags: HW
LayerCount: 2
Fore
SplineSet
1300 200 m 1
 1400 200 l 1
 1400 0 l 1
 1300 0 l 1
 1300 200 l 1
900 0 m 1
 500 0 l 1
 500 200 l 1
 900 200 l 1
 900 0 l 1
EndSplineSet
EndChar

StartChar: uniE0CD
Encoding: 57549 57549 205
Width: 1400
VWidth: 0
Flags: HW
LayerCount: 2
Fore
SplineSet
1300 200 m 1
 1400 200 l 1
 1400 0 l 1
 1300 0 l 1
 1300 200 l 1
100 200 m 1
 300 200 l 1
 300 0 l 1
 100 0 l 1
 100 200 l 1
900 0 m 1
 500 0 l 1
 500 200 l 1
 900 200 l 1
 900 0 l 1
EndSplineSet
EndChar

StartChar: uniE0CE
Encoding: 57550 57550 206
Width: 1400
VWidth: 0
Flags: HW
LayerCount: 2
Fore
SplineSet
1300 200 m 1
 1400 200 l 1
 1400 0 l 1
 1300 0 l 1
 1300 200 l 1
300 200 m 1
 900 200 l 1
 900 0 l 1
 300 0 l 1
 300 200 l 1
EndSplineSet
EndChar

StartChar: uniE0CF
Encoding: 57551 57551 207
Width: 1400
VWidth: 0
Flags: HW
LayerCount: 2
Fore
SplineSet
1300 200 m 1
 1400 200 l 1
 1400 0 l 1
 1300 0 l 1
 1300 200 l 1
900 0 m 1
 100 0 l 1
 100 200 l 1
 900 200 l 1
 900 0 l 1
EndSplineSet
EndChar

StartChar: uniE0D0
Encoding: 57552 57552 208
Width: 1400
VWidth: 0
Flags: HW
LayerCount: 2
Fore
SplineSet
1300 200 m 1
 1400 200 l 1
 1400 0 l 1
 1300 0 l 1
 1300 200 l 1
900 200 m 1
 1100 200 l 1
 1100 0 l 1
 900 0 l 1
 900 200 l 1
EndSplineSet
EndChar

StartChar: uniE0D1
Encoding: 57553 57553 209
Width: 1400
VWidth: 0
Flags: HW
LayerCount: 2
Fore
SplineSet
1300 200 m 1
 1400 200 l 1
 1400 0 l 1
 1300 0 l 1
 1300 200 l 1
900 200 m 1
 1100 200 l 1
 1100 0 l 1
 900 0 l 1
 900 200 l 1
100 200 m 1
 300 200 l 1
 300 0 l 1
 100 0 l 1
 100 200 l 1
EndSplineSet
EndChar

StartChar: uniE0D2
Encoding: 57554 57554 210
Width: 1400
VWidth: 0
Flags: HW
LayerCount: 2
Fore
SplineSet
1300 200 m 1
 1400 200 l 1
 1400 0 l 1
 1300 0 l 1
 1300 200 l 1
900 200 m 1
 1100 200 l 1
 1100 0 l 1
 900 0 l 1
 900 200 l 1
300 200 m 1
 500 200 l 1
 500 0 l 1
 300 0 l 1
 300 200 l 1
EndSplineSet
EndChar

StartChar: uniE0D3
Encoding: 57555 57555 211
Width: 1400
VWidth: 0
Flags: HW
LayerCount: 2
Fore
SplineSet
1300 200 m 1
 1400 200 l 1
 1400 0 l 1
 1300 0 l 1
 1300 200 l 1
900 200 m 1
 1100 200 l 1
 1100 0 l 1
 900 0 l 1
 900 200 l 1
500 0 m 1
 100 0 l 1
 100 200 l 1
 500 200 l 1
 500 0 l 1
EndSplineSet
EndChar

StartChar: uniE0D4
Encoding: 57556 57556 212
Width: 1400
VWidth: 0
Flags: HW
LayerCount: 2
Fore
SplineSet
1300 200 m 1
 1400 200 l 1
 1400 0 l 1
 1300 0 l 1
 1300 200 l 1
900 200 m 1
 1100 200 l 1
 1100 0 l 1
 900 0 l 1
 900 200 l 1
500 200 m 1
 700 200 l 1
 700 0 l 1
 500 0 l 1
 500 200 l 1
EndSplineSet
EndChar

StartChar: uniE0D5
Encoding: 57557 57557 213
Width: 1400
VWidth: 0
Flags: HW
LayerCount: 2
Fore
SplineSet
1300 200 m 1
 1400 200 l 1
 1400 0 l 1
 1300 0 l 1
 1300 200 l 1
900 200 m 1
 1100 200 l 1
 1100 0 l 1
 900 0 l 1
 900 200 l 1
100 200 m 1
 300 200 l 1
 300 0 l 1
 100 0 l 1
 100 200 l 1
500 200 m 1
 700 200 l 1
 700 0 l 1
 500 0 l 1
 500 200 l 1
EndSplineSet
EndChar

StartChar: uniE0D6
Encoding: 57558 57558 214
Width: 1400
VWidth: 0
Flags: HW
LayerCount: 2
Fore
SplineSet
1300 200 m 1
 1400 200 l 1
 1400 0 l 1
 1300 0 l 1
 1300 200 l 1
900 200 m 1
 1100 200 l 1
 1100 0 l 1
 900 0 l 1
 900 200 l 1
700 0 m 1
 300 0 l 1
 300 200 l 1
 700 200 l 1
 700 0 l 1
EndSplineSet
EndChar

StartChar: uniE0D7
Encoding: 57559 57559 215
Width: 1400
VWidth: 0
Flags: HW
LayerCount: 2
Fore
SplineSet
1300 200 m 1
 1400 200 l 1
 1400 0 l 1
 1300 0 l 1
 1300 200 l 1
900 200 m 1
 1100 200 l 1
 1100 0 l 1
 900 0 l 1
 900 200 l 1
100 200 m 1
 700 200 l 1
 700 0 l 1
 100 0 l 1
 100 200 l 1
EndSplineSet
EndChar

StartChar: uniE0D8
Encoding: 57560 57560 216
Width: 1400
VWidth: 0
Flags: HW
LayerCount: 2
Fore
SplineSet
1300 200 m 1
 1400 200 l 1
 1400 0 l 1
 1300 0 l 1
 1300 200 l 1
1100 0 m 1
 700 0 l 1
 700 200 l 1
 1100 200 l 1
 1100 0 l 1
EndSplineSet
EndChar

StartChar: uniE0D9
Encoding: 57561 57561 217
Width: 1400
VWidth: 0
Flags: HW
LayerCount: 2
Fore
SplineSet
1300 200 m 1
 1400 200 l 1
 1400 0 l 1
 1300 0 l 1
 1300 200 l 1
100 200 m 1
 300 200 l 1
 300 0 l 1
 100 0 l 1
 100 200 l 1
1100 0 m 1
 700 0 l 1
 700 200 l 1
 1100 200 l 1
 1100 0 l 1
EndSplineSet
EndChar

StartChar: uniE0DA
Encoding: 57562 57562 218
Width: 1400
VWidth: 0
Flags: HW
LayerCount: 2
Fore
SplineSet
1300 200 m 1
 1400 200 l 1
 1400 0 l 1
 1300 0 l 1
 1300 200 l 1
300 200 m 1
 500 200 l 1
 500 0 l 1
 300 0 l 1
 300 200 l 1
1100 0 m 1
 700 0 l 1
 700 200 l 1
 1100 200 l 1
 1100 0 l 1
EndSplineSet
EndChar

StartChar: uniE0DB
Encoding: 57563 57563 219
Width: 1400
VWidth: 0
Flags: HW
LayerCount: 2
Fore
SplineSet
1300 200 m 1
 1400 200 l 1
 1400 0 l 1
 1300 0 l 1
 1300 200 l 1
500 0 m 1
 100 0 l 1
 100 200 l 1
 500 200 l 1
 500 0 l 1
1100 0 m 1
 700 0 l 1
 700 200 l 1
 1100 200 l 1
 1100 0 l 1
EndSplineSet
EndChar

StartChar: uniE0DC
Encoding: 57564 57564 220
Width: 1400
VWidth: 0
Flags: HW
LayerCount: 2
Fore
SplineSet
1300 200 m 1
 1400 200 l 1
 1400 0 l 1
 1300 0 l 1
 1300 200 l 1
1100 0 m 1
 500 0 l 1
 500 200 l 1
 1100 200 l 1
 1100 0 l 1
EndSplineSet
EndChar

StartChar: uniE0DD
Encoding: 57565 57565 221
Width: 1400
VWidth: 0
Flags: HW
LayerCount: 2
Fore
SplineSet
1300 200 m 1
 1400 200 l 1
 1400 0 l 1
 1300 0 l 1
 1300 200 l 1
100 200 m 1
 300 200 l 1
 300 0 l 1
 100 0 l 1
 100 200 l 1
1100 0 m 1
 500 0 l 1
 500 200 l 1
 1100 200 l 1
 1100 0 l 1
EndSplineSet
EndChar

StartChar: uniE0DE
Encoding: 57566 57566 222
Width: 1400
VWidth: 0
Flags: HW
LayerCount: 2
Fore
SplineSet
1300 200 m 1
 1400 200 l 1
 1400 0 l 1
 1300 0 l 1
 1300 200 l 1
1100 0 m 1
 300 0 l 1
 300 200 l 1
 1100 200 l 1
 1100 0 l 1
EndSplineSet
EndChar

StartChar: uniE0DF
Encoding: 57567 57567 223
Width: 1400
VWidth: 0
Flags: HW
LayerCount: 2
Fore
SplineSet
1300 200 m 1
 1400 200 l 1
 1400 0 l 1
 1300 0 l 1
 1300 200 l 1
1100 0 m 1
 100 0 l 1
 100 200 l 1
 1100 200 l 1
 1100 0 l 1
EndSplineSet
EndChar

StartChar: uniE0E0
Encoding: 57568 57568 224
Width: 1400
VWidth: 0
Flags: HW
LayerCount: 2
Fore
SplineSet
1400 0 m 1
 1100 0 l 1
 1100 200 l 1
 1400 200 l 1
 1400 0 l 1
EndSplineSet
EndChar

StartChar: uniE0E1
Encoding: 57569 57569 225
Width: 1400
VWidth: 0
Flags: HW
LayerCount: 2
Fore
SplineSet
100 200 m 1
 300 200 l 1
 300 0 l 1
 100 0 l 1
 100 200 l 1
1400 0 m 1
 1100 0 l 1
 1100 200 l 1
 1400 200 l 1
 1400 0 l 1
EndSplineSet
EndChar

StartChar: uniE0E2
Encoding: 57570 57570 226
Width: 1400
VWidth: 0
Flags: HW
LayerCount: 2
Fore
SplineSet
300 200 m 1
 500 200 l 1
 500 0 l 1
 300 0 l 1
 300 200 l 1
1400 0 m 1
 1100 0 l 1
 1100 200 l 1
 1400 200 l 1
 1400 0 l 1
EndSplineSet
EndChar

StartChar: uniE0E3
Encoding: 57571 57571 227
Width: 1400
VWidth: 0
Flags: HW
LayerCount: 2
Fore
SplineSet
500 0 m 1
 100 0 l 1
 100 200 l 1
 500 200 l 1
 500 0 l 1
1400 0 m 1
 1100 0 l 1
 1100 200 l 1
 1400 200 l 1
 1400 0 l 1
EndSplineSet
EndChar

StartChar: uniE0E4
Encoding: 57572 57572 228
Width: 1400
VWidth: 0
Flags: HW
LayerCount: 2
Fore
SplineSet
500 200 m 1
 700 200 l 1
 700 0 l 1
 500 0 l 1
 500 200 l 1
1400 0 m 1
 1100 0 l 1
 1100 200 l 1
 1400 200 l 1
 1400 0 l 1
EndSplineSet
EndChar

StartChar: uniE0E5
Encoding: 57573 57573 229
Width: 1400
VWidth: 0
Flags: HW
LayerCount: 2
Fore
SplineSet
100 200 m 1
 300 200 l 1
 300 0 l 1
 100 0 l 1
 100 200 l 1
500 200 m 1
 700 200 l 1
 700 0 l 1
 500 0 l 1
 500 200 l 1
1400 0 m 1
 1100 0 l 1
 1100 200 l 1
 1400 200 l 1
 1400 0 l 1
EndSplineSet
EndChar

StartChar: uniE0E6
Encoding: 57574 57574 230
Width: 1400
VWidth: 0
Flags: HW
LayerCount: 2
Fore
SplineSet
700 0 m 1
 300 0 l 1
 300 200 l 1
 700 200 l 1
 700 0 l 1
1400 0 m 1
 1100 0 l 1
 1100 200 l 1
 1400 200 l 1
 1400 0 l 1
EndSplineSet
EndChar

StartChar: uniE0E7
Encoding: 57575 57575 231
Width: 1400
VWidth: 0
Flags: HW
LayerCount: 2
Fore
SplineSet
100 200 m 1
 700 200 l 1
 700 0 l 1
 100 0 l 1
 100 200 l 1
1400 0 m 1
 1100 0 l 1
 1100 200 l 1
 1400 200 l 1
 1400 0 l 1
EndSplineSet
EndChar

StartChar: uniE0E8
Encoding: 57576 57576 232
Width: 1400
VWidth: 0
Flags: HW
LayerCount: 2
Fore
SplineSet
700 200 m 1
 900 200 l 1
 900 0 l 1
 700 0 l 1
 700 200 l 1
1400 0 m 1
 1100 0 l 1
 1100 200 l 1
 1400 200 l 1
 1400 0 l 1
EndSplineSet
EndChar

StartChar: uniE0E9
Encoding: 57577 57577 233
Width: 1400
VWidth: 0
Flags: HW
LayerCount: 2
Fore
SplineSet
700 200 m 1
 900 200 l 1
 900 0 l 1
 700 0 l 1
 700 200 l 1
100 200 m 1
 300 200 l 1
 300 0 l 1
 100 0 l 1
 100 200 l 1
1400 0 m 1
 1100 0 l 1
 1100 200 l 1
 1400 200 l 1
 1400 0 l 1
EndSplineSet
EndChar

StartChar: uniE0EA
Encoding: 57578 57578 234
Width: 1400
VWidth: 0
Flags: HW
LayerCount: 2
Fore
SplineSet
700 200 m 1
 900 200 l 1
 900 0 l 1
 700 0 l 1
 700 200 l 1
300 200 m 1
 500 200 l 1
 500 0 l 1
 300 0 l 1
 300 200 l 1
1400 0 m 1
 1100 0 l 1
 1100 200 l 1
 1400 200 l 1
 1400 0 l 1
EndSplineSet
EndChar

StartChar: uniE0EB
Encoding: 57579 57579 235
Width: 1400
VWidth: 0
Flags: HW
LayerCount: 2
Fore
SplineSet
700 200 m 1
 900 200 l 1
 900 0 l 1
 700 0 l 1
 700 200 l 1
500 0 m 1
 100 0 l 1
 100 200 l 1
 500 200 l 1
 500 0 l 1
1400 0 m 1
 1100 0 l 1
 1100 200 l 1
 1400 200 l 1
 1400 0 l 1
EndSplineSet
EndChar

StartChar: uniE0EC
Encoding: 57580 57580 236
Width: 1400
VWidth: 0
Flags: HW
LayerCount: 2
Fore
SplineSet
900 0 m 1
 500 0 l 1
 500 200 l 1
 900 200 l 1
 900 0 l 1
1400 0 m 1
 1100 0 l 1
 1100 200 l 1
 1400 200 l 1
 1400 0 l 1
EndSplineSet
EndChar

StartChar: uniE0ED
Encoding: 57581 57581 237
Width: 1400
VWidth: 0
Flags: HW
LayerCount: 2
Fore
SplineSet
100 200 m 1
 300 200 l 1
 300 0 l 1
 100 0 l 1
 100 200 l 1
900 0 m 1
 500 0 l 1
 500 200 l 1
 900 200 l 1
 900 0 l 1
1400 0 m 1
 1100 0 l 1
 1100 200 l 1
 1400 200 l 1
 1400 0 l 1
EndSplineSet
EndChar

StartChar: uniE0EE
Encoding: 57582 57582 238
Width: 1400
VWidth: 0
Flags: HW
LayerCount: 2
Fore
SplineSet
300 200 m 1
 900 200 l 1
 900 0 l 1
 300 0 l 1
 300 200 l 1
1400 0 m 1
 1100 0 l 1
 1100 200 l 1
 1400 200 l 1
 1400 0 l 1
EndSplineSet
EndChar

StartChar: uniE0EF
Encoding: 57583 57583 239
Width: 1400
VWidth: 0
Flags: HW
LayerCount: 2
Fore
SplineSet
900 0 m 1
 100 0 l 1
 100 200 l 1
 900 200 l 1
 900 0 l 1
1400 0 m 1
 1100 0 l 1
 1100 200 l 1
 1400 200 l 1
 1400 0 l 1
EndSplineSet
EndChar

StartChar: uniE0F0
Encoding: 57584 57584 240
Width: 1400
VWidth: 0
Flags: HW
LayerCount: 2
Fore
SplineSet
900 200 m 1
 1400 200 l 1
 1400 0 l 1
 900 0 l 1
 900 200 l 1
EndSplineSet
EndChar

StartChar: uniE0F1
Encoding: 57585 57585 241
Width: 1400
VWidth: 0
Flags: HW
LayerCount: 2
Fore
SplineSet
100 200 m 1
 300 200 l 1
 300 0 l 1
 100 0 l 1
 100 200 l 1
900 200 m 1
 1400 200 l 1
 1400 0 l 1
 900 0 l 1
 900 200 l 1
EndSplineSet
EndChar

StartChar: uniE0F2
Encoding: 57586 57586 242
Width: 1400
VWidth: 0
Flags: HW
LayerCount: 2
Fore
SplineSet
300 200 m 1
 500 200 l 1
 500 0 l 1
 300 0 l 1
 300 200 l 1
900 200 m 1
 1400 200 l 1
 1400 0 l 1
 900 0 l 1
 900 200 l 1
EndSplineSet
EndChar

StartChar: uniE0F3
Encoding: 57587 57587 243
Width: 1400
VWidth: 0
Flags: HW
LayerCount: 2
Fore
SplineSet
500 0 m 1
 100 0 l 1
 100 200 l 1
 500 200 l 1
 500 0 l 1
900 200 m 1
 1400 200 l 1
 1400 0 l 1
 900 0 l 1
 900 200 l 1
EndSplineSet
EndChar

StartChar: uniE0F4
Encoding: 57588 57588 244
Width: 1400
VWidth: 0
Flags: HW
LayerCount: 2
Fore
SplineSet
500 200 m 1
 700 200 l 1
 700 0 l 1
 500 0 l 1
 500 200 l 1
900 200 m 1
 1400 200 l 1
 1400 0 l 1
 900 0 l 1
 900 200 l 1
EndSplineSet
EndChar

StartChar: uniE0F5
Encoding: 57589 57589 245
Width: 1400
VWidth: 0
Flags: HW
LayerCount: 2
Fore
SplineSet
500 200 m 1
 700 200 l 1
 700 0 l 1
 500 0 l 1
 500 200 l 1
100 200 m 1
 300 200 l 1
 300 0 l 1
 100 0 l 1
 100 200 l 1
900 200 m 1
 1400 200 l 1
 1400 0 l 1
 900 0 l 1
 900 200 l 1
EndSplineSet
EndChar

StartChar: uniE0F6
Encoding: 57590 57590 246
Width: 1400
VWidth: 0
Flags: HW
LayerCount: 2
Fore
SplineSet
700 0 m 1
 300 0 l 1
 300 200 l 1
 700 200 l 1
 700 0 l 1
900 200 m 1
 1400 200 l 1
 1400 0 l 1
 900 0 l 1
 900 200 l 1
EndSplineSet
EndChar

StartChar: uniE0F7
Encoding: 57591 57591 247
Width: 1400
VWidth: 0
Flags: HW
LayerCount: 2
Fore
SplineSet
100 200 m 1
 700 200 l 1
 700 0 l 1
 100 0 l 1
 100 200 l 1
900 200 m 1
 1400 200 l 1
 1400 0 l 1
 900 0 l 1
 900 200 l 1
EndSplineSet
EndChar

StartChar: uniE0F8
Encoding: 57592 57592 248
Width: 1400
VWidth: 0
Flags: HW
LayerCount: 2
Fore
SplineSet
1400 0 m 1
 700 0 l 1
 700 200 l 1
 1400 200 l 1
 1400 0 l 1
EndSplineSet
EndChar

StartChar: uniE0F9
Encoding: 57593 57593 249
Width: 1400
VWidth: 0
Flags: HW
LayerCount: 2
Fore
SplineSet
100 200 m 1
 300 200 l 1
 300 0 l 1
 100 0 l 1
 100 200 l 1
1400 0 m 1
 700 0 l 1
 700 200 l 1
 1400 200 l 1
 1400 0 l 1
EndSplineSet
EndChar

StartChar: uniE0FA
Encoding: 57594 57594 250
Width: 1400
VWidth: 0
Flags: HW
LayerCount: 2
Fore
SplineSet
300 200 m 1
 500 200 l 1
 500 0 l 1
 300 0 l 1
 300 200 l 1
1400 0 m 1
 700 0 l 1
 700 200 l 1
 1400 200 l 1
 1400 0 l 1
EndSplineSet
EndChar

StartChar: uniE0FB
Encoding: 57595 57595 251
Width: 1400
VWidth: 0
Flags: HW
LayerCount: 2
Fore
SplineSet
500 0 m 1
 100 0 l 1
 100 200 l 1
 500 200 l 1
 500 0 l 1
1400 0 m 1
 700 0 l 1
 700 200 l 1
 1400 200 l 1
 1400 0 l 1
EndSplineSet
EndChar

StartChar: uniE0FC
Encoding: 57596 57596 252
Width: 1400
VWidth: 0
Flags: HW
LayerCount: 2
Fore
SplineSet
1400 0 m 1
 500 0 l 1
 500 200 l 1
 1400 200 l 1
 1400 0 l 1
EndSplineSet
EndChar

StartChar: uniE0FD
Encoding: 57597 57597 253
Width: 1400
VWidth: 0
Flags: HW
LayerCount: 2
Fore
SplineSet
100 200 m 1
 300 200 l 1
 300 0 l 1
 100 0 l 1
 100 200 l 1
1400 0 m 1
 500 0 l 1
 500 200 l 1
 1400 200 l 1
 1400 0 l 1
EndSplineSet
EndChar

StartChar: uniE0FE
Encoding: 57598 57598 254
Width: 1400
VWidth: 0
Flags: HW
LayerCount: 2
Fore
SplineSet
1400 0 m 1
 300 0 l 1
 300 200 l 1
 1400 200 l 1
 1400 0 l 1
EndSplineSet
EndChar

StartChar: uniE0FF
Encoding: 57599 57599 255
Width: 1400
VWidth: 0
Flags: HW
LayerCount: 2
Fore
SplineSet
1400 0 m 1
 100 0 l 1
 100 200 l 1
 1400 200 l 1
 1400 0 l 1
EndSplineSet
EndChar

StartChar: uniE101
Encoding: 57601 57601 257
Width: 1400
VWidth: 0
Flags: HW
LayerCount: 2
Fore
SplineSet
0 200 m 1
 200 200 l 1
 200 0 l 1
 0 0 l 1
 0 200 l 1
EndSplineSet
EndChar

StartChar: uniE102
Encoding: 57602 57602 258
Width: 1400
VWidth: 0
Flags: HW
LayerCount: 2
Fore
SplineSet
200 200 m 1
 400 200 l 1
 400 0 l 1
 200 0 l 1
 200 200 l 1
EndSplineSet
EndChar

StartChar: uniE103
Encoding: 57603 57603 259
Width: 1400
VWidth: 0
Flags: HW
LayerCount: 2
Fore
SplineSet
400 0 m 1
 0 0 l 1
 0 200 l 1
 400 200 l 1
 400 0 l 1
EndSplineSet
EndChar

StartChar: uniE104
Encoding: 57604 57604 260
Width: 1400
VWidth: 0
Flags: HW
LayerCount: 2
Fore
SplineSet
400 200 m 1
 600 200 l 1
 600 0 l 1
 400 0 l 1
 400 200 l 1
EndSplineSet
EndChar

StartChar: uniE105
Encoding: 57605 57605 261
Width: 1400
VWidth: 0
Flags: HW
LayerCount: 2
Fore
SplineSet
0 200 m 1
 200 200 l 1
 200 0 l 1
 0 0 l 1
 0 200 l 1
400 200 m 1
 600 200 l 1
 600 0 l 1
 400 0 l 1
 400 200 l 1
EndSplineSet
EndChar

StartChar: uniE106
Encoding: 57606 57606 262
Width: 1400
VWidth: 0
Flags: HW
LayerCount: 2
Fore
SplineSet
600 0 m 1
 200 0 l 1
 200 200 l 1
 600 200 l 1
 600 0 l 1
EndSplineSet
EndChar

StartChar: uniE107
Encoding: 57607 57607 263
Width: 1400
VWidth: 0
Flags: HW
LayerCount: 2
Fore
SplineSet
0 200 m 1
 600 200 l 1
 600 0 l 1
 0 0 l 1
 0 200 l 1
EndSplineSet
EndChar

StartChar: uniE108
Encoding: 57608 57608 264
Width: 1400
VWidth: 0
Flags: HW
LayerCount: 2
Fore
SplineSet
600 200 m 1
 800 200 l 1
 800 0 l 1
 600 0 l 1
 600 200 l 1
EndSplineSet
EndChar

StartChar: uniE109
Encoding: 57609 57609 265
Width: 1400
VWidth: 0
Flags: HW
LayerCount: 2
Fore
SplineSet
600 200 m 1
 800 200 l 1
 800 0 l 1
 600 0 l 1
 600 200 l 1
0 200 m 1
 200 200 l 1
 200 0 l 1
 0 0 l 1
 0 200 l 1
EndSplineSet
EndChar

StartChar: uniE10A
Encoding: 57610 57610 266
Width: 1400
VWidth: 0
Flags: HW
LayerCount: 2
Fore
SplineSet
600 200 m 1
 800 200 l 1
 800 0 l 1
 600 0 l 1
 600 200 l 1
200 200 m 1
 400 200 l 1
 400 0 l 1
 200 0 l 1
 200 200 l 1
EndSplineSet
EndChar

StartChar: uniE10B
Encoding: 57611 57611 267
Width: 1400
VWidth: 0
Flags: HW
LayerCount: 2
Fore
SplineSet
600 200 m 1
 800 200 l 1
 800 0 l 1
 600 0 l 1
 600 200 l 1
400 0 m 1
 0 0 l 1
 0 200 l 1
 400 200 l 1
 400 0 l 1
EndSplineSet
EndChar

StartChar: uniE10C
Encoding: 57612 57612 268
Width: 1400
VWidth: 0
Flags: HW
LayerCount: 2
Fore
SplineSet
800 0 m 1
 400 0 l 1
 400 200 l 1
 800 200 l 1
 800 0 l 1
EndSplineSet
EndChar

StartChar: uniE10D
Encoding: 57613 57613 269
Width: 1400
VWidth: 0
Flags: HW
LayerCount: 2
Fore
SplineSet
800 0 m 1
 400 0 l 1
 400 200 l 1
 800 200 l 1
 800 0 l 1
0 200 m 1
 200 200 l 1
 200 0 l 1
 0 0 l 1
 0 200 l 1
EndSplineSet
EndChar

StartChar: uniE10E
Encoding: 57614 57614 270
Width: 1400
VWidth: 0
Flags: HW
LayerCount: 2
Fore
SplineSet
200 200 m 1
 800 200 l 1
 800 0 l 1
 200 0 l 1
 200 200 l 1
EndSplineSet
EndChar

StartChar: uniE10F
Encoding: 57615 57615 271
Width: 1400
VWidth: 0
Flags: HW
LayerCount: 2
Fore
SplineSet
800 0 m 1
 0 0 l 1
 0 200 l 1
 800 200 l 1
 800 0 l 1
EndSplineSet
EndChar

StartChar: uniE110
Encoding: 57616 57616 272
Width: 1400
VWidth: 0
Flags: HW
LayerCount: 2
Fore
SplineSet
800 200 m 1
 1000 200 l 1
 1000 0 l 1
 800 0 l 1
 800 200 l 1
EndSplineSet
EndChar

StartChar: uniE111
Encoding: 57617 57617 273
Width: 1400
VWidth: 0
Flags: HW
LayerCount: 2
Fore
SplineSet
0 200 m 1
 200 200 l 1
 200 0 l 1
 0 0 l 1
 0 200 l 1
800 200 m 1
 1000 200 l 1
 1000 0 l 1
 800 0 l 1
 800 200 l 1
EndSplineSet
EndChar

StartChar: uniE112
Encoding: 57618 57618 274
Width: 1400
VWidth: 0
Flags: HW
LayerCount: 2
Fore
SplineSet
200 200 m 1
 400 200 l 1
 400 0 l 1
 200 0 l 1
 200 200 l 1
800 200 m 1
 1000 200 l 1
 1000 0 l 1
 800 0 l 1
 800 200 l 1
EndSplineSet
EndChar

StartChar: uniE113
Encoding: 57619 57619 275
Width: 1400
VWidth: 0
Flags: HW
LayerCount: 2
Fore
SplineSet
400 0 m 1
 0 0 l 1
 0 200 l 1
 400 200 l 1
 400 0 l 1
800 200 m 1
 1000 200 l 1
 1000 0 l 1
 800 0 l 1
 800 200 l 1
EndSplineSet
EndChar

StartChar: uniE114
Encoding: 57620 57620 276
Width: 1400
VWidth: 0
Flags: HW
LayerCount: 2
Fore
SplineSet
400 200 m 1
 600 200 l 1
 600 0 l 1
 400 0 l 1
 400 200 l 1
800 200 m 1
 1000 200 l 1
 1000 0 l 1
 800 0 l 1
 800 200 l 1
EndSplineSet
EndChar

StartChar: uniE115
Encoding: 57621 57621 277
Width: 1400
VWidth: 0
Flags: HW
LayerCount: 2
Fore
SplineSet
400 200 m 1
 600 200 l 1
 600 0 l 1
 400 0 l 1
 400 200 l 1
0 200 m 1
 200 200 l 1
 200 0 l 1
 0 0 l 1
 0 200 l 1
800 200 m 1
 1000 200 l 1
 1000 0 l 1
 800 0 l 1
 800 200 l 1
EndSplineSet
EndChar

StartChar: uniE116
Encoding: 57622 57622 278
Width: 1400
VWidth: 0
Flags: HW
LayerCount: 2
Fore
SplineSet
600 0 m 1
 200 0 l 1
 200 200 l 1
 600 200 l 1
 600 0 l 1
800 200 m 1
 1000 200 l 1
 1000 0 l 1
 800 0 l 1
 800 200 l 1
EndSplineSet
EndChar

StartChar: uniE117
Encoding: 57623 57623 279
Width: 1400
VWidth: 0
Flags: HW
LayerCount: 2
Fore
SplineSet
0 200 m 1
 600 200 l 1
 600 0 l 1
 0 0 l 1
 0 200 l 1
800 200 m 1
 1000 200 l 1
 1000 0 l 1
 800 0 l 1
 800 200 l 1
EndSplineSet
EndChar

StartChar: uniE118
Encoding: 57624 57624 280
Width: 1400
VWidth: 0
Flags: HW
LayerCount: 2
Fore
SplineSet
1000 0 m 1
 600 0 l 1
 600 200 l 1
 1000 200 l 1
 1000 0 l 1
EndSplineSet
EndChar

StartChar: uniE119
Encoding: 57625 57625 281
Width: 1400
VWidth: 0
Flags: HW
LayerCount: 2
Fore
SplineSet
1000 0 m 1
 600 0 l 1
 600 200 l 1
 1000 200 l 1
 1000 0 l 1
0 200 m 1
 200 200 l 1
 200 0 l 1
 0 0 l 1
 0 200 l 1
EndSplineSet
EndChar

StartChar: uniE11A
Encoding: 57626 57626 282
Width: 1400
VWidth: 0
Flags: HW
LayerCount: 2
Fore
SplineSet
1000 0 m 1
 600 0 l 1
 600 200 l 1
 1000 200 l 1
 1000 0 l 1
200 200 m 1
 400 200 l 1
 400 0 l 1
 200 0 l 1
 200 200 l 1
EndSplineSet
EndChar

StartChar: uniE11B
Encoding: 57627 57627 283
Width: 1400
VWidth: 0
Flags: HW
LayerCount: 2
Fore
SplineSet
1000 0 m 1
 600 0 l 1
 600 200 l 1
 1000 200 l 1
 1000 0 l 1
400 0 m 1
 0 0 l 1
 0 200 l 1
 400 200 l 1
 400 0 l 1
EndSplineSet
EndChar

StartChar: uniE11C
Encoding: 57628 57628 284
Width: 1400
VWidth: 0
Flags: HW
LayerCount: 2
Fore
SplineSet
1000 0 m 1
 400 0 l 1
 400 200 l 1
 1000 200 l 1
 1000 0 l 1
EndSplineSet
EndChar

StartChar: uniE11D
Encoding: 57629 57629 285
Width: 1400
VWidth: 0
Flags: HW
LayerCount: 2
Fore
SplineSet
1000 0 m 1
 400 0 l 1
 400 200 l 1
 1000 200 l 1
 1000 0 l 1
0 200 m 1
 200 200 l 1
 200 0 l 1
 0 0 l 1
 0 200 l 1
EndSplineSet
EndChar

StartChar: uniE11E
Encoding: 57630 57630 286
Width: 1400
VWidth: 0
Flags: HW
LayerCount: 2
Fore
SplineSet
1000 0 m 1
 200 0 l 1
 200 200 l 1
 1000 200 l 1
 1000 0 l 1
EndSplineSet
EndChar

StartChar: uniE11F
Encoding: 57631 57631 287
Width: 1400
VWidth: 0
Flags: HW
LayerCount: 2
Fore
SplineSet
1000 0 m 1
 0 0 l 1
 0 200 l 1
 1000 200 l 1
 1000 0 l 1
EndSplineSet
EndChar

StartChar: uniE120
Encoding: 57632 57632 288
Width: 1400
VWidth: 0
Flags: HW
LayerCount: 2
Fore
SplineSet
1000 200 m 1
 1200 200 l 1
 1200 0 l 1
 1000 0 l 1
 1000 200 l 1
EndSplineSet
EndChar

StartChar: uniE121
Encoding: 57633 57633 289
Width: 1400
VWidth: 0
Flags: HW
LayerCount: 2
Fore
SplineSet
0 200 m 1
 200 200 l 1
 200 0 l 1
 0 0 l 1
 0 200 l 1
1000 200 m 1
 1200 200 l 1
 1200 0 l 1
 1000 0 l 1
 1000 200 l 1
EndSplineSet
EndChar

StartChar: uniE122
Encoding: 57634 57634 290
Width: 1400
VWidth: 0
Flags: HW
LayerCount: 2
Fore
SplineSet
200 200 m 1
 400 200 l 1
 400 0 l 1
 200 0 l 1
 200 200 l 1
1000 200 m 1
 1200 200 l 1
 1200 0 l 1
 1000 0 l 1
 1000 200 l 1
EndSplineSet
EndChar

StartChar: uniE123
Encoding: 57635 57635 291
Width: 1400
VWidth: 0
Flags: HW
LayerCount: 2
Fore
SplineSet
400 0 m 1
 0 0 l 1
 0 200 l 1
 400 200 l 1
 400 0 l 1
1000 200 m 1
 1200 200 l 1
 1200 0 l 1
 1000 0 l 1
 1000 200 l 1
EndSplineSet
EndChar

StartChar: uniE124
Encoding: 57636 57636 292
Width: 1400
VWidth: 0
Flags: HW
LayerCount: 2
Fore
SplineSet
400 200 m 1
 600 200 l 1
 600 0 l 1
 400 0 l 1
 400 200 l 1
1000 200 m 1
 1200 200 l 1
 1200 0 l 1
 1000 0 l 1
 1000 200 l 1
EndSplineSet
EndChar

StartChar: uniE125
Encoding: 57637 57637 293
Width: 1400
VWidth: 0
Flags: HW
LayerCount: 2
Fore
SplineSet
400 200 m 1
 600 200 l 1
 600 0 l 1
 400 0 l 1
 400 200 l 1
0 200 m 1
 200 200 l 1
 200 0 l 1
 0 0 l 1
 0 200 l 1
1000 200 m 1
 1200 200 l 1
 1200 0 l 1
 1000 0 l 1
 1000 200 l 1
EndSplineSet
EndChar

StartChar: uniE126
Encoding: 57638 57638 294
Width: 1400
VWidth: 0
Flags: HW
LayerCount: 2
Fore
SplineSet
600 0 m 1
 200 0 l 1
 200 200 l 1
 600 200 l 1
 600 0 l 1
1000 200 m 1
 1200 200 l 1
 1200 0 l 1
 1000 0 l 1
 1000 200 l 1
EndSplineSet
EndChar

StartChar: uniE127
Encoding: 57639 57639 295
Width: 1400
VWidth: 0
Flags: HW
LayerCount: 2
Fore
SplineSet
0 200 m 1
 600 200 l 1
 600 0 l 1
 0 0 l 1
 0 200 l 1
1000 200 m 1
 1200 200 l 1
 1200 0 l 1
 1000 0 l 1
 1000 200 l 1
EndSplineSet
EndChar

StartChar: uniE128
Encoding: 57640 57640 296
Width: 1400
VWidth: 0
Flags: HW
LayerCount: 2
Fore
SplineSet
600 200 m 1
 800 200 l 1
 800 0 l 1
 600 0 l 1
 600 200 l 1
1000 200 m 1
 1200 200 l 1
 1200 0 l 1
 1000 0 l 1
 1000 200 l 1
EndSplineSet
EndChar

StartChar: uniE129
Encoding: 57641 57641 297
Width: 1400
VWidth: 0
Flags: HW
LayerCount: 2
Fore
SplineSet
0 200 m 1
 200 200 l 1
 200 0 l 1
 0 0 l 1
 0 200 l 1
600 200 m 1
 800 200 l 1
 800 0 l 1
 600 0 l 1
 600 200 l 1
1000 200 m 1
 1200 200 l 1
 1200 0 l 1
 1000 0 l 1
 1000 200 l 1
EndSplineSet
EndChar

StartChar: uniE12A
Encoding: 57642 57642 298
Width: 1400
VWidth: 0
Flags: HW
LayerCount: 2
Fore
SplineSet
200 200 m 1
 400 200 l 1
 400 0 l 1
 200 0 l 1
 200 200 l 1
600 200 m 1
 800 200 l 1
 800 0 l 1
 600 0 l 1
 600 200 l 1
1000 200 m 1
 1200 200 l 1
 1200 0 l 1
 1000 0 l 1
 1000 200 l 1
EndSplineSet
EndChar

StartChar: uniE12B
Encoding: 57643 57643 299
Width: 1400
VWidth: 0
Flags: HW
LayerCount: 2
Fore
SplineSet
400 0 m 1
 0 0 l 1
 0 200 l 1
 400 200 l 1
 400 0 l 1
600 200 m 1
 800 200 l 1
 800 0 l 1
 600 0 l 1
 600 200 l 1
1000 200 m 1
 1200 200 l 1
 1200 0 l 1
 1000 0 l 1
 1000 200 l 1
EndSplineSet
EndChar

StartChar: uniE12C
Encoding: 57644 57644 300
Width: 1400
VWidth: 0
Flags: HW
LayerCount: 2
Fore
SplineSet
800 0 m 1
 400 0 l 1
 400 200 l 1
 800 200 l 1
 800 0 l 1
1000 200 m 1
 1200 200 l 1
 1200 0 l 1
 1000 0 l 1
 1000 200 l 1
EndSplineSet
EndChar

StartChar: uniE12D
Encoding: 57645 57645 301
Width: 1400
VWidth: 0
Flags: HW
LayerCount: 2
Fore
SplineSet
800 0 m 1
 400 0 l 1
 400 200 l 1
 800 200 l 1
 800 0 l 1
0 200 m 1
 200 200 l 1
 200 0 l 1
 0 0 l 1
 0 200 l 1
1000 200 m 1
 1200 200 l 1
 1200 0 l 1
 1000 0 l 1
 1000 200 l 1
EndSplineSet
EndChar

StartChar: uniE12E
Encoding: 57646 57646 302
Width: 1400
VWidth: 0
Flags: HW
LayerCount: 2
Fore
SplineSet
200 200 m 1
 800 200 l 1
 800 0 l 1
 200 0 l 1
 200 200 l 1
1000 200 m 1
 1200 200 l 1
 1200 0 l 1
 1000 0 l 1
 1000 200 l 1
EndSplineSet
EndChar

StartChar: uniE12F
Encoding: 57647 57647 303
Width: 1400
VWidth: 0
Flags: HW
LayerCount: 2
Fore
SplineSet
800 0 m 1
 0 0 l 1
 0 200 l 1
 800 200 l 1
 800 0 l 1
1000 200 m 1
 1200 200 l 1
 1200 0 l 1
 1000 0 l 1
 1000 200 l 1
EndSplineSet
EndChar

StartChar: uniE130
Encoding: 57648 57648 304
Width: 1400
VWidth: 0
Flags: HW
LayerCount: 2
Fore
SplineSet
1200 0 m 1
 800 0 l 1
 800 200 l 1
 1200 200 l 1
 1200 0 l 1
EndSplineSet
EndChar

StartChar: uniE131
Encoding: 57649 57649 305
Width: 1400
VWidth: 0
Flags: HW
LayerCount: 2
Fore
SplineSet
1200 0 m 1
 800 0 l 1
 800 200 l 1
 1200 200 l 1
 1200 0 l 1
0 200 m 1
 200 200 l 1
 200 0 l 1
 0 0 l 1
 0 200 l 1
EndSplineSet
EndChar

StartChar: uniE132
Encoding: 57650 57650 306
Width: 1400
VWidth: 0
Flags: HW
LayerCount: 2
Fore
SplineSet
1200 0 m 1
 800 0 l 1
 800 200 l 1
 1200 200 l 1
 1200 0 l 1
200 200 m 1
 400 200 l 1
 400 0 l 1
 200 0 l 1
 200 200 l 1
EndSplineSet
EndChar

StartChar: uniE133
Encoding: 57651 57651 307
Width: 1400
VWidth: 0
Flags: HW
LayerCount: 2
Fore
SplineSet
1200 0 m 1
 800 0 l 1
 800 200 l 1
 1200 200 l 1
 1200 0 l 1
400 0 m 1
 0 0 l 1
 0 200 l 1
 400 200 l 1
 400 0 l 1
EndSplineSet
EndChar

StartChar: uniE134
Encoding: 57652 57652 308
Width: 1400
VWidth: 0
Flags: HW
LayerCount: 2
Fore
SplineSet
1200 0 m 1
 800 0 l 1
 800 200 l 1
 1200 200 l 1
 1200 0 l 1
400 200 m 1
 600 200 l 1
 600 0 l 1
 400 0 l 1
 400 200 l 1
EndSplineSet
EndChar

StartChar: uniE135
Encoding: 57653 57653 309
Width: 1400
VWidth: 0
Flags: HW
LayerCount: 2
Fore
SplineSet
1200 0 m 1
 800 0 l 1
 800 200 l 1
 1200 200 l 1
 1200 0 l 1
0 200 m 1
 200 200 l 1
 200 0 l 1
 0 0 l 1
 0 200 l 1
400 200 m 1
 600 200 l 1
 600 0 l 1
 400 0 l 1
 400 200 l 1
EndSplineSet
EndChar

StartChar: uniE136
Encoding: 57654 57654 310
Width: 1400
VWidth: 0
Flags: HW
LayerCount: 2
Fore
SplineSet
1200 0 m 1
 800 0 l 1
 800 200 l 1
 1200 200 l 1
 1200 0 l 1
600 0 m 1
 200 0 l 1
 200 200 l 1
 600 200 l 1
 600 0 l 1
EndSplineSet
EndChar

StartChar: uniE137
Encoding: 57655 57655 311
Width: 1400
VWidth: 0
Flags: HW
LayerCount: 2
Fore
SplineSet
1200 0 m 1
 800 0 l 1
 800 200 l 1
 1200 200 l 1
 1200 0 l 1
0 200 m 1
 600 200 l 1
 600 0 l 1
 0 0 l 1
 0 200 l 1
EndSplineSet
EndChar

StartChar: uniE138
Encoding: 57656 57656 312
Width: 1400
VWidth: 0
Flags: HW
LayerCount: 2
Fore
SplineSet
600 200 m 1
 1200 200 l 1
 1200 0 l 1
 600 0 l 1
 600 200 l 1
EndSplineSet
EndChar

StartChar: uniE139
Encoding: 57657 57657 313
Width: 1400
VWidth: 0
Flags: HW
LayerCount: 2
Fore
SplineSet
600 200 m 1
 1200 200 l 1
 1200 0 l 1
 600 0 l 1
 600 200 l 1
0 200 m 1
 200 200 l 1
 200 0 l 1
 0 0 l 1
 0 200 l 1
EndSplineSet
EndChar

StartChar: uniE13A
Encoding: 57658 57658 314
Width: 1400
VWidth: 0
Flags: HW
LayerCount: 2
Fore
SplineSet
600 200 m 1
 1200 200 l 1
 1200 0 l 1
 600 0 l 1
 600 200 l 1
200 200 m 1
 400 200 l 1
 400 0 l 1
 200 0 l 1
 200 200 l 1
EndSplineSet
EndChar

StartChar: uniE13B
Encoding: 57659 57659 315
Width: 1400
VWidth: 0
Flags: HW
LayerCount: 2
Fore
SplineSet
600 200 m 1
 1200 200 l 1
 1200 0 l 1
 600 0 l 1
 600 200 l 1
400 0 m 1
 0 0 l 1
 0 200 l 1
 400 200 l 1
 400 0 l 1
EndSplineSet
EndChar

StartChar: uniE13C
Encoding: 57660 57660 316
Width: 1400
VWidth: 0
Flags: HW
LayerCount: 2
Fore
SplineSet
400 200 m 1
 1200 200 l 1
 1200 0 l 1
 400 0 l 1
 400 200 l 1
EndSplineSet
EndChar

StartChar: uniE13D
Encoding: 57661 57661 317
Width: 1400
VWidth: 0
Flags: HW
LayerCount: 2
Fore
SplineSet
400 200 m 1
 1200 200 l 1
 1200 0 l 1
 400 0 l 1
 400 200 l 1
0 200 m 1
 200 200 l 1
 200 0 l 1
 0 0 l 1
 0 200 l 1
EndSplineSet
EndChar

StartChar: uniE13E
Encoding: 57662 57662 318
Width: 1400
VWidth: 0
Flags: HW
LayerCount: 2
Fore
SplineSet
200 200 m 1
 1200 200 l 1
 1200 0 l 1
 200 0 l 1
 200 200 l 1
EndSplineSet
EndChar

StartChar: uniE13F
Encoding: 57663 57663 319
Width: 1400
VWidth: 0
Flags: HW
LayerCount: 2
Fore
SplineSet
0 200 m 1
 1200 200 l 1
 1200 0 l 1
 0 0 l 1
 0 200 l 1
EndSplineSet
EndChar

StartChar: uniE140
Encoding: 57664 57664 320
Width: 1400
VWidth: 0
Flags: HW
LayerCount: 2
Fore
SplineSet
1200 200 m 1
 1400 200 l 1
 1400 0 l 1
 1200 0 l 1
 1200 200 l 1
EndSplineSet
EndChar

StartChar: uniE141
Encoding: 57665 57665 321
Width: 1400
VWidth: 0
Flags: HW
LayerCount: 2
Fore
SplineSet
0 200 m 1
 200 200 l 1
 200 0 l 1
 0 0 l 1
 0 200 l 1
1200 200 m 1
 1400 200 l 1
 1400 0 l 1
 1200 0 l 1
 1200 200 l 1
EndSplineSet
EndChar

StartChar: uniE142
Encoding: 57666 57666 322
Width: 1400
VWidth: 0
Flags: HW
LayerCount: 2
Fore
SplineSet
200 200 m 1
 400 200 l 1
 400 0 l 1
 200 0 l 1
 200 200 l 1
1200 200 m 1
 1400 200 l 1
 1400 0 l 1
 1200 0 l 1
 1200 200 l 1
EndSplineSet
EndChar

StartChar: uniE143
Encoding: 57667 57667 323
Width: 1400
VWidth: 0
Flags: HW
LayerCount: 2
Fore
SplineSet
400 0 m 1
 0 0 l 1
 0 200 l 1
 400 200 l 1
 400 0 l 1
1200 200 m 1
 1400 200 l 1
 1400 0 l 1
 1200 0 l 1
 1200 200 l 1
EndSplineSet
EndChar

StartChar: uniE144
Encoding: 57668 57668 324
Width: 1400
VWidth: 0
Flags: HW
LayerCount: 2
Fore
SplineSet
400 200 m 1
 600 200 l 1
 600 0 l 1
 400 0 l 1
 400 200 l 1
1200 200 m 1
 1400 200 l 1
 1400 0 l 1
 1200 0 l 1
 1200 200 l 1
EndSplineSet
EndChar

StartChar: uniE145
Encoding: 57669 57669 325
Width: 1400
VWidth: 0
Flags: HW
LayerCount: 2
Fore
SplineSet
400 200 m 1
 600 200 l 1
 600 0 l 1
 400 0 l 1
 400 200 l 1
0 200 m 1
 200 200 l 1
 200 0 l 1
 0 0 l 1
 0 200 l 1
1200 200 m 1
 1400 200 l 1
 1400 0 l 1
 1200 0 l 1
 1200 200 l 1
EndSplineSet
EndChar

StartChar: uniE146
Encoding: 57670 57670 326
Width: 1400
VWidth: 0
Flags: HW
LayerCount: 2
Fore
SplineSet
600 0 m 1
 200 0 l 1
 200 200 l 1
 600 200 l 1
 600 0 l 1
1200 200 m 1
 1400 200 l 1
 1400 0 l 1
 1200 0 l 1
 1200 200 l 1
EndSplineSet
EndChar

StartChar: uniE147
Encoding: 57671 57671 327
Width: 1400
VWidth: 0
Flags: HW
LayerCount: 2
Fore
SplineSet
0 200 m 1
 600 200 l 1
 600 0 l 1
 0 0 l 1
 0 200 l 1
1200 200 m 1
 1400 200 l 1
 1400 0 l 1
 1200 0 l 1
 1200 200 l 1
EndSplineSet
EndChar

StartChar: uniE148
Encoding: 57672 57672 328
Width: 1400
VWidth: 0
Flags: HW
LayerCount: 2
Fore
SplineSet
600 200 m 1
 800 200 l 1
 800 0 l 1
 600 0 l 1
 600 200 l 1
1200 200 m 1
 1400 200 l 1
 1400 0 l 1
 1200 0 l 1
 1200 200 l 1
EndSplineSet
EndChar

StartChar: uniE149
Encoding: 57673 57673 329
Width: 1400
VWidth: 0
Flags: HW
LayerCount: 2
Fore
SplineSet
0 200 m 1
 200 200 l 1
 200 0 l 1
 0 0 l 1
 0 200 l 1
600 200 m 1
 800 200 l 1
 800 0 l 1
 600 0 l 1
 600 200 l 1
1200 200 m 1
 1400 200 l 1
 1400 0 l 1
 1200 0 l 1
 1200 200 l 1
EndSplineSet
EndChar

StartChar: uniE14A
Encoding: 57674 57674 330
Width: 1400
VWidth: 0
Flags: HW
LayerCount: 2
Fore
SplineSet
200 200 m 1
 400 200 l 1
 400 0 l 1
 200 0 l 1
 200 200 l 1
600 200 m 1
 800 200 l 1
 800 0 l 1
 600 0 l 1
 600 200 l 1
1200 200 m 1
 1400 200 l 1
 1400 0 l 1
 1200 0 l 1
 1200 200 l 1
EndSplineSet
EndChar

StartChar: uniE14B
Encoding: 57675 57675 331
Width: 1400
VWidth: 0
Flags: HW
LayerCount: 2
Fore
SplineSet
400 0 m 1
 0 0 l 1
 0 200 l 1
 400 200 l 1
 400 0 l 1
600 200 m 1
 800 200 l 1
 800 0 l 1
 600 0 l 1
 600 200 l 1
1200 200 m 1
 1400 200 l 1
 1400 0 l 1
 1200 0 l 1
 1200 200 l 1
EndSplineSet
EndChar

StartChar: uniE14C
Encoding: 57676 57676 332
Width: 1400
VWidth: 0
Flags: HW
LayerCount: 2
Fore
SplineSet
800 0 m 1
 400 0 l 1
 400 200 l 1
 800 200 l 1
 800 0 l 1
1200 200 m 1
 1400 200 l 1
 1400 0 l 1
 1200 0 l 1
 1200 200 l 1
EndSplineSet
EndChar

StartChar: uniE14D
Encoding: 57677 57677 333
Width: 1400
VWidth: 0
Flags: HW
LayerCount: 2
Fore
SplineSet
800 0 m 1
 400 0 l 1
 400 200 l 1
 800 200 l 1
 800 0 l 1
0 200 m 1
 200 200 l 1
 200 0 l 1
 0 0 l 1
 0 200 l 1
1200 200 m 1
 1400 200 l 1
 1400 0 l 1
 1200 0 l 1
 1200 200 l 1
EndSplineSet
EndChar

StartChar: uniE14E
Encoding: 57678 57678 334
Width: 1400
VWidth: 0
Flags: HW
LayerCount: 2
Fore
SplineSet
200 200 m 1
 800 200 l 1
 800 0 l 1
 200 0 l 1
 200 200 l 1
1200 200 m 1
 1400 200 l 1
 1400 0 l 1
 1200 0 l 1
 1200 200 l 1
EndSplineSet
EndChar

StartChar: uniE14F
Encoding: 57679 57679 335
Width: 1400
VWidth: 0
Flags: HW
LayerCount: 2
Fore
SplineSet
800 0 m 1
 0 0 l 1
 0 200 l 1
 800 200 l 1
 800 0 l 1
1200 200 m 1
 1400 200 l 1
 1400 0 l 1
 1200 0 l 1
 1200 200 l 1
EndSplineSet
EndChar

StartChar: uniE150
Encoding: 57680 57680 336
Width: 1400
VWidth: 0
Flags: HW
LayerCount: 2
Fore
SplineSet
800 200 m 1
 1000 200 l 1
 1000 0 l 1
 800 0 l 1
 800 200 l 1
1200 200 m 1
 1400 200 l 1
 1400 0 l 1
 1200 0 l 1
 1200 200 l 1
EndSplineSet
EndChar

StartChar: uniE151
Encoding: 57681 57681 337
Width: 1400
VWidth: 0
Flags: HW
LayerCount: 2
Fore
SplineSet
800 200 m 1
 1000 200 l 1
 1000 0 l 1
 800 0 l 1
 800 200 l 1
0 200 m 1
 200 200 l 1
 200 0 l 1
 0 0 l 1
 0 200 l 1
1200 200 m 1
 1400 200 l 1
 1400 0 l 1
 1200 0 l 1
 1200 200 l 1
EndSplineSet
EndChar

StartChar: uniE152
Encoding: 57682 57682 338
Width: 1400
VWidth: 0
Flags: HW
LayerCount: 2
Fore
SplineSet
800 200 m 1
 1000 200 l 1
 1000 0 l 1
 800 0 l 1
 800 200 l 1
200 200 m 1
 400 200 l 1
 400 0 l 1
 200 0 l 1
 200 200 l 1
1200 200 m 1
 1400 200 l 1
 1400 0 l 1
 1200 0 l 1
 1200 200 l 1
EndSplineSet
EndChar

StartChar: uniE153
Encoding: 57683 57683 339
Width: 1400
VWidth: 0
Flags: HW
LayerCount: 2
Fore
SplineSet
800 200 m 1
 1000 200 l 1
 1000 0 l 1
 800 0 l 1
 800 200 l 1
400 0 m 1
 0 0 l 1
 0 200 l 1
 400 200 l 1
 400 0 l 1
1200 200 m 1
 1400 200 l 1
 1400 0 l 1
 1200 0 l 1
 1200 200 l 1
EndSplineSet
EndChar

StartChar: uniE154
Encoding: 57684 57684 340
Width: 1400
VWidth: 0
Flags: HW
LayerCount: 2
Fore
SplineSet
800 200 m 1
 1000 200 l 1
 1000 0 l 1
 800 0 l 1
 800 200 l 1
400 200 m 1
 600 200 l 1
 600 0 l 1
 400 0 l 1
 400 200 l 1
1200 200 m 1
 1400 200 l 1
 1400 0 l 1
 1200 0 l 1
 1200 200 l 1
EndSplineSet
EndChar

StartChar: uniE155
Encoding: 57685 57685 341
Width: 1400
VWidth: 0
Flags: HW
LayerCount: 2
Fore
SplineSet
800 200 m 1
 1000 200 l 1
 1000 0 l 1
 800 0 l 1
 800 200 l 1
0 200 m 1
 200 200 l 1
 200 0 l 1
 0 0 l 1
 0 200 l 1
400 200 m 1
 600 200 l 1
 600 0 l 1
 400 0 l 1
 400 200 l 1
1200 200 m 1
 1400 200 l 1
 1400 0 l 1
 1200 0 l 1
 1200 200 l 1
EndSplineSet
EndChar

StartChar: uniE156
Encoding: 57686 57686 342
Width: 1400
VWidth: 0
Flags: HW
LayerCount: 2
Fore
SplineSet
800 200 m 1
 1000 200 l 1
 1000 0 l 1
 800 0 l 1
 800 200 l 1
600 0 m 1
 200 0 l 1
 200 200 l 1
 600 200 l 1
 600 0 l 1
1200 200 m 1
 1400 200 l 1
 1400 0 l 1
 1200 0 l 1
 1200 200 l 1
EndSplineSet
EndChar

StartChar: uniE157
Encoding: 57687 57687 343
Width: 1400
VWidth: 0
Flags: HW
LayerCount: 2
Fore
SplineSet
800 200 m 1
 1000 200 l 1
 1000 0 l 1
 800 0 l 1
 800 200 l 1
0 200 m 1
 600 200 l 1
 600 0 l 1
 0 0 l 1
 0 200 l 1
1200 200 m 1
 1400 200 l 1
 1400 0 l 1
 1200 0 l 1
 1200 200 l 1
EndSplineSet
EndChar

StartChar: uniE158
Encoding: 57688 57688 344
Width: 1400
VWidth: 0
Flags: HW
LayerCount: 2
Fore
SplineSet
1000 0 m 1
 600 0 l 1
 600 200 l 1
 1000 200 l 1
 1000 0 l 1
1200 200 m 1
 1400 200 l 1
 1400 0 l 1
 1200 0 l 1
 1200 200 l 1
EndSplineSet
EndChar

StartChar: uniE159
Encoding: 57689 57689 345
Width: 1400
VWidth: 0
Flags: HW
LayerCount: 2
Fore
SplineSet
0 200 m 1
 200 200 l 1
 200 0 l 1
 0 0 l 1
 0 200 l 1
1000 0 m 1
 600 0 l 1
 600 200 l 1
 1000 200 l 1
 1000 0 l 1
1200 200 m 1
 1400 200 l 1
 1400 0 l 1
 1200 0 l 1
 1200 200 l 1
EndSplineSet
EndChar

StartChar: uniE15A
Encoding: 57690 57690 346
Width: 1400
VWidth: 0
Flags: HW
LayerCount: 2
Fore
SplineSet
200 200 m 1
 400 200 l 1
 400 0 l 1
 200 0 l 1
 200 200 l 1
1000 0 m 1
 600 0 l 1
 600 200 l 1
 1000 200 l 1
 1000 0 l 1
1200 200 m 1
 1400 200 l 1
 1400 0 l 1
 1200 0 l 1
 1200 200 l 1
EndSplineSet
EndChar

StartChar: uniE15B
Encoding: 57691 57691 347
Width: 1400
VWidth: 0
Flags: HW
LayerCount: 2
Fore
SplineSet
400 0 m 1
 0 0 l 1
 0 200 l 1
 400 200 l 1
 400 0 l 1
1000 0 m 1
 600 0 l 1
 600 200 l 1
 1000 200 l 1
 1000 0 l 1
1200 200 m 1
 1400 200 l 1
 1400 0 l 1
 1200 0 l 1
 1200 200 l 1
EndSplineSet
EndChar

StartChar: uniE15C
Encoding: 57692 57692 348
Width: 1400
VWidth: 0
Flags: HW
LayerCount: 2
Fore
SplineSet
1000 0 m 1
 400 0 l 1
 400 200 l 1
 1000 200 l 1
 1000 0 l 1
1200 200 m 1
 1400 200 l 1
 1400 0 l 1
 1200 0 l 1
 1200 200 l 1
EndSplineSet
EndChar

StartChar: uniE15D
Encoding: 57693 57693 349
Width: 1400
VWidth: 0
Flags: HW
LayerCount: 2
Fore
SplineSet
0 200 m 1
 200 200 l 1
 200 0 l 1
 0 0 l 1
 0 200 l 1
1000 0 m 1
 400 0 l 1
 400 200 l 1
 1000 200 l 1
 1000 0 l 1
1200 200 m 1
 1400 200 l 1
 1400 0 l 1
 1200 0 l 1
 1200 200 l 1
EndSplineSet
EndChar

StartChar: uniE15E
Encoding: 57694 57694 350
Width: 1400
VWidth: 0
Flags: HW
LayerCount: 2
Fore
SplineSet
1000 0 m 1
 200 0 l 1
 200 200 l 1
 1000 200 l 1
 1000 0 l 1
1200 200 m 1
 1400 200 l 1
 1400 0 l 1
 1200 0 l 1
 1200 200 l 1
EndSplineSet
EndChar

StartChar: uniE15F
Encoding: 57695 57695 351
Width: 1400
VWidth: 0
Flags: HW
LayerCount: 2
Fore
SplineSet
1000 0 m 1
 0 0 l 1
 0 200 l 1
 1000 200 l 1
 1000 0 l 1
1200 200 m 1
 1400 200 l 1
 1400 0 l 1
 1200 0 l 1
 1200 200 l 1
EndSplineSet
EndChar

StartChar: uniE160
Encoding: 57696 57696 352
Width: 1400
VWidth: 0
Flags: HW
LayerCount: 2
Fore
SplineSet
1400 0 m 1
 1000 0 l 1
 1000 200 l 1
 1400 200 l 1
 1400 0 l 1
EndSplineSet
EndChar

StartChar: uniE161
Encoding: 57697 57697 353
Width: 1400
VWidth: 0
Flags: HW
LayerCount: 2
Fore
SplineSet
1400 0 m 1
 1000 0 l 1
 1000 200 l 1
 1400 200 l 1
 1400 0 l 1
0 200 m 1
 200 200 l 1
 200 0 l 1
 0 0 l 1
 0 200 l 1
EndSplineSet
EndChar

StartChar: uniE162
Encoding: 57698 57698 354
Width: 1400
VWidth: 0
Flags: HW
LayerCount: 2
Fore
SplineSet
1400 0 m 1
 1000 0 l 1
 1000 200 l 1
 1400 200 l 1
 1400 0 l 1
200 200 m 1
 400 200 l 1
 400 0 l 1
 200 0 l 1
 200 200 l 1
EndSplineSet
EndChar

StartChar: uniE163
Encoding: 57699 57699 355
Width: 1400
VWidth: 0
Flags: HW
LayerCount: 2
Fore
SplineSet
1400 0 m 1
 1000 0 l 1
 1000 200 l 1
 1400 200 l 1
 1400 0 l 1
400 0 m 1
 0 0 l 1
 0 200 l 1
 400 200 l 1
 400 0 l 1
EndSplineSet
EndChar

StartChar: uniE164
Encoding: 57700 57700 356
Width: 1400
VWidth: 0
Flags: HW
LayerCount: 2
Fore
SplineSet
1400 0 m 1
 1000 0 l 1
 1000 200 l 1
 1400 200 l 1
 1400 0 l 1
400 200 m 1
 600 200 l 1
 600 0 l 1
 400 0 l 1
 400 200 l 1
EndSplineSet
EndChar

StartChar: uniE165
Encoding: 57701 57701 357
Width: 1400
VWidth: 0
Flags: HW
LayerCount: 2
Fore
SplineSet
1400 0 m 1
 1000 0 l 1
 1000 200 l 1
 1400 200 l 1
 1400 0 l 1
0 200 m 1
 200 200 l 1
 200 0 l 1
 0 0 l 1
 0 200 l 1
400 200 m 1
 600 200 l 1
 600 0 l 1
 400 0 l 1
 400 200 l 1
EndSplineSet
EndChar

StartChar: uniE166
Encoding: 57702 57702 358
Width: 1400
VWidth: 0
Flags: HW
LayerCount: 2
Fore
SplineSet
1400 0 m 1
 1000 0 l 1
 1000 200 l 1
 1400 200 l 1
 1400 0 l 1
600 0 m 1
 200 0 l 1
 200 200 l 1
 600 200 l 1
 600 0 l 1
EndSplineSet
EndChar

StartChar: uniE167
Encoding: 57703 57703 359
Width: 1400
VWidth: 0
Flags: HW
LayerCount: 2
Fore
SplineSet
1400 0 m 1
 1000 0 l 1
 1000 200 l 1
 1400 200 l 1
 1400 0 l 1
0 200 m 1
 600 200 l 1
 600 0 l 1
 0 0 l 1
 0 200 l 1
EndSplineSet
EndChar

StartChar: uniE168
Encoding: 57704 57704 360
Width: 1400
VWidth: 0
Flags: HW
LayerCount: 2
Fore
SplineSet
1400 0 m 1
 1000 0 l 1
 1000 200 l 1
 1400 200 l 1
 1400 0 l 1
600 200 m 1
 800 200 l 1
 800 0 l 1
 600 0 l 1
 600 200 l 1
EndSplineSet
EndChar

StartChar: uniE169
Encoding: 57705 57705 361
Width: 1400
VWidth: 0
Flags: HW
LayerCount: 2
Fore
SplineSet
1400 0 m 1
 1000 0 l 1
 1000 200 l 1
 1400 200 l 1
 1400 0 l 1
600 200 m 1
 800 200 l 1
 800 0 l 1
 600 0 l 1
 600 200 l 1
0 200 m 1
 200 200 l 1
 200 0 l 1
 0 0 l 1
 0 200 l 1
EndSplineSet
EndChar

StartChar: uniE16A
Encoding: 57706 57706 362
Width: 1400
VWidth: 0
Flags: HW
LayerCount: 2
Fore
SplineSet
1400 0 m 1
 1000 0 l 1
 1000 200 l 1
 1400 200 l 1
 1400 0 l 1
600 200 m 1
 800 200 l 1
 800 0 l 1
 600 0 l 1
 600 200 l 1
200 200 m 1
 400 200 l 1
 400 0 l 1
 200 0 l 1
 200 200 l 1
EndSplineSet
EndChar

StartChar: uniE16B
Encoding: 57707 57707 363
Width: 1400
VWidth: 0
Flags: HW
LayerCount: 2
Fore
SplineSet
1400 0 m 1
 1000 0 l 1
 1000 200 l 1
 1400 200 l 1
 1400 0 l 1
600 200 m 1
 800 200 l 1
 800 0 l 1
 600 0 l 1
 600 200 l 1
400 0 m 1
 0 0 l 1
 0 200 l 1
 400 200 l 1
 400 0 l 1
EndSplineSet
EndChar

StartChar: uniE16C
Encoding: 57708 57708 364
Width: 1400
VWidth: 0
Flags: HW
LayerCount: 2
Fore
SplineSet
1400 0 m 1
 1000 0 l 1
 1000 200 l 1
 1400 200 l 1
 1400 0 l 1
800 0 m 1
 400 0 l 1
 400 200 l 1
 800 200 l 1
 800 0 l 1
EndSplineSet
EndChar

StartChar: uniE16D
Encoding: 57709 57709 365
Width: 1400
VWidth: 0
Flags: HW
LayerCount: 2
Fore
SplineSet
1400 0 m 1
 1000 0 l 1
 1000 200 l 1
 1400 200 l 1
 1400 0 l 1
0 200 m 1
 200 200 l 1
 200 0 l 1
 0 0 l 1
 0 200 l 1
800 0 m 1
 400 0 l 1
 400 200 l 1
 800 200 l 1
 800 0 l 1
EndSplineSet
EndChar

StartChar: uniE16E
Encoding: 57710 57710 366
Width: 1400
VWidth: 0
Flags: HW
LayerCount: 2
Fore
SplineSet
1400 0 m 1
 1000 0 l 1
 1000 200 l 1
 1400 200 l 1
 1400 0 l 1
200 200 m 1
 800 200 l 1
 800 0 l 1
 200 0 l 1
 200 200 l 1
EndSplineSet
EndChar

StartChar: uniE16F
Encoding: 57711 57711 367
Width: 1400
VWidth: 0
Flags: HW
LayerCount: 2
Fore
SplineSet
1400 0 m 1
 1000 0 l 1
 1000 200 l 1
 1400 200 l 1
 1400 0 l 1
800 0 m 1
 0 0 l 1
 0 200 l 1
 800 200 l 1
 800 0 l 1
EndSplineSet
EndChar

StartChar: uniE170
Encoding: 57712 57712 368
Width: 1400
VWidth: 0
Flags: HW
LayerCount: 2
Fore
SplineSet
800 200 m 1
 1400 200 l 1
 1400 0 l 1
 800 0 l 1
 800 200 l 1
EndSplineSet
EndChar

StartChar: uniE171
Encoding: 57713 57713 369
Width: 1400
VWidth: 0
Flags: HW
LayerCount: 2
Fore
SplineSet
800 200 m 1
 1400 200 l 1
 1400 0 l 1
 800 0 l 1
 800 200 l 1
0 200 m 1
 200 200 l 1
 200 0 l 1
 0 0 l 1
 0 200 l 1
EndSplineSet
EndChar

StartChar: uniE172
Encoding: 57714 57714 370
Width: 1400
VWidth: 0
Flags: HW
LayerCount: 2
Fore
SplineSet
800 200 m 1
 1400 200 l 1
 1400 0 l 1
 800 0 l 1
 800 200 l 1
200 200 m 1
 400 200 l 1
 400 0 l 1
 200 0 l 1
 200 200 l 1
EndSplineSet
EndChar

StartChar: uniE173
Encoding: 57715 57715 371
Width: 1400
VWidth: 0
Flags: HW
LayerCount: 2
Fore
SplineSet
800 200 m 1
 1400 200 l 1
 1400 0 l 1
 800 0 l 1
 800 200 l 1
400 0 m 1
 0 0 l 1
 0 200 l 1
 400 200 l 1
 400 0 l 1
EndSplineSet
EndChar

StartChar: uniE174
Encoding: 57716 57716 372
Width: 1400
VWidth: 0
Flags: HW
LayerCount: 2
Fore
SplineSet
800 200 m 1
 1400 200 l 1
 1400 0 l 1
 800 0 l 1
 800 200 l 1
400 200 m 1
 600 200 l 1
 600 0 l 1
 400 0 l 1
 400 200 l 1
EndSplineSet
EndChar

StartChar: uniE175
Encoding: 57717 57717 373
Width: 1400
VWidth: 0
Flags: HW
LayerCount: 2
Fore
SplineSet
800 200 m 1
 1400 200 l 1
 1400 0 l 1
 800 0 l 1
 800 200 l 1
400 200 m 1
 600 200 l 1
 600 0 l 1
 400 0 l 1
 400 200 l 1
0 200 m 1
 200 200 l 1
 200 0 l 1
 0 0 l 1
 0 200 l 1
EndSplineSet
EndChar

StartChar: uniE176
Encoding: 57718 57718 374
Width: 1400
VWidth: 0
Flags: HW
LayerCount: 2
Fore
SplineSet
800 200 m 1
 1400 200 l 1
 1400 0 l 1
 800 0 l 1
 800 200 l 1
600 0 m 1
 200 0 l 1
 200 200 l 1
 600 200 l 1
 600 0 l 1
EndSplineSet
EndChar

StartChar: uniE177
Encoding: 57719 57719 375
Width: 1400
VWidth: 0
Flags: HW
LayerCount: 2
Fore
SplineSet
800 200 m 1
 1400 200 l 1
 1400 0 l 1
 800 0 l 1
 800 200 l 1
0 200 m 1
 600 200 l 1
 600 0 l 1
 0 0 l 1
 0 200 l 1
EndSplineSet
EndChar

StartChar: uniE178
Encoding: 57720 57720 376
Width: 1400
VWidth: 0
Flags: HW
LayerCount: 2
Fore
SplineSet
1400 0 m 1
 600 0 l 1
 600 200 l 1
 1400 200 l 1
 1400 0 l 1
EndSplineSet
EndChar

StartChar: uniE179
Encoding: 57721 57721 377
Width: 1400
VWidth: 0
Flags: HW
LayerCount: 2
Fore
SplineSet
1400 0 m 1
 600 0 l 1
 600 200 l 1
 1400 200 l 1
 1400 0 l 1
0 200 m 1
 200 200 l 1
 200 0 l 1
 0 0 l 1
 0 200 l 1
EndSplineSet
EndChar

StartChar: uniE17A
Encoding: 57722 57722 378
Width: 1400
VWidth: 0
Flags: HW
LayerCount: 2
Fore
SplineSet
1400 0 m 1
 600 0 l 1
 600 200 l 1
 1400 200 l 1
 1400 0 l 1
200 200 m 1
 400 200 l 1
 400 0 l 1
 200 0 l 1
 200 200 l 1
EndSplineSet
EndChar

StartChar: uniE17B
Encoding: 57723 57723 379
Width: 1400
VWidth: 0
Flags: HW
LayerCount: 2
Fore
SplineSet
1400 0 m 1
 600 0 l 1
 600 200 l 1
 1400 200 l 1
 1400 0 l 1
400 0 m 1
 0 0 l 1
 0 200 l 1
 400 200 l 1
 400 0 l 1
EndSplineSet
EndChar

StartChar: uniE17C
Encoding: 57724 57724 380
Width: 1400
VWidth: 0
Flags: HW
LayerCount: 2
Fore
SplineSet
1400 0 m 1
 400 0 l 1
 400 200 l 1
 1400 200 l 1
 1400 0 l 1
EndSplineSet
EndChar

StartChar: uniE17D
Encoding: 57725 57725 381
Width: 1400
VWidth: 0
Flags: HW
LayerCount: 2
Fore
SplineSet
1400 0 m 1
 400 0 l 1
 400 200 l 1
 1400 200 l 1
 1400 0 l 1
0 200 m 1
 200 200 l 1
 200 0 l 1
 0 0 l 1
 0 200 l 1
EndSplineSet
EndChar

StartChar: uniE17E
Encoding: 57726 57726 382
Width: 1400
VWidth: 0
Flags: HW
LayerCount: 2
Fore
SplineSet
1400 0 m 1
 200 0 l 1
 200 200 l 1
 1400 200 l 1
 1400 0 l 1
EndSplineSet
EndChar

StartChar: uniE17F
Encoding: 57727 57727 383
Width: 1400
VWidth: 0
Flags: HW
LayerCount: 2
Fore
SplineSet
1400 0 m 1
 0 0 l 1
 0 200 l 1
 1400 200 l 1
 1400 0 l 1
EndSplineSet
EndChar

StartChar: uniE180
Encoding: 57728 57728 384
Width: 1400
VWidth: 0
Flags: HW
LayerCount: 2
Fore
SplineSet
0 200 m 1
 100 200 l 1
 100 0 l 1
 0 0 l 1
 0 200 l 1
EndSplineSet
EndChar

StartChar: uniE181
Encoding: 57729 57729 385
Width: 1400
VWidth: 0
Flags: HW
LayerCount: 2
Fore
SplineSet
300 0 m 1
 0 0 l 1
 0 200 l 1
 300 200 l 1
 300 0 l 1
EndSplineSet
EndChar

StartChar: uniE182
Encoding: 57730 57730 386
Width: 1400
VWidth: 0
Flags: HW
LayerCount: 2
Fore
SplineSet
0 200 m 1
 100 200 l 1
 100 0 l 1
 0 0 l 1
 0 200 l 1
300 200 m 1
 500 200 l 1
 500 0 l 1
 300 0 l 1
 300 200 l 1
EndSplineSet
EndChar

StartChar: uniE183
Encoding: 57731 57731 387
Width: 1400
VWidth: 0
Flags: HW
LayerCount: 2
Fore
SplineSet
0 200 m 1
 500 200 l 1
 500 0 l 1
 0 0 l 1
 0 200 l 1
EndSplineSet
EndChar

StartChar: uniE184
Encoding: 57732 57732 388
Width: 1400
VWidth: 0
Flags: HW
LayerCount: 2
Fore
SplineSet
0 200 m 1
 100 200 l 1
 100 0 l 1
 0 0 l 1
 0 200 l 1
500 200 m 1
 700 200 l 1
 700 0 l 1
 500 0 l 1
 500 200 l 1
EndSplineSet
EndChar

StartChar: uniE185
Encoding: 57733 57733 389
Width: 1400
VWidth: 0
Flags: HW
LayerCount: 2
Fore
SplineSet
500 200 m 1
 700 200 l 1
 700 0 l 1
 500 0 l 1
 500 200 l 1
300 0 m 1
 0 0 l 1
 0 200 l 1
 300 200 l 1
 300 0 l 1
EndSplineSet
EndChar

StartChar: uniE186
Encoding: 57734 57734 390
Width: 1400
VWidth: 0
Flags: HW
LayerCount: 2
Fore
SplineSet
0 200 m 1
 100 200 l 1
 100 0 l 1
 0 0 l 1
 0 200 l 1
700 0 m 1
 300 0 l 1
 300 200 l 1
 700 200 l 1
 700 0 l 1
EndSplineSet
EndChar

StartChar: uniE187
Encoding: 57735 57735 391
Width: 1400
VWidth: 0
Flags: HW
LayerCount: 2
Fore
SplineSet
700 0 m 1
 0 0 l 1
 0 200 l 1
 700 200 l 1
 700 0 l 1
EndSplineSet
EndChar

StartChar: uniE188
Encoding: 57736 57736 392
Width: 1400
VWidth: 0
Flags: HW
LayerCount: 2
Fore
SplineSet
0 200 m 1
 100 200 l 1
 100 0 l 1
 0 0 l 1
 0 200 l 1
700 200 m 1
 900 200 l 1
 900 0 l 1
 700 0 l 1
 700 200 l 1
EndSplineSet
EndChar

StartChar: uniE189
Encoding: 57737 57737 393
Width: 1400
VWidth: 0
Flags: HW
LayerCount: 2
Fore
SplineSet
700 200 m 1
 900 200 l 1
 900 0 l 1
 700 0 l 1
 700 200 l 1
300 0 m 1
 0 0 l 1
 0 200 l 1
 300 200 l 1
 300 0 l 1
EndSplineSet
EndChar

StartChar: uniE18A
Encoding: 57738 57738 394
Width: 1400
VWidth: 0
Flags: HW
LayerCount: 2
Fore
SplineSet
0 200 m 1
 100 200 l 1
 100 0 l 1
 0 0 l 1
 0 200 l 1
300 200 m 1
 500 200 l 1
 500 0 l 1
 300 0 l 1
 300 200 l 1
700 200 m 1
 900 200 l 1
 900 0 l 1
 700 0 l 1
 700 200 l 1
EndSplineSet
EndChar

StartChar: uniE18B
Encoding: 57739 57739 395
Width: 1400
VWidth: 0
Flags: HW
LayerCount: 2
Fore
SplineSet
700 200 m 1
 900 200 l 1
 900 0 l 1
 700 0 l 1
 700 200 l 1
0 200 m 1
 500 200 l 1
 500 0 l 1
 0 0 l 1
 0 200 l 1
EndSplineSet
EndChar

StartChar: uniE18C
Encoding: 57740 57740 396
Width: 1400
VWidth: 0
Flags: HW
LayerCount: 2
Fore
SplineSet
0 200 m 1
 100 200 l 1
 100 0 l 1
 0 0 l 1
 0 200 l 1
900 0 m 1
 500 0 l 1
 500 200 l 1
 900 200 l 1
 900 0 l 1
EndSplineSet
EndChar

StartChar: uniE18D
Encoding: 57741 57741 397
Width: 1400
VWidth: 0
Flags: HW
LayerCount: 2
Fore
SplineSet
900 0 m 1
 500 0 l 1
 500 200 l 1
 900 200 l 1
 900 0 l 1
300 0 m 1
 0 0 l 1
 0 200 l 1
 300 200 l 1
 300 0 l 1
EndSplineSet
EndChar

StartChar: uniE18E
Encoding: 57742 57742 398
Width: 1400
VWidth: 0
Flags: HW
LayerCount: 2
Fore
SplineSet
0 200 m 1
 100 200 l 1
 100 0 l 1
 0 0 l 1
 0 200 l 1
300 200 m 1
 900 200 l 1
 900 0 l 1
 300 0 l 1
 300 200 l 1
EndSplineSet
EndChar

StartChar: uniE18F
Encoding: 57743 57743 399
Width: 1400
VWidth: 0
Flags: HW
LayerCount: 2
Fore
SplineSet
0 200 m 1
 900 200 l 1
 900 0 l 1
 0 0 l 1
 0 200 l 1
EndSplineSet
EndChar

StartChar: uniE190
Encoding: 57744 57744 400
Width: 1400
VWidth: 0
Flags: HW
LayerCount: 2
Fore
SplineSet
0 200 m 1
 100 200 l 1
 100 0 l 1
 0 0 l 1
 0 200 l 1
900 200 m 1
 1100 200 l 1
 1100 0 l 1
 900 0 l 1
 900 200 l 1
EndSplineSet
EndChar

StartChar: uniE191
Encoding: 57745 57745 401
Width: 1400
VWidth: 0
Flags: HW
LayerCount: 2
Fore
SplineSet
900 200 m 1
 1100 200 l 1
 1100 0 l 1
 900 0 l 1
 900 200 l 1
300 0 m 1
 0 0 l 1
 0 200 l 1
 300 200 l 1
 300 0 l 1
EndSplineSet
EndChar

StartChar: uniE192
Encoding: 57746 57746 402
Width: 1400
VWidth: 0
Flags: HW
LayerCount: 2
Fore
SplineSet
0 200 m 1
 100 200 l 1
 100 0 l 1
 0 0 l 1
 0 200 l 1
900 200 m 1
 1100 200 l 1
 1100 0 l 1
 900 0 l 1
 900 200 l 1
300 200 m 1
 500 200 l 1
 500 0 l 1
 300 0 l 1
 300 200 l 1
EndSplineSet
EndChar

StartChar: uniE193
Encoding: 57747 57747 403
Width: 1400
VWidth: 0
Flags: HW
LayerCount: 2
Fore
SplineSet
900 200 m 1
 1100 200 l 1
 1100 0 l 1
 900 0 l 1
 900 200 l 1
0 200 m 1
 500 200 l 1
 500 0 l 1
 0 0 l 1
 0 200 l 1
EndSplineSet
EndChar

StartChar: uniE194
Encoding: 57748 57748 404
Width: 1400
VWidth: 0
Flags: HW
LayerCount: 2
Fore
SplineSet
0 200 m 1
 100 200 l 1
 100 0 l 1
 0 0 l 1
 0 200 l 1
900 200 m 1
 1100 200 l 1
 1100 0 l 1
 900 0 l 1
 900 200 l 1
500 200 m 1
 700 200 l 1
 700 0 l 1
 500 0 l 1
 500 200 l 1
EndSplineSet
EndChar

StartChar: uniE195
Encoding: 57749 57749 405
Width: 1400
VWidth: 0
Flags: HW
LayerCount: 2
Fore
SplineSet
900 200 m 1
 1100 200 l 1
 1100 0 l 1
 900 0 l 1
 900 200 l 1
500 200 m 1
 700 200 l 1
 700 0 l 1
 500 0 l 1
 500 200 l 1
300 0 m 1
 0 0 l 1
 0 200 l 1
 300 200 l 1
 300 0 l 1
EndSplineSet
EndChar

StartChar: uniE196
Encoding: 57750 57750 406
Width: 1400
VWidth: 0
Flags: HW
LayerCount: 2
Fore
SplineSet
0 200 m 1
 100 200 l 1
 100 0 l 1
 0 0 l 1
 0 200 l 1
900 200 m 1
 1100 200 l 1
 1100 0 l 1
 900 0 l 1
 900 200 l 1
700 0 m 1
 300 0 l 1
 300 200 l 1
 700 200 l 1
 700 0 l 1
EndSplineSet
EndChar

StartChar: uniE197
Encoding: 57751 57751 407
Width: 1400
VWidth: 0
Flags: HW
LayerCount: 2
Fore
SplineSet
900 200 m 1
 1100 200 l 1
 1100 0 l 1
 900 0 l 1
 900 200 l 1
700 0 m 1
 0 0 l 1
 0 200 l 1
 700 200 l 1
 700 0 l 1
EndSplineSet
EndChar

StartChar: uniE198
Encoding: 57752 57752 408
Width: 1400
VWidth: 0
Flags: HW
LayerCount: 2
Fore
SplineSet
0 200 m 1
 100 200 l 1
 100 0 l 1
 0 0 l 1
 0 200 l 1
1100 0 m 1
 700 0 l 1
 700 200 l 1
 1100 200 l 1
 1100 0 l 1
EndSplineSet
EndChar

StartChar: uniE199
Encoding: 57753 57753 409
Width: 1400
VWidth: 0
Flags: HW
LayerCount: 2
Fore
SplineSet
1100 0 m 1
 700 0 l 1
 700 200 l 1
 1100 200 l 1
 1100 0 l 1
300 0 m 1
 0 0 l 1
 0 200 l 1
 300 200 l 1
 300 0 l 1
EndSplineSet
EndChar

StartChar: uniE19A
Encoding: 57754 57754 410
Width: 1400
VWidth: 0
Flags: HW
LayerCount: 2
Fore
SplineSet
0 200 m 1
 100 200 l 1
 100 0 l 1
 0 0 l 1
 0 200 l 1
300 200 m 1
 500 200 l 1
 500 0 l 1
 300 0 l 1
 300 200 l 1
1100 0 m 1
 700 0 l 1
 700 200 l 1
 1100 200 l 1
 1100 0 l 1
EndSplineSet
EndChar

StartChar: uniE19B
Encoding: 57755 57755 411
Width: 1400
VWidth: 0
Flags: HW
LayerCount: 2
Fore
SplineSet
1100 0 m 1
 700 0 l 1
 700 200 l 1
 1100 200 l 1
 1100 0 l 1
0 200 m 1
 500 200 l 1
 500 0 l 1
 0 0 l 1
 0 200 l 1
EndSplineSet
EndChar

StartChar: uniE19C
Encoding: 57756 57756 412
Width: 1400
VWidth: 0
Flags: HW
LayerCount: 2
Fore
SplineSet
0 200 m 1
 100 200 l 1
 100 0 l 1
 0 0 l 1
 0 200 l 1
1100 0 m 1
 500 0 l 1
 500 200 l 1
 1100 200 l 1
 1100 0 l 1
EndSplineSet
EndChar

StartChar: uniE19D
Encoding: 57757 57757 413
Width: 1400
VWidth: 0
Flags: HW
LayerCount: 2
Fore
SplineSet
1100 0 m 1
 500 0 l 1
 500 200 l 1
 1100 200 l 1
 1100 0 l 1
300 0 m 1
 0 0 l 1
 0 200 l 1
 300 200 l 1
 300 0 l 1
EndSplineSet
EndChar

StartChar: uniE19E
Encoding: 57758 57758 414
Width: 1400
VWidth: 0
Flags: HW
LayerCount: 2
Fore
SplineSet
0 200 m 1
 100 200 l 1
 100 0 l 1
 0 0 l 1
 0 200 l 1
1100 0 m 1
 300 0 l 1
 300 200 l 1
 1100 200 l 1
 1100 0 l 1
EndSplineSet
EndChar

StartChar: uniE19F
Encoding: 57759 57759 415
Width: 1400
VWidth: 0
Flags: HW
LayerCount: 2
Fore
SplineSet
0 200 m 1
 1100 200 l 1
 1100 0 l 1
 0 0 l 1
 0 200 l 1
EndSplineSet
EndChar

StartChar: uniE1A0
Encoding: 57760 57760 416
Width: 1400
VWidth: 0
Flags: HW
LayerCount: 2
Fore
SplineSet
0 200 m 1
 100 200 l 1
 100 0 l 1
 0 0 l 1
 0 200 l 1
1100 200 m 1
 1300 200 l 1
 1300 0 l 1
 1100 0 l 1
 1100 200 l 1
EndSplineSet
EndChar

StartChar: uniE1A1
Encoding: 57761 57761 417
Width: 1400
VWidth: 0
Flags: HW
LayerCount: 2
Fore
SplineSet
1100 200 m 1
 1300 200 l 1
 1300 0 l 1
 1100 0 l 1
 1100 200 l 1
300 0 m 1
 0 0 l 1
 0 200 l 1
 300 200 l 1
 300 0 l 1
EndSplineSet
EndChar

StartChar: uniE1A2
Encoding: 57762 57762 418
Width: 1400
VWidth: 0
Flags: HW
LayerCount: 2
Fore
SplineSet
0 200 m 1
 100 200 l 1
 100 0 l 1
 0 0 l 1
 0 200 l 1
1100 200 m 1
 1300 200 l 1
 1300 0 l 1
 1100 0 l 1
 1100 200 l 1
300 200 m 1
 500 200 l 1
 500 0 l 1
 300 0 l 1
 300 200 l 1
EndSplineSet
EndChar

StartChar: uniE1A3
Encoding: 57763 57763 419
Width: 1400
VWidth: 0
Flags: HW
LayerCount: 2
Fore
SplineSet
1100 200 m 1
 1300 200 l 1
 1300 0 l 1
 1100 0 l 1
 1100 200 l 1
0 200 m 1
 500 200 l 1
 500 0 l 1
 0 0 l 1
 0 200 l 1
EndSplineSet
EndChar

StartChar: uniE1A4
Encoding: 57764 57764 420
Width: 1400
VWidth: 0
Flags: HW
LayerCount: 2
Fore
SplineSet
0 200 m 1
 100 200 l 1
 100 0 l 1
 0 0 l 1
 0 200 l 1
1100 200 m 1
 1300 200 l 1
 1300 0 l 1
 1100 0 l 1
 1100 200 l 1
500 200 m 1
 700 200 l 1
 700 0 l 1
 500 0 l 1
 500 200 l 1
EndSplineSet
EndChar

StartChar: uniE1A5
Encoding: 57765 57765 421
Width: 1400
VWidth: 0
Flags: HW
LayerCount: 2
Fore
SplineSet
1100 200 m 1
 1300 200 l 1
 1300 0 l 1
 1100 0 l 1
 1100 200 l 1
500 200 m 1
 700 200 l 1
 700 0 l 1
 500 0 l 1
 500 200 l 1
300 0 m 1
 0 0 l 1
 0 200 l 1
 300 200 l 1
 300 0 l 1
EndSplineSet
EndChar

StartChar: uniE1A6
Encoding: 57766 57766 422
Width: 1400
VWidth: 0
Flags: HW
LayerCount: 2
Fore
SplineSet
0 200 m 1
 100 200 l 1
 100 0 l 1
 0 0 l 1
 0 200 l 1
1100 200 m 1
 1300 200 l 1
 1300 0 l 1
 1100 0 l 1
 1100 200 l 1
700 0 m 1
 300 0 l 1
 300 200 l 1
 700 200 l 1
 700 0 l 1
EndSplineSet
EndChar

StartChar: uniE1A7
Encoding: 57767 57767 423
Width: 1400
VWidth: 0
Flags: HW
LayerCount: 2
Fore
SplineSet
1100 200 m 1
 1300 200 l 1
 1300 0 l 1
 1100 0 l 1
 1100 200 l 1
700 0 m 1
 0 0 l 1
 0 200 l 1
 700 200 l 1
 700 0 l 1
EndSplineSet
EndChar

StartChar: uniE1A8
Encoding: 57768 57768 424
Width: 1400
VWidth: 0
Flags: HW
LayerCount: 2
Fore
SplineSet
0 200 m 1
 100 200 l 1
 100 0 l 1
 0 0 l 1
 0 200 l 1
1100 200 m 1
 1300 200 l 1
 1300 0 l 1
 1100 0 l 1
 1100 200 l 1
700 200 m 1
 900 200 l 1
 900 0 l 1
 700 0 l 1
 700 200 l 1
EndSplineSet
EndChar

StartChar: uniE1A9
Encoding: 57769 57769 425
Width: 1400
VWidth: 0
Flags: HW
LayerCount: 2
Fore
SplineSet
1100 200 m 1
 1300 200 l 1
 1300 0 l 1
 1100 0 l 1
 1100 200 l 1
700 200 m 1
 900 200 l 1
 900 0 l 1
 700 0 l 1
 700 200 l 1
300 0 m 1
 0 0 l 1
 0 200 l 1
 300 200 l 1
 300 0 l 1
EndSplineSet
EndChar

StartChar: uniE1AA
Encoding: 57770 57770 426
Width: 1400
VWidth: 0
Flags: HW
LayerCount: 2
Fore
SplineSet
0 200 m 1
 100 200 l 1
 100 0 l 1
 0 0 l 1
 0 200 l 1
1100 200 m 1
 1300 200 l 1
 1300 0 l 1
 1100 0 l 1
 1100 200 l 1
700 200 m 1
 900 200 l 1
 900 0 l 1
 700 0 l 1
 700 200 l 1
300 200 m 1
 500 200 l 1
 500 0 l 1
 300 0 l 1
 300 200 l 1
EndSplineSet
EndChar

StartChar: uniE1AB
Encoding: 57771 57771 427
Width: 1400
VWidth: 0
Flags: HW
LayerCount: 2
Fore
SplineSet
1100 200 m 1
 1300 200 l 1
 1300 0 l 1
 1100 0 l 1
 1100 200 l 1
700 200 m 1
 900 200 l 1
 900 0 l 1
 700 0 l 1
 700 200 l 1
0 200 m 1
 500 200 l 1
 500 0 l 1
 0 0 l 1
 0 200 l 1
EndSplineSet
EndChar

StartChar: uniE1AC
Encoding: 57772 57772 428
Width: 1400
VWidth: 0
Flags: HW
LayerCount: 2
Fore
SplineSet
0 200 m 1
 100 200 l 1
 100 0 l 1
 0 0 l 1
 0 200 l 1
1100 200 m 1
 1300 200 l 1
 1300 0 l 1
 1100 0 l 1
 1100 200 l 1
900 0 m 1
 500 0 l 1
 500 200 l 1
 900 200 l 1
 900 0 l 1
EndSplineSet
EndChar

StartChar: uniE1AD
Encoding: 57773 57773 429
Width: 1400
VWidth: 0
Flags: HW
LayerCount: 2
Fore
SplineSet
1100 200 m 1
 1300 200 l 1
 1300 0 l 1
 1100 0 l 1
 1100 200 l 1
900 0 m 1
 500 0 l 1
 500 200 l 1
 900 200 l 1
 900 0 l 1
300 0 m 1
 0 0 l 1
 0 200 l 1
 300 200 l 1
 300 0 l 1
EndSplineSet
EndChar

StartChar: uniE1AE
Encoding: 57774 57774 430
Width: 1400
VWidth: 0
Flags: HW
LayerCount: 2
Fore
SplineSet
0 200 m 1
 100 200 l 1
 100 0 l 1
 0 0 l 1
 0 200 l 1
1100 200 m 1
 1300 200 l 1
 1300 0 l 1
 1100 0 l 1
 1100 200 l 1
300 200 m 1
 900 200 l 1
 900 0 l 1
 300 0 l 1
 300 200 l 1
EndSplineSet
EndChar

StartChar: uniE1AF
Encoding: 57775 57775 431
Width: 1400
VWidth: 0
Flags: HW
LayerCount: 2
Fore
SplineSet
1100 200 m 1
 1300 200 l 1
 1300 0 l 1
 1100 0 l 1
 1100 200 l 1
0 200 m 1
 900 200 l 1
 900 0 l 1
 0 0 l 1
 0 200 l 1
EndSplineSet
EndChar

StartChar: uniE1B0
Encoding: 57776 57776 432
Width: 1400
VWidth: 0
Flags: HW
LayerCount: 2
Fore
SplineSet
0 200 m 1
 100 200 l 1
 100 0 l 1
 0 0 l 1
 0 200 l 1
1300 0 m 1
 900 0 l 1
 900 200 l 1
 1300 200 l 1
 1300 0 l 1
EndSplineSet
EndChar

StartChar: uniE1B1
Encoding: 57777 57777 433
Width: 1400
VWidth: 0
Flags: HW
LayerCount: 2
Fore
SplineSet
1300 0 m 1
 900 0 l 1
 900 200 l 1
 1300 200 l 1
 1300 0 l 1
300 0 m 1
 0 0 l 1
 0 200 l 1
 300 200 l 1
 300 0 l 1
EndSplineSet
EndChar

StartChar: uniE1B2
Encoding: 57778 57778 434
Width: 1400
VWidth: 0
Flags: HW
LayerCount: 2
Fore
SplineSet
0 200 m 1
 100 200 l 1
 100 0 l 1
 0 0 l 1
 0 200 l 1
300 200 m 1
 500 200 l 1
 500 0 l 1
 300 0 l 1
 300 200 l 1
1300 0 m 1
 900 0 l 1
 900 200 l 1
 1300 200 l 1
 1300 0 l 1
EndSplineSet
EndChar

StartChar: uniE1B3
Encoding: 57779 57779 435
Width: 1400
VWidth: 0
Flags: HW
LayerCount: 2
Fore
SplineSet
1300 0 m 1
 900 0 l 1
 900 200 l 1
 1300 200 l 1
 1300 0 l 1
0 200 m 1
 500 200 l 1
 500 0 l 1
 0 0 l 1
 0 200 l 1
EndSplineSet
EndChar

StartChar: uniE1B4
Encoding: 57780 57780 436
Width: 1400
VWidth: 0
Flags: HW
LayerCount: 2
Fore
SplineSet
0 200 m 1
 100 200 l 1
 100 0 l 1
 0 0 l 1
 0 200 l 1
500 200 m 1
 700 200 l 1
 700 0 l 1
 500 0 l 1
 500 200 l 1
1300 0 m 1
 900 0 l 1
 900 200 l 1
 1300 200 l 1
 1300 0 l 1
EndSplineSet
EndChar

StartChar: uniE1B5
Encoding: 57781 57781 437
Width: 1400
VWidth: 0
Flags: HW
LayerCount: 2
Fore
SplineSet
500 200 m 1
 700 200 l 1
 700 0 l 1
 500 0 l 1
 500 200 l 1
1300 0 m 1
 900 0 l 1
 900 200 l 1
 1300 200 l 1
 1300 0 l 1
300 0 m 1
 0 0 l 1
 0 200 l 1
 300 200 l 1
 300 0 l 1
EndSplineSet
EndChar

StartChar: uniE1B6
Encoding: 57782 57782 438
Width: 1400
VWidth: 0
Flags: HW
LayerCount: 2
Fore
SplineSet
0 200 m 1
 100 200 l 1
 100 0 l 1
 0 0 l 1
 0 200 l 1
700 0 m 1
 300 0 l 1
 300 200 l 1
 700 200 l 1
 700 0 l 1
1300 0 m 1
 900 0 l 1
 900 200 l 1
 1300 200 l 1
 1300 0 l 1
EndSplineSet
EndChar

StartChar: uniE1B7
Encoding: 57783 57783 439
Width: 1400
VWidth: 0
Flags: HW
LayerCount: 2
Fore
SplineSet
1300 0 m 1
 900 0 l 1
 900 200 l 1
 1300 200 l 1
 1300 0 l 1
700 0 m 1
 0 0 l 1
 0 200 l 1
 700 200 l 1
 700 0 l 1
EndSplineSet
EndChar

StartChar: uniE1B8
Encoding: 57784 57784 440
Width: 1400
VWidth: 0
Flags: HW
LayerCount: 2
Fore
SplineSet
0 200 m 1
 100 200 l 1
 100 0 l 1
 0 0 l 1
 0 200 l 1
700 200 m 1
 1300 200 l 1
 1300 0 l 1
 700 0 l 1
 700 200 l 1
EndSplineSet
EndChar

StartChar: uniE1B9
Encoding: 57785 57785 441
Width: 1400
VWidth: 0
Flags: HW
LayerCount: 2
Fore
SplineSet
700 200 m 1
 1300 200 l 1
 1300 0 l 1
 700 0 l 1
 700 200 l 1
300 0 m 1
 0 0 l 1
 0 200 l 1
 300 200 l 1
 300 0 l 1
EndSplineSet
EndChar

StartChar: uniE1BA
Encoding: 57786 57786 442
Width: 1400
VWidth: 0
Flags: HW
LayerCount: 2
Fore
SplineSet
0 200 m 1
 100 200 l 1
 100 0 l 1
 0 0 l 1
 0 200 l 1
300 200 m 1
 500 200 l 1
 500 0 l 1
 300 0 l 1
 300 200 l 1
700 200 m 1
 1300 200 l 1
 1300 0 l 1
 700 0 l 1
 700 200 l 1
EndSplineSet
EndChar

StartChar: uniE1BB
Encoding: 57787 57787 443
Width: 1400
VWidth: 0
Flags: HW
LayerCount: 2
Fore
SplineSet
700 200 m 1
 1300 200 l 1
 1300 0 l 1
 700 0 l 1
 700 200 l 1
0 200 m 1
 500 200 l 1
 500 0 l 1
 0 0 l 1
 0 200 l 1
EndSplineSet
EndChar

StartChar: uniE1BC
Encoding: 57788 57788 444
Width: 1400
VWidth: 0
Flags: HW
LayerCount: 2
Fore
SplineSet
0 200 m 1
 100 200 l 1
 100 0 l 1
 0 0 l 1
 0 200 l 1
500 200 m 1
 1300 200 l 1
 1300 0 l 1
 500 0 l 1
 500 200 l 1
EndSplineSet
EndChar

StartChar: uniE1BD
Encoding: 57789 57789 445
Width: 1400
VWidth: 0
Flags: HW
LayerCount: 2
Fore
SplineSet
500 200 m 1
 1300 200 l 1
 1300 0 l 1
 500 0 l 1
 500 200 l 1
300 0 m 1
 0 0 l 1
 0 200 l 1
 300 200 l 1
 300 0 l 1
EndSplineSet
EndChar

StartChar: uniE1BE
Encoding: 57790 57790 446
Width: 1400
VWidth: 0
Flags: HW
LayerCount: 2
Fore
SplineSet
0 200 m 1
 100 200 l 1
 100 0 l 1
 0 0 l 1
 0 200 l 1
300 200 m 1
 1300 200 l 1
 1300 0 l 1
 300 0 l 1
 300 200 l 1
EndSplineSet
EndChar

StartChar: uniE1BF
Encoding: 57791 57791 447
Width: 1400
VWidth: 0
Flags: HW
LayerCount: 2
Fore
SplineSet
1300 0 m 1
 0 0 l 1
 0 200 l 1
 1300 200 l 1
 1300 0 l 1
EndSplineSet
EndChar

StartChar: uniE1C0
Encoding: 57792 57792 448
Width: 1400
VWidth: 0
Flags: HW
LayerCount: 2
Fore
SplineSet
0 200 m 1
 100 200 l 1
 100 0 l 1
 0 0 l 1
 0 200 l 1
1300 200 m 1
 1400 200 l 1
 1400 0 l 1
 1300 0 l 1
 1300 200 l 1
EndSplineSet
EndChar

StartChar: uniE1C1
Encoding: 57793 57793 449
Width: 1400
VWidth: 0
Flags: HW
LayerCount: 2
Fore
SplineSet
1300 200 m 1
 1400 200 l 1
 1400 0 l 1
 1300 0 l 1
 1300 200 l 1
300 0 m 1
 0 0 l 1
 0 200 l 1
 300 200 l 1
 300 0 l 1
EndSplineSet
EndChar

StartChar: uniE1C2
Encoding: 57794 57794 450
Width: 1400
VWidth: 0
Flags: HW
LayerCount: 2
Fore
SplineSet
0 200 m 1
 100 200 l 1
 100 0 l 1
 0 0 l 1
 0 200 l 1
300 200 m 1
 500 200 l 1
 500 0 l 1
 300 0 l 1
 300 200 l 1
1300 200 m 1
 1400 200 l 1
 1400 0 l 1
 1300 0 l 1
 1300 200 l 1
EndSplineSet
EndChar

StartChar: uniE1C3
Encoding: 57795 57795 451
Width: 1400
VWidth: 0
Flags: HW
LayerCount: 2
Fore
SplineSet
1300 200 m 1
 1400 200 l 1
 1400 0 l 1
 1300 0 l 1
 1300 200 l 1
0 200 m 1
 500 200 l 1
 500 0 l 1
 0 0 l 1
 0 200 l 1
EndSplineSet
EndChar

StartChar: uniE1C4
Encoding: 57796 57796 452
Width: 1400
VWidth: 0
Flags: HW
LayerCount: 2
Fore
SplineSet
0 200 m 1
 100 200 l 1
 100 0 l 1
 0 0 l 1
 0 200 l 1
500 200 m 1
 700 200 l 1
 700 0 l 1
 500 0 l 1
 500 200 l 1
1300 200 m 1
 1400 200 l 1
 1400 0 l 1
 1300 0 l 1
 1300 200 l 1
EndSplineSet
EndChar

StartChar: uniE1C5
Encoding: 57797 57797 453
Width: 1400
VWidth: 0
Flags: HW
LayerCount: 2
Fore
SplineSet
500 200 m 1
 700 200 l 1
 700 0 l 1
 500 0 l 1
 500 200 l 1
1300 200 m 1
 1400 200 l 1
 1400 0 l 1
 1300 0 l 1
 1300 200 l 1
300 0 m 1
 0 0 l 1
 0 200 l 1
 300 200 l 1
 300 0 l 1
EndSplineSet
EndChar

StartChar: uniE1C6
Encoding: 57798 57798 454
Width: 1400
VWidth: 0
Flags: HW
LayerCount: 2
Fore
SplineSet
0 200 m 1
 100 200 l 1
 100 0 l 1
 0 0 l 1
 0 200 l 1
700 0 m 1
 300 0 l 1
 300 200 l 1
 700 200 l 1
 700 0 l 1
1300 200 m 1
 1400 200 l 1
 1400 0 l 1
 1300 0 l 1
 1300 200 l 1
EndSplineSet
EndChar

StartChar: uniE1C7
Encoding: 57799 57799 455
Width: 1400
VWidth: 0
Flags: HW
LayerCount: 2
Fore
SplineSet
1300 200 m 1
 1400 200 l 1
 1400 0 l 1
 1300 0 l 1
 1300 200 l 1
700 0 m 1
 0 0 l 1
 0 200 l 1
 700 200 l 1
 700 0 l 1
EndSplineSet
EndChar

StartChar: uniE1C8
Encoding: 57800 57800 456
Width: 1400
VWidth: 0
Flags: HW
LayerCount: 2
Fore
SplineSet
0 200 m 1
 100 200 l 1
 100 0 l 1
 0 0 l 1
 0 200 l 1
700 200 m 1
 900 200 l 1
 900 0 l 1
 700 0 l 1
 700 200 l 1
1300 200 m 1
 1400 200 l 1
 1400 0 l 1
 1300 0 l 1
 1300 200 l 1
EndSplineSet
EndChar

StartChar: uniE1C9
Encoding: 57801 57801 457
Width: 1400
VWidth: 0
Flags: HW
LayerCount: 2
Fore
SplineSet
700 200 m 1
 900 200 l 1
 900 0 l 1
 700 0 l 1
 700 200 l 1
1300 200 m 1
 1400 200 l 1
 1400 0 l 1
 1300 0 l 1
 1300 200 l 1
300 0 m 1
 0 0 l 1
 0 200 l 1
 300 200 l 1
 300 0 l 1
EndSplineSet
EndChar

StartChar: uniE1CA
Encoding: 57802 57802 458
Width: 1400
VWidth: 0
Flags: HW
LayerCount: 2
Fore
SplineSet
0 200 m 1
 100 200 l 1
 100 0 l 1
 0 0 l 1
 0 200 l 1
700 200 m 1
 900 200 l 1
 900 0 l 1
 700 0 l 1
 700 200 l 1
300 200 m 1
 500 200 l 1
 500 0 l 1
 300 0 l 1
 300 200 l 1
1300 200 m 1
 1400 200 l 1
 1400 0 l 1
 1300 0 l 1
 1300 200 l 1
EndSplineSet
EndChar

StartChar: uniE1CB
Encoding: 57803 57803 459
Width: 1400
VWidth: 0
Flags: HW
LayerCount: 2
Fore
SplineSet
700 200 m 1
 900 200 l 1
 900 0 l 1
 700 0 l 1
 700 200 l 1
1300 200 m 1
 1400 200 l 1
 1400 0 l 1
 1300 0 l 1
 1300 200 l 1
0 200 m 1
 500 200 l 1
 500 0 l 1
 0 0 l 1
 0 200 l 1
EndSplineSet
EndChar

StartChar: uniE1CC
Encoding: 57804 57804 460
Width: 1400
VWidth: 0
Flags: HW
LayerCount: 2
Fore
SplineSet
0 200 m 1
 100 200 l 1
 100 0 l 1
 0 0 l 1
 0 200 l 1
900 0 m 1
 500 0 l 1
 500 200 l 1
 900 200 l 1
 900 0 l 1
1300 200 m 1
 1400 200 l 1
 1400 0 l 1
 1300 0 l 1
 1300 200 l 1
EndSplineSet
EndChar

StartChar: uniE1CD
Encoding: 57805 57805 461
Width: 1400
VWidth: 0
Flags: HW
LayerCount: 2
Fore
SplineSet
900 0 m 1
 500 0 l 1
 500 200 l 1
 900 200 l 1
 900 0 l 1
1300 200 m 1
 1400 200 l 1
 1400 0 l 1
 1300 0 l 1
 1300 200 l 1
300 0 m 1
 0 0 l 1
 0 200 l 1
 300 200 l 1
 300 0 l 1
EndSplineSet
EndChar

StartChar: uniE1CE
Encoding: 57806 57806 462
Width: 1400
VWidth: 0
Flags: HW
LayerCount: 2
Fore
SplineSet
0 200 m 1
 100 200 l 1
 100 0 l 1
 0 0 l 1
 0 200 l 1
300 200 m 1
 900 200 l 1
 900 0 l 1
 300 0 l 1
 300 200 l 1
1300 200 m 1
 1400 200 l 1
 1400 0 l 1
 1300 0 l 1
 1300 200 l 1
EndSplineSet
EndChar

StartChar: uniE1CF
Encoding: 57807 57807 463
Width: 1400
VWidth: 0
Flags: HW
LayerCount: 2
Fore
SplineSet
1300 200 m 1
 1400 200 l 1
 1400 0 l 1
 1300 0 l 1
 1300 200 l 1
0 200 m 1
 900 200 l 1
 900 0 l 1
 0 0 l 1
 0 200 l 1
EndSplineSet
EndChar

StartChar: uniE1D0
Encoding: 57808 57808 464
Width: 1400
VWidth: 0
Flags: HW
LayerCount: 2
Fore
SplineSet
0 200 m 1
 100 200 l 1
 100 0 l 1
 0 0 l 1
 0 200 l 1
900 200 m 1
 1100 200 l 1
 1100 0 l 1
 900 0 l 1
 900 200 l 1
1300 200 m 1
 1400 200 l 1
 1400 0 l 1
 1300 0 l 1
 1300 200 l 1
EndSplineSet
EndChar

StartChar: uniE1D1
Encoding: 57809 57809 465
Width: 1400
VWidth: 0
Flags: HW
LayerCount: 2
Fore
SplineSet
900 200 m 1
 1100 200 l 1
 1100 0 l 1
 900 0 l 1
 900 200 l 1
1300 200 m 1
 1400 200 l 1
 1400 0 l 1
 1300 0 l 1
 1300 200 l 1
300 0 m 1
 0 0 l 1
 0 200 l 1
 300 200 l 1
 300 0 l 1
EndSplineSet
EndChar

StartChar: uniE1D2
Encoding: 57810 57810 466
Width: 1400
VWidth: 0
Flags: HW
LayerCount: 2
Fore
SplineSet
0 200 m 1
 100 200 l 1
 100 0 l 1
 0 0 l 1
 0 200 l 1
300 200 m 1
 500 200 l 1
 500 0 l 1
 300 0 l 1
 300 200 l 1
900 200 m 1
 1100 200 l 1
 1100 0 l 1
 900 0 l 1
 900 200 l 1
1300 200 m 1
 1400 200 l 1
 1400 0 l 1
 1300 0 l 1
 1300 200 l 1
EndSplineSet
EndChar

StartChar: uniE1D3
Encoding: 57811 57811 467
Width: 1400
VWidth: 0
Flags: HW
LayerCount: 2
Fore
SplineSet
900 200 m 1
 1100 200 l 1
 1100 0 l 1
 900 0 l 1
 900 200 l 1
1300 200 m 1
 1400 200 l 1
 1400 0 l 1
 1300 0 l 1
 1300 200 l 1
0 200 m 1
 500 200 l 1
 500 0 l 1
 0 0 l 1
 0 200 l 1
EndSplineSet
EndChar

StartChar: uniE1D4
Encoding: 57812 57812 468
Width: 1400
VWidth: 0
Flags: HW
LayerCount: 2
Fore
SplineSet
0 200 m 1
 100 200 l 1
 100 0 l 1
 0 0 l 1
 0 200 l 1
500 200 m 1
 700 200 l 1
 700 0 l 1
 500 0 l 1
 500 200 l 1
900 200 m 1
 1100 200 l 1
 1100 0 l 1
 900 0 l 1
 900 200 l 1
1300 200 m 1
 1400 200 l 1
 1400 0 l 1
 1300 0 l 1
 1300 200 l 1
EndSplineSet
EndChar

StartChar: uniE1D5
Encoding: 57813 57813 469
Width: 1400
VWidth: 0
Flags: HW
LayerCount: 2
Fore
SplineSet
500 200 m 1
 700 200 l 1
 700 0 l 1
 500 0 l 1
 500 200 l 1
900 200 m 1
 1100 200 l 1
 1100 0 l 1
 900 0 l 1
 900 200 l 1
1300 200 m 1
 1400 200 l 1
 1400 0 l 1
 1300 0 l 1
 1300 200 l 1
300 0 m 1
 0 0 l 1
 0 200 l 1
 300 200 l 1
 300 0 l 1
EndSplineSet
EndChar

StartChar: uniE1D6
Encoding: 57814 57814 470
Width: 1400
VWidth: 0
Flags: HW
LayerCount: 2
Fore
SplineSet
0 200 m 1
 100 200 l 1
 100 0 l 1
 0 0 l 1
 0 200 l 1
700 0 m 1
 300 0 l 1
 300 200 l 1
 700 200 l 1
 700 0 l 1
900 200 m 1
 1100 200 l 1
 1100 0 l 1
 900 0 l 1
 900 200 l 1
1300 200 m 1
 1400 200 l 1
 1400 0 l 1
 1300 0 l 1
 1300 200 l 1
EndSplineSet
EndChar

StartChar: uniE1D7
Encoding: 57815 57815 471
Width: 1400
VWidth: 0
Flags: HW
LayerCount: 2
Fore
SplineSet
900 200 m 1
 1100 200 l 1
 1100 0 l 1
 900 0 l 1
 900 200 l 1
1300 200 m 1
 1400 200 l 1
 1400 0 l 1
 1300 0 l 1
 1300 200 l 1
700 0 m 1
 0 0 l 1
 0 200 l 1
 700 200 l 1
 700 0 l 1
EndSplineSet
EndChar

StartChar: uniE1D8
Encoding: 57816 57816 472
Width: 1400
VWidth: 0
Flags: HW
LayerCount: 2
Fore
SplineSet
0 200 m 1
 100 200 l 1
 100 0 l 1
 0 0 l 1
 0 200 l 1
1100 0 m 1
 700 0 l 1
 700 200 l 1
 1100 200 l 1
 1100 0 l 1
1300 200 m 1
 1400 200 l 1
 1400 0 l 1
 1300 0 l 1
 1300 200 l 1
EndSplineSet
EndChar

StartChar: uniE1D9
Encoding: 57817 57817 473
Width: 1400
VWidth: 0
Flags: HW
LayerCount: 2
Fore
SplineSet
1100 0 m 1
 700 0 l 1
 700 200 l 1
 1100 200 l 1
 1100 0 l 1
1300 200 m 1
 1400 200 l 1
 1400 0 l 1
 1300 0 l 1
 1300 200 l 1
300 0 m 1
 0 0 l 1
 0 200 l 1
 300 200 l 1
 300 0 l 1
EndSplineSet
EndChar

StartChar: uniE1DA
Encoding: 57818 57818 474
Width: 1400
VWidth: 0
Flags: HW
LayerCount: 2
Fore
SplineSet
0 200 m 1
 100 200 l 1
 100 0 l 1
 0 0 l 1
 0 200 l 1
1100 0 m 1
 700 0 l 1
 700 200 l 1
 1100 200 l 1
 1100 0 l 1
300 200 m 1
 500 200 l 1
 500 0 l 1
 300 0 l 1
 300 200 l 1
1300 200 m 1
 1400 200 l 1
 1400 0 l 1
 1300 0 l 1
 1300 200 l 1
EndSplineSet
EndChar

StartChar: uniE1DB
Encoding: 57819 57819 475
Width: 1400
VWidth: 0
Flags: HW
LayerCount: 2
Fore
SplineSet
1100 0 m 1
 700 0 l 1
 700 200 l 1
 1100 200 l 1
 1100 0 l 1
1300 200 m 1
 1400 200 l 1
 1400 0 l 1
 1300 0 l 1
 1300 200 l 1
0 200 m 1
 500 200 l 1
 500 0 l 1
 0 0 l 1
 0 200 l 1
EndSplineSet
EndChar

StartChar: uniE1DC
Encoding: 57820 57820 476
Width: 1400
VWidth: 0
Flags: HW
LayerCount: 2
Fore
SplineSet
0 200 m 1
 100 200 l 1
 100 0 l 1
 0 0 l 1
 0 200 l 1
1100 0 m 1
 500 0 l 1
 500 200 l 1
 1100 200 l 1
 1100 0 l 1
1300 200 m 1
 1400 200 l 1
 1400 0 l 1
 1300 0 l 1
 1300 200 l 1
EndSplineSet
EndChar

StartChar: uniE1DD
Encoding: 57821 57821 477
Width: 1400
VWidth: 0
Flags: HW
LayerCount: 2
Fore
SplineSet
1100 0 m 1
 500 0 l 1
 500 200 l 1
 1100 200 l 1
 1100 0 l 1
1300 200 m 1
 1400 200 l 1
 1400 0 l 1
 1300 0 l 1
 1300 200 l 1
300 0 m 1
 0 0 l 1
 0 200 l 1
 300 200 l 1
 300 0 l 1
EndSplineSet
EndChar

StartChar: uniE1DE
Encoding: 57822 57822 478
Width: 1400
VWidth: 0
Flags: HW
LayerCount: 2
Fore
SplineSet
0 200 m 1
 100 200 l 1
 100 0 l 1
 0 0 l 1
 0 200 l 1
1100 0 m 1
 300 0 l 1
 300 200 l 1
 1100 200 l 1
 1100 0 l 1
1300 200 m 1
 1400 200 l 1
 1400 0 l 1
 1300 0 l 1
 1300 200 l 1
EndSplineSet
EndChar

StartChar: uniE1DF
Encoding: 57823 57823 479
Width: 1400
VWidth: 0
Flags: HW
LayerCount: 2
Fore
SplineSet
1300 200 m 1
 1400 200 l 1
 1400 0 l 1
 1300 0 l 1
 1300 200 l 1
0 200 m 1
 1100 200 l 1
 1100 0 l 1
 0 0 l 1
 0 200 l 1
EndSplineSet
EndChar

StartChar: uniE1E0
Encoding: 57824 57824 480
Width: 1400
VWidth: 0
Flags: HW
LayerCount: 2
Fore
SplineSet
0 200 m 1
 100 200 l 1
 100 0 l 1
 0 0 l 1
 0 200 l 1
1400 0 m 1
 1100 0 l 1
 1100 200 l 1
 1400 200 l 1
 1400 0 l 1
EndSplineSet
EndChar

StartChar: uniE1E1
Encoding: 57825 57825 481
Width: 1400
VWidth: 0
Flags: HW
LayerCount: 2
Fore
SplineSet
1400 0 m 1
 1100 0 l 1
 1100 200 l 1
 1400 200 l 1
 1400 0 l 1
300 0 m 1
 0 0 l 1
 0 200 l 1
 300 200 l 1
 300 0 l 1
EndSplineSet
EndChar

StartChar: uniE1E2
Encoding: 57826 57826 482
Width: 1400
VWidth: 0
Flags: HW
LayerCount: 2
Fore
SplineSet
0 200 m 1
 100 200 l 1
 100 0 l 1
 0 0 l 1
 0 200 l 1
1400 0 m 1
 1100 0 l 1
 1100 200 l 1
 1400 200 l 1
 1400 0 l 1
300 200 m 1
 500 200 l 1
 500 0 l 1
 300 0 l 1
 300 200 l 1
EndSplineSet
EndChar

StartChar: uniE1E3
Encoding: 57827 57827 483
Width: 1400
VWidth: 0
Flags: HW
LayerCount: 2
Fore
SplineSet
1400 0 m 1
 1100 0 l 1
 1100 200 l 1
 1400 200 l 1
 1400 0 l 1
0 200 m 1
 500 200 l 1
 500 0 l 1
 0 0 l 1
 0 200 l 1
EndSplineSet
EndChar

StartChar: uniE1E4
Encoding: 57828 57828 484
Width: 1400
VWidth: 0
Flags: HW
LayerCount: 2
Fore
SplineSet
0 200 m 1
 100 200 l 1
 100 0 l 1
 0 0 l 1
 0 200 l 1
1400 0 m 1
 1100 0 l 1
 1100 200 l 1
 1400 200 l 1
 1400 0 l 1
500 200 m 1
 700 200 l 1
 700 0 l 1
 500 0 l 1
 500 200 l 1
EndSplineSet
EndChar

StartChar: uniE1E5
Encoding: 57829 57829 485
Width: 1400
VWidth: 0
Flags: HW
LayerCount: 2
Fore
SplineSet
1400 0 m 1
 1100 0 l 1
 1100 200 l 1
 1400 200 l 1
 1400 0 l 1
500 200 m 1
 700 200 l 1
 700 0 l 1
 500 0 l 1
 500 200 l 1
300 0 m 1
 0 0 l 1
 0 200 l 1
 300 200 l 1
 300 0 l 1
EndSplineSet
EndChar

StartChar: uniE1E6
Encoding: 57830 57830 486
Width: 1400
VWidth: 0
Flags: HW
LayerCount: 2
Fore
SplineSet
0 200 m 1
 100 200 l 1
 100 0 l 1
 0 0 l 1
 0 200 l 1
1400 0 m 1
 1100 0 l 1
 1100 200 l 1
 1400 200 l 1
 1400 0 l 1
700 0 m 1
 300 0 l 1
 300 200 l 1
 700 200 l 1
 700 0 l 1
EndSplineSet
EndChar

StartChar: uniE1E7
Encoding: 57831 57831 487
Width: 1400
VWidth: 0
Flags: HW
LayerCount: 2
Fore
SplineSet
1400 0 m 1
 1100 0 l 1
 1100 200 l 1
 1400 200 l 1
 1400 0 l 1
700 0 m 1
 0 0 l 1
 0 200 l 1
 700 200 l 1
 700 0 l 1
EndSplineSet
EndChar

StartChar: uniE1E8
Encoding: 57832 57832 488
Width: 1400
VWidth: 0
Flags: HW
LayerCount: 2
Fore
SplineSet
0 200 m 1
 100 200 l 1
 100 0 l 1
 0 0 l 1
 0 200 l 1
1400 0 m 1
 1100 0 l 1
 1100 200 l 1
 1400 200 l 1
 1400 0 l 1
700 200 m 1
 900 200 l 1
 900 0 l 1
 700 0 l 1
 700 200 l 1
EndSplineSet
EndChar

StartChar: uniE1E9
Encoding: 57833 57833 489
Width: 1400
VWidth: 0
Flags: HW
LayerCount: 2
Fore
SplineSet
1400 0 m 1
 1100 0 l 1
 1100 200 l 1
 1400 200 l 1
 1400 0 l 1
700 200 m 1
 900 200 l 1
 900 0 l 1
 700 0 l 1
 700 200 l 1
300 0 m 1
 0 0 l 1
 0 200 l 1
 300 200 l 1
 300 0 l 1
EndSplineSet
EndChar

StartChar: uniE1EA
Encoding: 57834 57834 490
Width: 1400
VWidth: 0
Flags: HW
LayerCount: 2
Fore
SplineSet
0 200 m 1
 100 200 l 1
 100 0 l 1
 0 0 l 1
 0 200 l 1
1400 0 m 1
 1100 0 l 1
 1100 200 l 1
 1400 200 l 1
 1400 0 l 1
300 200 m 1
 500 200 l 1
 500 0 l 1
 300 0 l 1
 300 200 l 1
700 200 m 1
 900 200 l 1
 900 0 l 1
 700 0 l 1
 700 200 l 1
EndSplineSet
EndChar

StartChar: uniE1EB
Encoding: 57835 57835 491
Width: 1400
VWidth: 0
Flags: HW
LayerCount: 2
Fore
SplineSet
1400 0 m 1
 1100 0 l 1
 1100 200 l 1
 1400 200 l 1
 1400 0 l 1
700 200 m 1
 900 200 l 1
 900 0 l 1
 700 0 l 1
 700 200 l 1
0 200 m 1
 500 200 l 1
 500 0 l 1
 0 0 l 1
 0 200 l 1
EndSplineSet
EndChar

StartChar: uniE1EC
Encoding: 57836 57836 492
Width: 1400
VWidth: 0
Flags: HW
LayerCount: 2
Fore
SplineSet
0 200 m 1
 100 200 l 1
 100 0 l 1
 0 0 l 1
 0 200 l 1
1400 0 m 1
 1100 0 l 1
 1100 200 l 1
 1400 200 l 1
 1400 0 l 1
900 0 m 1
 500 0 l 1
 500 200 l 1
 900 200 l 1
 900 0 l 1
EndSplineSet
EndChar

StartChar: uniE1ED
Encoding: 57837 57837 493
Width: 1400
VWidth: 0
Flags: HW
LayerCount: 2
Fore
SplineSet
1400 0 m 1
 1100 0 l 1
 1100 200 l 1
 1400 200 l 1
 1400 0 l 1
900 0 m 1
 500 0 l 1
 500 200 l 1
 900 200 l 1
 900 0 l 1
300 0 m 1
 0 0 l 1
 0 200 l 1
 300 200 l 1
 300 0 l 1
EndSplineSet
EndChar

StartChar: uniE1EE
Encoding: 57838 57838 494
Width: 1400
VWidth: 0
Flags: HW
LayerCount: 2
Fore
SplineSet
0 200 m 1
 100 200 l 1
 100 0 l 1
 0 0 l 1
 0 200 l 1
1400 0 m 1
 1100 0 l 1
 1100 200 l 1
 1400 200 l 1
 1400 0 l 1
300 200 m 1
 900 200 l 1
 900 0 l 1
 300 0 l 1
 300 200 l 1
EndSplineSet
EndChar

StartChar: uniE1EF
Encoding: 57839 57839 495
Width: 1400
VWidth: 0
Flags: HW
LayerCount: 2
Fore
SplineSet
1400 0 m 1
 1100 0 l 1
 1100 200 l 1
 1400 200 l 1
 1400 0 l 1
0 200 m 1
 900 200 l 1
 900 0 l 1
 0 0 l 1
 0 200 l 1
EndSplineSet
EndChar

StartChar: uniE1F0
Encoding: 57840 57840 496
Width: 1400
VWidth: 0
Flags: HW
LayerCount: 2
Fore
SplineSet
0 200 m 1
 100 200 l 1
 100 0 l 1
 0 0 l 1
 0 200 l 1
900 200 m 1
 1400 200 l 1
 1400 0 l 1
 900 0 l 1
 900 200 l 1
EndSplineSet
EndChar

StartChar: uniE1F1
Encoding: 57841 57841 497
Width: 1400
VWidth: 0
Flags: HW
LayerCount: 2
Fore
SplineSet
900 200 m 1
 1400 200 l 1
 1400 0 l 1
 900 0 l 1
 900 200 l 1
300 0 m 1
 0 0 l 1
 0 200 l 1
 300 200 l 1
 300 0 l 1
EndSplineSet
EndChar

StartChar: uniE1F2
Encoding: 57842 57842 498
Width: 1400
VWidth: 0
Flags: HW
LayerCount: 2
Fore
SplineSet
0 200 m 1
 100 200 l 1
 100 0 l 1
 0 0 l 1
 0 200 l 1
900 200 m 1
 1400 200 l 1
 1400 0 l 1
 900 0 l 1
 900 200 l 1
300 200 m 1
 500 200 l 1
 500 0 l 1
 300 0 l 1
 300 200 l 1
EndSplineSet
EndChar

StartChar: uniE1F3
Encoding: 57843 57843 499
Width: 1400
VWidth: 0
Flags: HW
LayerCount: 2
Fore
SplineSet
900 200 m 1
 1400 200 l 1
 1400 0 l 1
 900 0 l 1
 900 200 l 1
0 200 m 1
 500 200 l 1
 500 0 l 1
 0 0 l 1
 0 200 l 1
EndSplineSet
EndChar

StartChar: uniE1F4
Encoding: 57844 57844 500
Width: 1400
VWidth: 0
Flags: HW
LayerCount: 2
Fore
SplineSet
0 200 m 1
 100 200 l 1
 100 0 l 1
 0 0 l 1
 0 200 l 1
900 200 m 1
 1400 200 l 1
 1400 0 l 1
 900 0 l 1
 900 200 l 1
500 200 m 1
 700 200 l 1
 700 0 l 1
 500 0 l 1
 500 200 l 1
EndSplineSet
EndChar

StartChar: uniE1F5
Encoding: 57845 57845 501
Width: 1400
VWidth: 0
Flags: HW
LayerCount: 2
Fore
SplineSet
900 200 m 1
 1400 200 l 1
 1400 0 l 1
 900 0 l 1
 900 200 l 1
500 200 m 1
 700 200 l 1
 700 0 l 1
 500 0 l 1
 500 200 l 1
300 0 m 1
 0 0 l 1
 0 200 l 1
 300 200 l 1
 300 0 l 1
EndSplineSet
EndChar

StartChar: uniE1F6
Encoding: 57846 57846 502
Width: 1400
VWidth: 0
Flags: HW
LayerCount: 2
Fore
SplineSet
0 200 m 1
 100 200 l 1
 100 0 l 1
 0 0 l 1
 0 200 l 1
900 200 m 1
 1400 200 l 1
 1400 0 l 1
 900 0 l 1
 900 200 l 1
700 0 m 1
 300 0 l 1
 300 200 l 1
 700 200 l 1
 700 0 l 1
EndSplineSet
EndChar

StartChar: uniE1F7
Encoding: 57847 57847 503
Width: 1400
VWidth: 0
Flags: HW
LayerCount: 2
Fore
SplineSet
900 200 m 1
 1400 200 l 1
 1400 0 l 1
 900 0 l 1
 900 200 l 1
700 0 m 1
 0 0 l 1
 0 200 l 1
 700 200 l 1
 700 0 l 1
EndSplineSet
EndChar

StartChar: uniE1F8
Encoding: 57848 57848 504
Width: 1400
VWidth: 0
Flags: HW
LayerCount: 2
Fore
SplineSet
0 200 m 1
 100 200 l 1
 100 0 l 1
 0 0 l 1
 0 200 l 1
1400 0 m 1
 700 0 l 1
 700 200 l 1
 1400 200 l 1
 1400 0 l 1
EndSplineSet
EndChar

StartChar: uniE1F9
Encoding: 57849 57849 505
Width: 1400
VWidth: 0
Flags: HW
LayerCount: 2
Fore
SplineSet
1400 0 m 1
 700 0 l 1
 700 200 l 1
 1400 200 l 1
 1400 0 l 1
300 0 m 1
 0 0 l 1
 0 200 l 1
 300 200 l 1
 300 0 l 1
EndSplineSet
EndChar

StartChar: uniE1FA
Encoding: 57850 57850 506
Width: 1400
VWidth: 0
Flags: HW
LayerCount: 2
Fore
SplineSet
0 200 m 1
 100 200 l 1
 100 0 l 1
 0 0 l 1
 0 200 l 1
1400 0 m 1
 700 0 l 1
 700 200 l 1
 1400 200 l 1
 1400 0 l 1
300 200 m 1
 500 200 l 1
 500 0 l 1
 300 0 l 1
 300 200 l 1
EndSplineSet
EndChar

StartChar: uniE1FB
Encoding: 57851 57851 507
Width: 1400
VWidth: 0
Flags: HW
LayerCount: 2
Fore
SplineSet
1400 0 m 1
 700 0 l 1
 700 200 l 1
 1400 200 l 1
 1400 0 l 1
0 200 m 1
 500 200 l 1
 500 0 l 1
 0 0 l 1
 0 200 l 1
EndSplineSet
EndChar

StartChar: uniE1FC
Encoding: 57852 57852 508
Width: 1400
VWidth: 0
Flags: HW
LayerCount: 2
Fore
SplineSet
0 200 m 1
 100 200 l 1
 100 0 l 1
 0 0 l 1
 0 200 l 1
1400 0 m 1
 500 0 l 1
 500 200 l 1
 1400 200 l 1
 1400 0 l 1
EndSplineSet
EndChar

StartChar: uniE1FD
Encoding: 57853 57853 509
Width: 1400
VWidth: 0
Flags: HW
LayerCount: 2
Fore
SplineSet
1400 0 m 1
 500 0 l 1
 500 200 l 1
 1400 200 l 1
 1400 0 l 1
300 0 m 1
 0 0 l 1
 0 200 l 1
 300 200 l 1
 300 0 l 1
EndSplineSet
EndChar

StartChar: uniE1FE
Encoding: 57854 57854 510
Width: 1400
VWidth: 0
Flags: HW
LayerCount: 2
Fore
SplineSet
0 200 m 1
 100 200 l 1
 100 0 l 1
 0 0 l 1
 0 200 l 1
1400 0 m 1
 300 0 l 1
 300 200 l 1
 1400 200 l 1
 1400 0 l 1
EndSplineSet
EndChar

StartChar: uniE1FF
Encoding: 57855 57855 511
Width: 1400
VWidth: 0
Flags: HW
LayerCount: 2
Fore
SplineSet
0 200 m 1
 1400 200 l 1
 1400 0 l 1
 0 0 l 1
 0 200 l 1
EndSplineSet
EndChar

StartChar: uniE201
Encoding: 57857 57857 513
Width: 1400
VWidth: 0
Flags: HW
LayerCount: 2
Fore
SplineSet
0 200 m 1
 200 200 l 1
 200 0 l 1
 0 0 l 1
 0 200 l 1
EndSplineSet
EndChar

StartChar: uniE202
Encoding: 57858 57858 514
Width: 1400
VWidth: 0
Flags: HW
LayerCount: 2
Fore
SplineSet
200 200 m 1
 400 200 l 1
 400 0 l 1
 200 0 l 1
 200 200 l 1
EndSplineSet
EndChar

StartChar: uniE203
Encoding: 57859 57859 515
Width: 1400
VWidth: 0
Flags: HW
LayerCount: 2
Fore
SplineSet
400 0 m 1
 0 0 l 1
 0 200 l 1
 400 200 l 1
 400 0 l 1
EndSplineSet
EndChar

StartChar: uniE204
Encoding: 57860 57860 516
Width: 1400
VWidth: 0
Flags: HW
LayerCount: 2
Fore
SplineSet
400 200 m 1
 600 200 l 1
 600 0 l 1
 400 0 l 1
 400 200 l 1
EndSplineSet
EndChar

StartChar: uniE205
Encoding: 57861 57861 517
Width: 1400
VWidth: 0
Flags: HW
LayerCount: 2
Fore
SplineSet
0 200 m 1
 200 200 l 1
 200 0 l 1
 0 0 l 1
 0 200 l 1
400 200 m 1
 600 200 l 1
 600 0 l 1
 400 0 l 1
 400 200 l 1
EndSplineSet
EndChar

StartChar: uniE206
Encoding: 57862 57862 518
Width: 1400
VWidth: 0
Flags: HW
LayerCount: 2
Fore
SplineSet
600 0 m 1
 200 0 l 1
 200 200 l 1
 600 200 l 1
 600 0 l 1
EndSplineSet
EndChar

StartChar: uniE207
Encoding: 57863 57863 519
Width: 1400
VWidth: 0
Flags: HW
LayerCount: 2
Fore
SplineSet
0 200 m 1
 600 200 l 1
 600 0 l 1
 0 0 l 1
 0 200 l 1
EndSplineSet
EndChar

StartChar: uniE208
Encoding: 57864 57864 520
Width: 1400
VWidth: 0
Flags: HW
LayerCount: 2
Fore
SplineSet
600 200 m 1
 800 200 l 1
 800 0 l 1
 600 0 l 1
 600 200 l 1
EndSplineSet
EndChar

StartChar: uniE209
Encoding: 57865 57865 521
Width: 1400
VWidth: 0
Flags: HW
LayerCount: 2
Fore
SplineSet
600 200 m 1
 800 200 l 1
 800 0 l 1
 600 0 l 1
 600 200 l 1
0 200 m 1
 200 200 l 1
 200 0 l 1
 0 0 l 1
 0 200 l 1
EndSplineSet
EndChar

StartChar: uniE20A
Encoding: 57866 57866 522
Width: 1400
VWidth: 0
Flags: HW
LayerCount: 2
Fore
SplineSet
600 200 m 1
 800 200 l 1
 800 0 l 1
 600 0 l 1
 600 200 l 1
200 200 m 1
 400 200 l 1
 400 0 l 1
 200 0 l 1
 200 200 l 1
EndSplineSet
EndChar

StartChar: uniE20B
Encoding: 57867 57867 523
Width: 1400
VWidth: 0
Flags: HW
LayerCount: 2
Fore
SplineSet
600 200 m 1
 800 200 l 1
 800 0 l 1
 600 0 l 1
 600 200 l 1
400 0 m 1
 0 0 l 1
 0 200 l 1
 400 200 l 1
 400 0 l 1
EndSplineSet
EndChar

StartChar: uniE20C
Encoding: 57868 57868 524
Width: 1400
VWidth: 0
Flags: HW
LayerCount: 2
Fore
SplineSet
800 0 m 1
 400 0 l 1
 400 200 l 1
 800 200 l 1
 800 0 l 1
EndSplineSet
EndChar

StartChar: uniE20D
Encoding: 57869 57869 525
Width: 1400
VWidth: 0
Flags: HW
LayerCount: 2
Fore
SplineSet
800 0 m 1
 400 0 l 1
 400 200 l 1
 800 200 l 1
 800 0 l 1
0 200 m 1
 200 200 l 1
 200 0 l 1
 0 0 l 1
 0 200 l 1
EndSplineSet
EndChar

StartChar: uniE20E
Encoding: 57870 57870 526
Width: 1400
VWidth: 0
Flags: HW
LayerCount: 2
Fore
SplineSet
200 200 m 1
 800 200 l 1
 800 0 l 1
 200 0 l 1
 200 200 l 1
EndSplineSet
EndChar

StartChar: uniE20F
Encoding: 57871 57871 527
Width: 1400
VWidth: 0
Flags: HW
LayerCount: 2
Fore
SplineSet
800 0 m 1
 0 0 l 1
 0 200 l 1
 800 200 l 1
 800 0 l 1
EndSplineSet
EndChar

StartChar: uniE210
Encoding: 57872 57872 528
Width: 1400
VWidth: 0
Flags: HW
LayerCount: 2
Fore
SplineSet
800 200 m 1
 1000 200 l 1
 1000 0 l 1
 800 0 l 1
 800 200 l 1
EndSplineSet
EndChar

StartChar: uniE211
Encoding: 57873 57873 529
Width: 1400
VWidth: 0
Flags: HW
LayerCount: 2
Fore
SplineSet
0 200 m 1
 200 200 l 1
 200 0 l 1
 0 0 l 1
 0 200 l 1
800 200 m 1
 1000 200 l 1
 1000 0 l 1
 800 0 l 1
 800 200 l 1
EndSplineSet
EndChar

StartChar: uniE212
Encoding: 57874 57874 530
Width: 1400
VWidth: 0
Flags: HW
LayerCount: 2
Fore
SplineSet
200 200 m 1
 400 200 l 1
 400 0 l 1
 200 0 l 1
 200 200 l 1
800 200 m 1
 1000 200 l 1
 1000 0 l 1
 800 0 l 1
 800 200 l 1
EndSplineSet
EndChar

StartChar: uniE213
Encoding: 57875 57875 531
Width: 1400
VWidth: 0
Flags: HW
LayerCount: 2
Fore
SplineSet
400 0 m 1
 0 0 l 1
 0 200 l 1
 400 200 l 1
 400 0 l 1
800 200 m 1
 1000 200 l 1
 1000 0 l 1
 800 0 l 1
 800 200 l 1
EndSplineSet
EndChar

StartChar: uniE214
Encoding: 57876 57876 532
Width: 1400
VWidth: 0
Flags: HW
LayerCount: 2
Fore
SplineSet
400 200 m 1
 600 200 l 1
 600 0 l 1
 400 0 l 1
 400 200 l 1
800 200 m 1
 1000 200 l 1
 1000 0 l 1
 800 0 l 1
 800 200 l 1
EndSplineSet
EndChar

StartChar: uniE215
Encoding: 57877 57877 533
Width: 1400
VWidth: 0
Flags: HW
LayerCount: 2
Fore
SplineSet
400 200 m 1
 600 200 l 1
 600 0 l 1
 400 0 l 1
 400 200 l 1
0 200 m 1
 200 200 l 1
 200 0 l 1
 0 0 l 1
 0 200 l 1
800 200 m 1
 1000 200 l 1
 1000 0 l 1
 800 0 l 1
 800 200 l 1
EndSplineSet
EndChar

StartChar: uniE216
Encoding: 57878 57878 534
Width: 1400
VWidth: 0
Flags: HW
LayerCount: 2
Fore
SplineSet
600 0 m 1
 200 0 l 1
 200 200 l 1
 600 200 l 1
 600 0 l 1
800 200 m 1
 1000 200 l 1
 1000 0 l 1
 800 0 l 1
 800 200 l 1
EndSplineSet
EndChar

StartChar: uniE217
Encoding: 57879 57879 535
Width: 1400
VWidth: 0
Flags: HW
LayerCount: 2
Fore
SplineSet
0 200 m 1
 600 200 l 1
 600 0 l 1
 0 0 l 1
 0 200 l 1
800 200 m 1
 1000 200 l 1
 1000 0 l 1
 800 0 l 1
 800 200 l 1
EndSplineSet
EndChar

StartChar: uniE218
Encoding: 57880 57880 536
Width: 1400
VWidth: 0
Flags: HW
LayerCount: 2
Fore
SplineSet
1000 0 m 1
 600 0 l 1
 600 200 l 1
 1000 200 l 1
 1000 0 l 1
EndSplineSet
EndChar

StartChar: uniE219
Encoding: 57881 57881 537
Width: 1400
VWidth: 0
Flags: HW
LayerCount: 2
Fore
SplineSet
1000 0 m 1
 600 0 l 1
 600 200 l 1
 1000 200 l 1
 1000 0 l 1
0 200 m 1
 200 200 l 1
 200 0 l 1
 0 0 l 1
 0 200 l 1
EndSplineSet
EndChar

StartChar: uniE21A
Encoding: 57882 57882 538
Width: 1400
VWidth: 0
Flags: HW
LayerCount: 2
Fore
SplineSet
1000 0 m 1
 600 0 l 1
 600 200 l 1
 1000 200 l 1
 1000 0 l 1
200 200 m 1
 400 200 l 1
 400 0 l 1
 200 0 l 1
 200 200 l 1
EndSplineSet
EndChar

StartChar: uniE21B
Encoding: 57883 57883 539
Width: 1400
VWidth: 0
Flags: HW
LayerCount: 2
Fore
SplineSet
1000 0 m 1
 600 0 l 1
 600 200 l 1
 1000 200 l 1
 1000 0 l 1
400 0 m 1
 0 0 l 1
 0 200 l 1
 400 200 l 1
 400 0 l 1
EndSplineSet
EndChar

StartChar: uniE21C
Encoding: 57884 57884 540
Width: 1400
VWidth: 0
Flags: HW
LayerCount: 2
Fore
SplineSet
1000 0 m 1
 400 0 l 1
 400 200 l 1
 1000 200 l 1
 1000 0 l 1
EndSplineSet
EndChar

StartChar: uniE21D
Encoding: 57885 57885 541
Width: 1400
VWidth: 0
Flags: HW
LayerCount: 2
Fore
SplineSet
1000 0 m 1
 400 0 l 1
 400 200 l 1
 1000 200 l 1
 1000 0 l 1
0 200 m 1
 200 200 l 1
 200 0 l 1
 0 0 l 1
 0 200 l 1
EndSplineSet
EndChar

StartChar: uniE21E
Encoding: 57886 57886 542
Width: 1400
VWidth: 0
Flags: HW
LayerCount: 2
Fore
SplineSet
1000 0 m 1
 200 0 l 1
 200 200 l 1
 1000 200 l 1
 1000 0 l 1
EndSplineSet
EndChar

StartChar: uniE21F
Encoding: 57887 57887 543
Width: 1400
VWidth: 0
Flags: HW
LayerCount: 2
Fore
SplineSet
1000 0 m 1
 0 0 l 1
 0 200 l 1
 1000 200 l 1
 1000 0 l 1
EndSplineSet
EndChar

StartChar: uniE220
Encoding: 57888 57888 544
Width: 1400
VWidth: 0
Flags: HW
LayerCount: 2
Fore
SplineSet
1000 200 m 1
 1200 200 l 1
 1200 0 l 1
 1000 0 l 1
 1000 200 l 1
EndSplineSet
EndChar

StartChar: uniE221
Encoding: 57889 57889 545
Width: 1400
VWidth: 0
Flags: HW
LayerCount: 2
Fore
SplineSet
0 200 m 1
 200 200 l 1
 200 0 l 1
 0 0 l 1
 0 200 l 1
1000 200 m 1
 1200 200 l 1
 1200 0 l 1
 1000 0 l 1
 1000 200 l 1
EndSplineSet
EndChar

StartChar: uniE222
Encoding: 57890 57890 546
Width: 1400
VWidth: 0
Flags: HW
LayerCount: 2
Fore
SplineSet
200 200 m 1
 400 200 l 1
 400 0 l 1
 200 0 l 1
 200 200 l 1
1000 200 m 1
 1200 200 l 1
 1200 0 l 1
 1000 0 l 1
 1000 200 l 1
EndSplineSet
EndChar

StartChar: uniE223
Encoding: 57891 57891 547
Width: 1400
VWidth: 0
Flags: HW
LayerCount: 2
Fore
SplineSet
400 0 m 1
 0 0 l 1
 0 200 l 1
 400 200 l 1
 400 0 l 1
1000 200 m 1
 1200 200 l 1
 1200 0 l 1
 1000 0 l 1
 1000 200 l 1
EndSplineSet
EndChar

StartChar: uniE224
Encoding: 57892 57892 548
Width: 1400
VWidth: 0
Flags: HW
LayerCount: 2
Fore
SplineSet
400 200 m 1
 600 200 l 1
 600 0 l 1
 400 0 l 1
 400 200 l 1
1000 200 m 1
 1200 200 l 1
 1200 0 l 1
 1000 0 l 1
 1000 200 l 1
EndSplineSet
EndChar

StartChar: uniE225
Encoding: 57893 57893 549
Width: 1400
VWidth: 0
Flags: HW
LayerCount: 2
Fore
SplineSet
400 200 m 1
 600 200 l 1
 600 0 l 1
 400 0 l 1
 400 200 l 1
0 200 m 1
 200 200 l 1
 200 0 l 1
 0 0 l 1
 0 200 l 1
1000 200 m 1
 1200 200 l 1
 1200 0 l 1
 1000 0 l 1
 1000 200 l 1
EndSplineSet
EndChar

StartChar: uniE226
Encoding: 57894 57894 550
Width: 1400
VWidth: 0
Flags: HW
LayerCount: 2
Fore
SplineSet
600 0 m 1
 200 0 l 1
 200 200 l 1
 600 200 l 1
 600 0 l 1
1000 200 m 1
 1200 200 l 1
 1200 0 l 1
 1000 0 l 1
 1000 200 l 1
EndSplineSet
EndChar

StartChar: uniE227
Encoding: 57895 57895 551
Width: 1400
VWidth: 0
Flags: HW
LayerCount: 2
Fore
SplineSet
0 200 m 1
 600 200 l 1
 600 0 l 1
 0 0 l 1
 0 200 l 1
1000 200 m 1
 1200 200 l 1
 1200 0 l 1
 1000 0 l 1
 1000 200 l 1
EndSplineSet
EndChar

StartChar: uniE228
Encoding: 57896 57896 552
Width: 1400
VWidth: 0
Flags: HW
LayerCount: 2
Fore
SplineSet
600 200 m 1
 800 200 l 1
 800 0 l 1
 600 0 l 1
 600 200 l 1
1000 200 m 1
 1200 200 l 1
 1200 0 l 1
 1000 0 l 1
 1000 200 l 1
EndSplineSet
EndChar

StartChar: uniE229
Encoding: 57897 57897 553
Width: 1400
VWidth: 0
Flags: HW
LayerCount: 2
Fore
SplineSet
0 200 m 1
 200 200 l 1
 200 0 l 1
 0 0 l 1
 0 200 l 1
600 200 m 1
 800 200 l 1
 800 0 l 1
 600 0 l 1
 600 200 l 1
1000 200 m 1
 1200 200 l 1
 1200 0 l 1
 1000 0 l 1
 1000 200 l 1
EndSplineSet
EndChar

StartChar: uniE22A
Encoding: 57898 57898 554
Width: 1400
VWidth: 0
Flags: HW
LayerCount: 2
Fore
SplineSet
200 200 m 1
 400 200 l 1
 400 0 l 1
 200 0 l 1
 200 200 l 1
600 200 m 1
 800 200 l 1
 800 0 l 1
 600 0 l 1
 600 200 l 1
1000 200 m 1
 1200 200 l 1
 1200 0 l 1
 1000 0 l 1
 1000 200 l 1
EndSplineSet
EndChar

StartChar: uniE22B
Encoding: 57899 57899 555
Width: 1400
VWidth: 0
Flags: HW
LayerCount: 2
Fore
SplineSet
400 0 m 1
 0 0 l 1
 0 200 l 1
 400 200 l 1
 400 0 l 1
600 200 m 1
 800 200 l 1
 800 0 l 1
 600 0 l 1
 600 200 l 1
1000 200 m 1
 1200 200 l 1
 1200 0 l 1
 1000 0 l 1
 1000 200 l 1
EndSplineSet
EndChar

StartChar: uniE22C
Encoding: 57900 57900 556
Width: 1400
VWidth: 0
Flags: HW
LayerCount: 2
Fore
SplineSet
800 0 m 1
 400 0 l 1
 400 200 l 1
 800 200 l 1
 800 0 l 1
1000 200 m 1
 1200 200 l 1
 1200 0 l 1
 1000 0 l 1
 1000 200 l 1
EndSplineSet
EndChar

StartChar: uniE22D
Encoding: 57901 57901 557
Width: 1400
VWidth: 0
Flags: HW
LayerCount: 2
Fore
SplineSet
800 0 m 1
 400 0 l 1
 400 200 l 1
 800 200 l 1
 800 0 l 1
0 200 m 1
 200 200 l 1
 200 0 l 1
 0 0 l 1
 0 200 l 1
1000 200 m 1
 1200 200 l 1
 1200 0 l 1
 1000 0 l 1
 1000 200 l 1
EndSplineSet
EndChar

StartChar: uniE22E
Encoding: 57902 57902 558
Width: 1400
VWidth: 0
Flags: HW
LayerCount: 2
Fore
SplineSet
200 200 m 1
 800 200 l 1
 800 0 l 1
 200 0 l 1
 200 200 l 1
1000 200 m 1
 1200 200 l 1
 1200 0 l 1
 1000 0 l 1
 1000 200 l 1
EndSplineSet
EndChar

StartChar: uniE22F
Encoding: 57903 57903 559
Width: 1400
VWidth: 0
Flags: HW
LayerCount: 2
Fore
SplineSet
800 0 m 1
 0 0 l 1
 0 200 l 1
 800 200 l 1
 800 0 l 1
1000 200 m 1
 1200 200 l 1
 1200 0 l 1
 1000 0 l 1
 1000 200 l 1
EndSplineSet
EndChar

StartChar: uniE230
Encoding: 57904 57904 560
Width: 1400
VWidth: 0
Flags: HW
LayerCount: 2
Fore
SplineSet
1200 0 m 1
 800 0 l 1
 800 200 l 1
 1200 200 l 1
 1200 0 l 1
EndSplineSet
EndChar

StartChar: uniE231
Encoding: 57905 57905 561
Width: 1400
VWidth: 0
Flags: HW
LayerCount: 2
Fore
SplineSet
1200 0 m 1
 800 0 l 1
 800 200 l 1
 1200 200 l 1
 1200 0 l 1
0 200 m 1
 200 200 l 1
 200 0 l 1
 0 0 l 1
 0 200 l 1
EndSplineSet
EndChar

StartChar: uniE232
Encoding: 57906 57906 562
Width: 1400
VWidth: 0
Flags: HW
LayerCount: 2
Fore
SplineSet
1200 0 m 1
 800 0 l 1
 800 200 l 1
 1200 200 l 1
 1200 0 l 1
200 200 m 1
 400 200 l 1
 400 0 l 1
 200 0 l 1
 200 200 l 1
EndSplineSet
EndChar

StartChar: uniE233
Encoding: 57907 57907 563
Width: 1400
VWidth: 0
Flags: HW
LayerCount: 2
Fore
SplineSet
1200 0 m 1
 800 0 l 1
 800 200 l 1
 1200 200 l 1
 1200 0 l 1
400 0 m 1
 0 0 l 1
 0 200 l 1
 400 200 l 1
 400 0 l 1
EndSplineSet
EndChar

StartChar: uniE234
Encoding: 57908 57908 564
Width: 1400
VWidth: 0
Flags: HW
LayerCount: 2
Fore
SplineSet
1200 0 m 1
 800 0 l 1
 800 200 l 1
 1200 200 l 1
 1200 0 l 1
400 200 m 1
 600 200 l 1
 600 0 l 1
 400 0 l 1
 400 200 l 1
EndSplineSet
EndChar

StartChar: uniE235
Encoding: 57909 57909 565
Width: 1400
VWidth: 0
Flags: HW
LayerCount: 2
Fore
SplineSet
1200 0 m 1
 800 0 l 1
 800 200 l 1
 1200 200 l 1
 1200 0 l 1
0 200 m 1
 200 200 l 1
 200 0 l 1
 0 0 l 1
 0 200 l 1
400 200 m 1
 600 200 l 1
 600 0 l 1
 400 0 l 1
 400 200 l 1
EndSplineSet
EndChar

StartChar: uniE236
Encoding: 57910 57910 566
Width: 1400
VWidth: 0
Flags: HW
LayerCount: 2
Fore
SplineSet
1200 0 m 1
 800 0 l 1
 800 200 l 1
 1200 200 l 1
 1200 0 l 1
600 0 m 1
 200 0 l 1
 200 200 l 1
 600 200 l 1
 600 0 l 1
EndSplineSet
EndChar

StartChar: uniE237
Encoding: 57911 57911 567
Width: 1400
VWidth: 0
Flags: HW
LayerCount: 2
Fore
SplineSet
1200 0 m 1
 800 0 l 1
 800 200 l 1
 1200 200 l 1
 1200 0 l 1
0 200 m 1
 600 200 l 1
 600 0 l 1
 0 0 l 1
 0 200 l 1
EndSplineSet
EndChar

StartChar: uniE238
Encoding: 57912 57912 568
Width: 1400
VWidth: 0
Flags: HW
LayerCount: 2
Fore
SplineSet
600 200 m 1
 1200 200 l 1
 1200 0 l 1
 600 0 l 1
 600 200 l 1
EndSplineSet
EndChar

StartChar: uniE239
Encoding: 57913 57913 569
Width: 1400
VWidth: 0
Flags: HW
LayerCount: 2
Fore
SplineSet
600 200 m 1
 1200 200 l 1
 1200 0 l 1
 600 0 l 1
 600 200 l 1
0 200 m 1
 200 200 l 1
 200 0 l 1
 0 0 l 1
 0 200 l 1
EndSplineSet
EndChar

StartChar: uniE23A
Encoding: 57914 57914 570
Width: 1400
VWidth: 0
Flags: HW
LayerCount: 2
Fore
SplineSet
600 200 m 1
 1200 200 l 1
 1200 0 l 1
 600 0 l 1
 600 200 l 1
200 200 m 1
 400 200 l 1
 400 0 l 1
 200 0 l 1
 200 200 l 1
EndSplineSet
EndChar

StartChar: uniE23B
Encoding: 57915 57915 571
Width: 1400
VWidth: 0
Flags: HW
LayerCount: 2
Fore
SplineSet
600 200 m 1
 1200 200 l 1
 1200 0 l 1
 600 0 l 1
 600 200 l 1
400 0 m 1
 0 0 l 1
 0 200 l 1
 400 200 l 1
 400 0 l 1
EndSplineSet
EndChar

StartChar: uniE23C
Encoding: 57916 57916 572
Width: 1400
VWidth: 0
Flags: HW
LayerCount: 2
Fore
SplineSet
400 200 m 1
 1200 200 l 1
 1200 0 l 1
 400 0 l 1
 400 200 l 1
EndSplineSet
EndChar

StartChar: uniE23D
Encoding: 57917 57917 573
Width: 1400
VWidth: 0
Flags: HW
LayerCount: 2
Fore
SplineSet
400 200 m 1
 1200 200 l 1
 1200 0 l 1
 400 0 l 1
 400 200 l 1
0 200 m 1
 200 200 l 1
 200 0 l 1
 0 0 l 1
 0 200 l 1
EndSplineSet
EndChar

StartChar: uniE23E
Encoding: 57918 57918 574
Width: 1400
VWidth: 0
Flags: HW
LayerCount: 2
Fore
SplineSet
200 200 m 1
 1200 200 l 1
 1200 0 l 1
 200 0 l 1
 200 200 l 1
EndSplineSet
EndChar

StartChar: uniE23F
Encoding: 57919 57919 575
Width: 1400
VWidth: 0
Flags: HW
LayerCount: 2
Fore
SplineSet
0 200 m 1
 1200 200 l 1
 1200 0 l 1
 0 0 l 1
 0 200 l 1
EndSplineSet
EndChar

StartChar: uniE240
Encoding: 57920 57920 576
Width: 1400
VWidth: 0
Flags: HW
LayerCount: 2
Fore
SplineSet
1200 200 m 1
 1400 200 l 1
 1400 0 l 1
 1200 0 l 1
 1200 200 l 1
EndSplineSet
EndChar

StartChar: uniE241
Encoding: 57921 57921 577
Width: 1400
VWidth: 0
Flags: HW
LayerCount: 2
Fore
SplineSet
0 200 m 1
 200 200 l 1
 200 0 l 1
 0 0 l 1
 0 200 l 1
1200 200 m 1
 1400 200 l 1
 1400 0 l 1
 1200 0 l 1
 1200 200 l 1
EndSplineSet
EndChar

StartChar: uniE242
Encoding: 57922 57922 578
Width: 1400
VWidth: 0
Flags: HW
LayerCount: 2
Fore
SplineSet
200 200 m 1
 400 200 l 1
 400 0 l 1
 200 0 l 1
 200 200 l 1
1200 200 m 1
 1400 200 l 1
 1400 0 l 1
 1200 0 l 1
 1200 200 l 1
EndSplineSet
EndChar

StartChar: uniE243
Encoding: 57923 57923 579
Width: 1400
VWidth: 0
Flags: HW
LayerCount: 2
Fore
SplineSet
400 0 m 1
 0 0 l 1
 0 200 l 1
 400 200 l 1
 400 0 l 1
1200 200 m 1
 1400 200 l 1
 1400 0 l 1
 1200 0 l 1
 1200 200 l 1
EndSplineSet
EndChar

StartChar: uniE244
Encoding: 57924 57924 580
Width: 1400
VWidth: 0
Flags: HW
LayerCount: 2
Fore
SplineSet
400 200 m 1
 600 200 l 1
 600 0 l 1
 400 0 l 1
 400 200 l 1
1200 200 m 1
 1400 200 l 1
 1400 0 l 1
 1200 0 l 1
 1200 200 l 1
EndSplineSet
EndChar

StartChar: uniE245
Encoding: 57925 57925 581
Width: 1400
VWidth: 0
Flags: HW
LayerCount: 2
Fore
SplineSet
400 200 m 1
 600 200 l 1
 600 0 l 1
 400 0 l 1
 400 200 l 1
0 200 m 1
 200 200 l 1
 200 0 l 1
 0 0 l 1
 0 200 l 1
1200 200 m 1
 1400 200 l 1
 1400 0 l 1
 1200 0 l 1
 1200 200 l 1
EndSplineSet
EndChar

StartChar: uniE246
Encoding: 57926 57926 582
Width: 1400
VWidth: 0
Flags: HW
LayerCount: 2
Fore
SplineSet
600 0 m 1
 200 0 l 1
 200 200 l 1
 600 200 l 1
 600 0 l 1
1200 200 m 1
 1400 200 l 1
 1400 0 l 1
 1200 0 l 1
 1200 200 l 1
EndSplineSet
EndChar

StartChar: uniE247
Encoding: 57927 57927 583
Width: 1400
VWidth: 0
Flags: HW
LayerCount: 2
Fore
SplineSet
0 200 m 1
 600 200 l 1
 600 0 l 1
 0 0 l 1
 0 200 l 1
1200 200 m 1
 1400 200 l 1
 1400 0 l 1
 1200 0 l 1
 1200 200 l 1
EndSplineSet
EndChar

StartChar: uniE248
Encoding: 57928 57928 584
Width: 1400
VWidth: 0
Flags: HW
LayerCount: 2
Fore
SplineSet
600 200 m 1
 800 200 l 1
 800 0 l 1
 600 0 l 1
 600 200 l 1
1200 200 m 1
 1400 200 l 1
 1400 0 l 1
 1200 0 l 1
 1200 200 l 1
EndSplineSet
EndChar

StartChar: uniE249
Encoding: 57929 57929 585
Width: 1400
VWidth: 0
Flags: HW
LayerCount: 2
Fore
SplineSet
0 200 m 1
 200 200 l 1
 200 0 l 1
 0 0 l 1
 0 200 l 1
600 200 m 1
 800 200 l 1
 800 0 l 1
 600 0 l 1
 600 200 l 1
1200 200 m 1
 1400 200 l 1
 1400 0 l 1
 1200 0 l 1
 1200 200 l 1
EndSplineSet
EndChar

StartChar: uniE24A
Encoding: 57930 57930 586
Width: 1400
VWidth: 0
Flags: HW
LayerCount: 2
Fore
SplineSet
200 200 m 1
 400 200 l 1
 400 0 l 1
 200 0 l 1
 200 200 l 1
600 200 m 1
 800 200 l 1
 800 0 l 1
 600 0 l 1
 600 200 l 1
1200 200 m 1
 1400 200 l 1
 1400 0 l 1
 1200 0 l 1
 1200 200 l 1
EndSplineSet
EndChar

StartChar: uniE24B
Encoding: 57931 57931 587
Width: 1400
VWidth: 0
Flags: HW
LayerCount: 2
Fore
SplineSet
400 0 m 1
 0 0 l 1
 0 200 l 1
 400 200 l 1
 400 0 l 1
600 200 m 1
 800 200 l 1
 800 0 l 1
 600 0 l 1
 600 200 l 1
1200 200 m 1
 1400 200 l 1
 1400 0 l 1
 1200 0 l 1
 1200 200 l 1
EndSplineSet
EndChar

StartChar: uniE24C
Encoding: 57932 57932 588
Width: 1400
VWidth: 0
Flags: HW
LayerCount: 2
Fore
SplineSet
800 0 m 1
 400 0 l 1
 400 200 l 1
 800 200 l 1
 800 0 l 1
1200 200 m 1
 1400 200 l 1
 1400 0 l 1
 1200 0 l 1
 1200 200 l 1
EndSplineSet
EndChar

StartChar: uniE24D
Encoding: 57933 57933 589
Width: 1400
VWidth: 0
Flags: HW
LayerCount: 2
Fore
SplineSet
800 0 m 1
 400 0 l 1
 400 200 l 1
 800 200 l 1
 800 0 l 1
0 200 m 1
 200 200 l 1
 200 0 l 1
 0 0 l 1
 0 200 l 1
1200 200 m 1
 1400 200 l 1
 1400 0 l 1
 1200 0 l 1
 1200 200 l 1
EndSplineSet
EndChar

StartChar: uniE24E
Encoding: 57934 57934 590
Width: 1400
VWidth: 0
Flags: HW
LayerCount: 2
Fore
SplineSet
200 200 m 1
 800 200 l 1
 800 0 l 1
 200 0 l 1
 200 200 l 1
1200 200 m 1
 1400 200 l 1
 1400 0 l 1
 1200 0 l 1
 1200 200 l 1
EndSplineSet
EndChar

StartChar: uniE24F
Encoding: 57935 57935 591
Width: 1400
VWidth: 0
Flags: HW
LayerCount: 2
Fore
SplineSet
800 0 m 1
 0 0 l 1
 0 200 l 1
 800 200 l 1
 800 0 l 1
1200 200 m 1
 1400 200 l 1
 1400 0 l 1
 1200 0 l 1
 1200 200 l 1
EndSplineSet
EndChar

StartChar: uniE250
Encoding: 57936 57936 592
Width: 1400
VWidth: 0
Flags: HW
LayerCount: 2
Fore
SplineSet
800 200 m 1
 1000 200 l 1
 1000 0 l 1
 800 0 l 1
 800 200 l 1
1200 200 m 1
 1400 200 l 1
 1400 0 l 1
 1200 0 l 1
 1200 200 l 1
EndSplineSet
EndChar

StartChar: uniE251
Encoding: 57937 57937 593
Width: 1400
VWidth: 0
Flags: HW
LayerCount: 2
Fore
SplineSet
800 200 m 1
 1000 200 l 1
 1000 0 l 1
 800 0 l 1
 800 200 l 1
0 200 m 1
 200 200 l 1
 200 0 l 1
 0 0 l 1
 0 200 l 1
1200 200 m 1
 1400 200 l 1
 1400 0 l 1
 1200 0 l 1
 1200 200 l 1
EndSplineSet
EndChar

StartChar: uniE252
Encoding: 57938 57938 594
Width: 1400
VWidth: 0
Flags: HW
LayerCount: 2
Fore
SplineSet
800 200 m 1
 1000 200 l 1
 1000 0 l 1
 800 0 l 1
 800 200 l 1
200 200 m 1
 400 200 l 1
 400 0 l 1
 200 0 l 1
 200 200 l 1
1200 200 m 1
 1400 200 l 1
 1400 0 l 1
 1200 0 l 1
 1200 200 l 1
EndSplineSet
EndChar

StartChar: uniE253
Encoding: 57939 57939 595
Width: 1400
VWidth: 0
Flags: HW
LayerCount: 2
Fore
SplineSet
800 200 m 1
 1000 200 l 1
 1000 0 l 1
 800 0 l 1
 800 200 l 1
400 0 m 1
 0 0 l 1
 0 200 l 1
 400 200 l 1
 400 0 l 1
1200 200 m 1
 1400 200 l 1
 1400 0 l 1
 1200 0 l 1
 1200 200 l 1
EndSplineSet
EndChar

StartChar: uniE254
Encoding: 57940 57940 596
Width: 1400
VWidth: 0
Flags: HW
LayerCount: 2
Fore
SplineSet
800 200 m 1
 1000 200 l 1
 1000 0 l 1
 800 0 l 1
 800 200 l 1
400 200 m 1
 600 200 l 1
 600 0 l 1
 400 0 l 1
 400 200 l 1
1200 200 m 1
 1400 200 l 1
 1400 0 l 1
 1200 0 l 1
 1200 200 l 1
EndSplineSet
EndChar

StartChar: uniE255
Encoding: 57941 57941 597
Width: 1400
VWidth: 0
Flags: HW
LayerCount: 2
Fore
SplineSet
800 200 m 1
 1000 200 l 1
 1000 0 l 1
 800 0 l 1
 800 200 l 1
0 200 m 1
 200 200 l 1
 200 0 l 1
 0 0 l 1
 0 200 l 1
400 200 m 1
 600 200 l 1
 600 0 l 1
 400 0 l 1
 400 200 l 1
1200 200 m 1
 1400 200 l 1
 1400 0 l 1
 1200 0 l 1
 1200 200 l 1
EndSplineSet
EndChar

StartChar: uniE256
Encoding: 57942 57942 598
Width: 1400
VWidth: 0
Flags: HW
LayerCount: 2
Fore
SplineSet
800 200 m 1
 1000 200 l 1
 1000 0 l 1
 800 0 l 1
 800 200 l 1
600 0 m 1
 200 0 l 1
 200 200 l 1
 600 200 l 1
 600 0 l 1
1200 200 m 1
 1400 200 l 1
 1400 0 l 1
 1200 0 l 1
 1200 200 l 1
EndSplineSet
EndChar

StartChar: uniE257
Encoding: 57943 57943 599
Width: 1400
VWidth: 0
Flags: HW
LayerCount: 2
Fore
SplineSet
800 200 m 1
 1000 200 l 1
 1000 0 l 1
 800 0 l 1
 800 200 l 1
0 200 m 1
 600 200 l 1
 600 0 l 1
 0 0 l 1
 0 200 l 1
1200 200 m 1
 1400 200 l 1
 1400 0 l 1
 1200 0 l 1
 1200 200 l 1
EndSplineSet
EndChar

StartChar: uniE258
Encoding: 57944 57944 600
Width: 1400
VWidth: 0
Flags: HW
LayerCount: 2
Fore
SplineSet
1000 0 m 1
 600 0 l 1
 600 200 l 1
 1000 200 l 1
 1000 0 l 1
1200 200 m 1
 1400 200 l 1
 1400 0 l 1
 1200 0 l 1
 1200 200 l 1
EndSplineSet
EndChar

StartChar: uniE259
Encoding: 57945 57945 601
Width: 1400
VWidth: 0
Flags: HW
LayerCount: 2
Fore
SplineSet
0 200 m 1
 200 200 l 1
 200 0 l 1
 0 0 l 1
 0 200 l 1
1000 0 m 1
 600 0 l 1
 600 200 l 1
 1000 200 l 1
 1000 0 l 1
1200 200 m 1
 1400 200 l 1
 1400 0 l 1
 1200 0 l 1
 1200 200 l 1
EndSplineSet
EndChar

StartChar: uniE25A
Encoding: 57946 57946 602
Width: 1400
VWidth: 0
Flags: HW
LayerCount: 2
Fore
SplineSet
200 200 m 1
 400 200 l 1
 400 0 l 1
 200 0 l 1
 200 200 l 1
1000 0 m 1
 600 0 l 1
 600 200 l 1
 1000 200 l 1
 1000 0 l 1
1200 200 m 1
 1400 200 l 1
 1400 0 l 1
 1200 0 l 1
 1200 200 l 1
EndSplineSet
EndChar

StartChar: uniE25B
Encoding: 57947 57947 603
Width: 1400
VWidth: 0
Flags: HW
LayerCount: 2
Fore
SplineSet
400 0 m 1
 0 0 l 1
 0 200 l 1
 400 200 l 1
 400 0 l 1
1000 0 m 1
 600 0 l 1
 600 200 l 1
 1000 200 l 1
 1000 0 l 1
1200 200 m 1
 1400 200 l 1
 1400 0 l 1
 1200 0 l 1
 1200 200 l 1
EndSplineSet
EndChar

StartChar: uniE25C
Encoding: 57948 57948 604
Width: 1400
VWidth: 0
Flags: HW
LayerCount: 2
Fore
SplineSet
1000 0 m 1
 400 0 l 1
 400 200 l 1
 1000 200 l 1
 1000 0 l 1
1200 200 m 1
 1400 200 l 1
 1400 0 l 1
 1200 0 l 1
 1200 200 l 1
EndSplineSet
EndChar

StartChar: uniE25D
Encoding: 57949 57949 605
Width: 1400
VWidth: 0
Flags: HW
LayerCount: 2
Fore
SplineSet
0 200 m 1
 200 200 l 1
 200 0 l 1
 0 0 l 1
 0 200 l 1
1000 0 m 1
 400 0 l 1
 400 200 l 1
 1000 200 l 1
 1000 0 l 1
1200 200 m 1
 1400 200 l 1
 1400 0 l 1
 1200 0 l 1
 1200 200 l 1
EndSplineSet
EndChar

StartChar: uniE25E
Encoding: 57950 57950 606
Width: 1400
VWidth: 0
Flags: HW
LayerCount: 2
Fore
SplineSet
1000 0 m 1
 200 0 l 1
 200 200 l 1
 1000 200 l 1
 1000 0 l 1
1200 200 m 1
 1400 200 l 1
 1400 0 l 1
 1200 0 l 1
 1200 200 l 1
EndSplineSet
EndChar

StartChar: uniE25F
Encoding: 57951 57951 607
Width: 1400
VWidth: 0
Flags: HW
LayerCount: 2
Fore
SplineSet
1000 0 m 1
 0 0 l 1
 0 200 l 1
 1000 200 l 1
 1000 0 l 1
1200 200 m 1
 1400 200 l 1
 1400 0 l 1
 1200 0 l 1
 1200 200 l 1
EndSplineSet
EndChar

StartChar: uniE260
Encoding: 57952 57952 608
Width: 1400
VWidth: 0
Flags: HW
LayerCount: 2
Fore
SplineSet
1400 0 m 1
 1000 0 l 1
 1000 200 l 1
 1400 200 l 1
 1400 0 l 1
EndSplineSet
EndChar

StartChar: uniE261
Encoding: 57953 57953 609
Width: 1400
VWidth: 0
Flags: HW
LayerCount: 2
Fore
SplineSet
1400 0 m 1
 1000 0 l 1
 1000 200 l 1
 1400 200 l 1
 1400 0 l 1
0 200 m 1
 200 200 l 1
 200 0 l 1
 0 0 l 1
 0 200 l 1
EndSplineSet
EndChar

StartChar: uniE262
Encoding: 57954 57954 610
Width: 1400
VWidth: 0
Flags: HW
LayerCount: 2
Fore
SplineSet
1400 0 m 1
 1000 0 l 1
 1000 200 l 1
 1400 200 l 1
 1400 0 l 1
200 200 m 1
 400 200 l 1
 400 0 l 1
 200 0 l 1
 200 200 l 1
EndSplineSet
EndChar

StartChar: uniE263
Encoding: 57955 57955 611
Width: 1400
VWidth: 0
Flags: HW
LayerCount: 2
Fore
SplineSet
1400 0 m 1
 1000 0 l 1
 1000 200 l 1
 1400 200 l 1
 1400 0 l 1
400 0 m 1
 0 0 l 1
 0 200 l 1
 400 200 l 1
 400 0 l 1
EndSplineSet
EndChar

StartChar: uniE264
Encoding: 57956 57956 612
Width: 1400
VWidth: 0
Flags: HW
LayerCount: 2
Fore
SplineSet
1400 0 m 1
 1000 0 l 1
 1000 200 l 1
 1400 200 l 1
 1400 0 l 1
400 200 m 1
 600 200 l 1
 600 0 l 1
 400 0 l 1
 400 200 l 1
EndSplineSet
EndChar

StartChar: uniE265
Encoding: 57957 57957 613
Width: 1400
VWidth: 0
Flags: HW
LayerCount: 2
Fore
SplineSet
1400 0 m 1
 1000 0 l 1
 1000 200 l 1
 1400 200 l 1
 1400 0 l 1
0 200 m 1
 200 200 l 1
 200 0 l 1
 0 0 l 1
 0 200 l 1
400 200 m 1
 600 200 l 1
 600 0 l 1
 400 0 l 1
 400 200 l 1
EndSplineSet
EndChar

StartChar: uniE266
Encoding: 57958 57958 614
Width: 1400
VWidth: 0
Flags: HW
LayerCount: 2
Fore
SplineSet
1400 0 m 1
 1000 0 l 1
 1000 200 l 1
 1400 200 l 1
 1400 0 l 1
600 0 m 1
 200 0 l 1
 200 200 l 1
 600 200 l 1
 600 0 l 1
EndSplineSet
EndChar

StartChar: uniE267
Encoding: 57959 57959 615
Width: 1400
VWidth: 0
Flags: HW
LayerCount: 2
Fore
SplineSet
1400 0 m 1
 1000 0 l 1
 1000 200 l 1
 1400 200 l 1
 1400 0 l 1
0 200 m 1
 600 200 l 1
 600 0 l 1
 0 0 l 1
 0 200 l 1
EndSplineSet
EndChar

StartChar: uniE268
Encoding: 57960 57960 616
Width: 1400
VWidth: 0
Flags: HW
LayerCount: 2
Fore
SplineSet
1400 0 m 1
 1000 0 l 1
 1000 200 l 1
 1400 200 l 1
 1400 0 l 1
600 200 m 1
 800 200 l 1
 800 0 l 1
 600 0 l 1
 600 200 l 1
EndSplineSet
EndChar

StartChar: uniE269
Encoding: 57961 57961 617
Width: 1400
VWidth: 0
Flags: HW
LayerCount: 2
Fore
SplineSet
1400 0 m 1
 1000 0 l 1
 1000 200 l 1
 1400 200 l 1
 1400 0 l 1
600 200 m 1
 800 200 l 1
 800 0 l 1
 600 0 l 1
 600 200 l 1
0 200 m 1
 200 200 l 1
 200 0 l 1
 0 0 l 1
 0 200 l 1
EndSplineSet
EndChar

StartChar: uniE26A
Encoding: 57962 57962 618
Width: 1400
VWidth: 0
Flags: HW
LayerCount: 2
Fore
SplineSet
1400 0 m 1
 1000 0 l 1
 1000 200 l 1
 1400 200 l 1
 1400 0 l 1
600 200 m 1
 800 200 l 1
 800 0 l 1
 600 0 l 1
 600 200 l 1
200 200 m 1
 400 200 l 1
 400 0 l 1
 200 0 l 1
 200 200 l 1
EndSplineSet
EndChar

StartChar: uniE26B
Encoding: 57963 57963 619
Width: 1400
VWidth: 0
Flags: HW
LayerCount: 2
Fore
SplineSet
1400 0 m 1
 1000 0 l 1
 1000 200 l 1
 1400 200 l 1
 1400 0 l 1
600 200 m 1
 800 200 l 1
 800 0 l 1
 600 0 l 1
 600 200 l 1
400 0 m 1
 0 0 l 1
 0 200 l 1
 400 200 l 1
 400 0 l 1
EndSplineSet
EndChar

StartChar: uniE26C
Encoding: 57964 57964 620
Width: 1400
VWidth: 0
Flags: HW
LayerCount: 2
Fore
SplineSet
1400 0 m 1
 1000 0 l 1
 1000 200 l 1
 1400 200 l 1
 1400 0 l 1
800 0 m 1
 400 0 l 1
 400 200 l 1
 800 200 l 1
 800 0 l 1
EndSplineSet
EndChar

StartChar: uniE26D
Encoding: 57965 57965 621
Width: 1400
VWidth: 0
Flags: HW
LayerCount: 2
Fore
SplineSet
1400 0 m 1
 1000 0 l 1
 1000 200 l 1
 1400 200 l 1
 1400 0 l 1
0 200 m 1
 200 200 l 1
 200 0 l 1
 0 0 l 1
 0 200 l 1
800 0 m 1
 400 0 l 1
 400 200 l 1
 800 200 l 1
 800 0 l 1
EndSplineSet
EndChar

StartChar: uniE26E
Encoding: 57966 57966 622
Width: 1400
VWidth: 0
Flags: HW
LayerCount: 2
Fore
SplineSet
1400 0 m 1
 1000 0 l 1
 1000 200 l 1
 1400 200 l 1
 1400 0 l 1
200 200 m 1
 800 200 l 1
 800 0 l 1
 200 0 l 1
 200 200 l 1
EndSplineSet
EndChar

StartChar: uniE26F
Encoding: 57967 57967 623
Width: 1400
VWidth: 0
Flags: HW
LayerCount: 2
Fore
SplineSet
1400 0 m 1
 1000 0 l 1
 1000 200 l 1
 1400 200 l 1
 1400 0 l 1
800 0 m 1
 0 0 l 1
 0 200 l 1
 800 200 l 1
 800 0 l 1
EndSplineSet
EndChar

StartChar: uniE270
Encoding: 57968 57968 624
Width: 1400
VWidth: 0
Flags: HW
LayerCount: 2
Fore
SplineSet
800 200 m 1
 1400 200 l 1
 1400 0 l 1
 800 0 l 1
 800 200 l 1
EndSplineSet
EndChar

StartChar: uniE271
Encoding: 57969 57969 625
Width: 1400
VWidth: 0
Flags: HW
LayerCount: 2
Fore
SplineSet
800 200 m 1
 1400 200 l 1
 1400 0 l 1
 800 0 l 1
 800 200 l 1
0 200 m 1
 200 200 l 1
 200 0 l 1
 0 0 l 1
 0 200 l 1
EndSplineSet
EndChar

StartChar: uniE272
Encoding: 57970 57970 626
Width: 1400
VWidth: 0
Flags: HW
LayerCount: 2
Fore
SplineSet
800 200 m 1
 1400 200 l 1
 1400 0 l 1
 800 0 l 1
 800 200 l 1
200 200 m 1
 400 200 l 1
 400 0 l 1
 200 0 l 1
 200 200 l 1
EndSplineSet
EndChar

StartChar: uniE273
Encoding: 57971 57971 627
Width: 1400
VWidth: 0
Flags: HW
LayerCount: 2
Fore
SplineSet
800 200 m 1
 1400 200 l 1
 1400 0 l 1
 800 0 l 1
 800 200 l 1
400 0 m 1
 0 0 l 1
 0 200 l 1
 400 200 l 1
 400 0 l 1
EndSplineSet
EndChar

StartChar: uniE274
Encoding: 57972 57972 628
Width: 1400
VWidth: 0
Flags: HW
LayerCount: 2
Fore
SplineSet
800 200 m 1
 1400 200 l 1
 1400 0 l 1
 800 0 l 1
 800 200 l 1
400 200 m 1
 600 200 l 1
 600 0 l 1
 400 0 l 1
 400 200 l 1
EndSplineSet
EndChar

StartChar: uniE275
Encoding: 57973 57973 629
Width: 1400
VWidth: 0
Flags: HW
LayerCount: 2
Fore
SplineSet
800 200 m 1
 1400 200 l 1
 1400 0 l 1
 800 0 l 1
 800 200 l 1
400 200 m 1
 600 200 l 1
 600 0 l 1
 400 0 l 1
 400 200 l 1
0 200 m 1
 200 200 l 1
 200 0 l 1
 0 0 l 1
 0 200 l 1
EndSplineSet
EndChar

StartChar: uniE276
Encoding: 57974 57974 630
Width: 1400
VWidth: 0
Flags: HW
LayerCount: 2
Fore
SplineSet
800 200 m 1
 1400 200 l 1
 1400 0 l 1
 800 0 l 1
 800 200 l 1
600 0 m 1
 200 0 l 1
 200 200 l 1
 600 200 l 1
 600 0 l 1
EndSplineSet
EndChar

StartChar: uniE277
Encoding: 57975 57975 631
Width: 1400
VWidth: 0
Flags: HW
LayerCount: 2
Fore
SplineSet
800 200 m 1
 1400 200 l 1
 1400 0 l 1
 800 0 l 1
 800 200 l 1
0 200 m 1
 600 200 l 1
 600 0 l 1
 0 0 l 1
 0 200 l 1
EndSplineSet
EndChar

StartChar: uniE278
Encoding: 57976 57976 632
Width: 1400
VWidth: 0
Flags: HW
LayerCount: 2
Fore
SplineSet
1400 0 m 1
 600 0 l 1
 600 200 l 1
 1400 200 l 1
 1400 0 l 1
EndSplineSet
EndChar

StartChar: uniE279
Encoding: 57977 57977 633
Width: 1400
VWidth: 0
Flags: HW
LayerCount: 2
Fore
SplineSet
1400 0 m 1
 600 0 l 1
 600 200 l 1
 1400 200 l 1
 1400 0 l 1
0 200 m 1
 200 200 l 1
 200 0 l 1
 0 0 l 1
 0 200 l 1
EndSplineSet
EndChar

StartChar: uniE27A
Encoding: 57978 57978 634
Width: 1400
VWidth: 0
Flags: HW
LayerCount: 2
Fore
SplineSet
1400 0 m 1
 600 0 l 1
 600 200 l 1
 1400 200 l 1
 1400 0 l 1
200 200 m 1
 400 200 l 1
 400 0 l 1
 200 0 l 1
 200 200 l 1
EndSplineSet
EndChar

StartChar: uniE27B
Encoding: 57979 57979 635
Width: 1400
VWidth: 0
Flags: HW
LayerCount: 2
Fore
SplineSet
1400 0 m 1
 600 0 l 1
 600 200 l 1
 1400 200 l 1
 1400 0 l 1
400 0 m 1
 0 0 l 1
 0 200 l 1
 400 200 l 1
 400 0 l 1
EndSplineSet
EndChar

StartChar: uniE27C
Encoding: 57980 57980 636
Width: 1400
VWidth: 0
Flags: HW
LayerCount: 2
Fore
SplineSet
1400 0 m 1
 400 0 l 1
 400 200 l 1
 1400 200 l 1
 1400 0 l 1
EndSplineSet
EndChar

StartChar: uniE27D
Encoding: 57981 57981 637
Width: 1400
VWidth: 0
Flags: HW
LayerCount: 2
Fore
SplineSet
1400 0 m 1
 400 0 l 1
 400 200 l 1
 1400 200 l 1
 1400 0 l 1
0 200 m 1
 200 200 l 1
 200 0 l 1
 0 0 l 1
 0 200 l 1
EndSplineSet
EndChar

StartChar: uniE27E
Encoding: 57982 57982 638
Width: 1400
VWidth: 0
Flags: HW
LayerCount: 2
Fore
SplineSet
1400 0 m 1
 200 0 l 1
 200 200 l 1
 1400 200 l 1
 1400 0 l 1
EndSplineSet
EndChar

StartChar: uniE27F
Encoding: 57983 57983 639
Width: 1400
VWidth: 0
Flags: HW
LayerCount: 2
Fore
SplineSet
1400 0 m 1
 0 0 l 1
 0 200 l 1
 1400 200 l 1
 1400 0 l 1
EndSplineSet
EndChar

StartChar: uniE281
Encoding: 57985 57985 641
Width: 1400
VWidth: 0
Flags: HW
LayerCount: 2
Fore
SplineSet
0 200 m 1
 200 200 l 1
 200 0 l 1
 0 0 l 1
 0 200 l 1
EndSplineSet
EndChar

StartChar: uniE282
Encoding: 57986 57986 642
Width: 1400
VWidth: 0
Flags: HW
LayerCount: 2
Fore
SplineSet
200 200 m 1
 400 200 l 1
 400 0 l 1
 200 0 l 1
 200 200 l 1
EndSplineSet
EndChar

StartChar: uniE283
Encoding: 57987 57987 643
Width: 1400
VWidth: 0
Flags: HW
LayerCount: 2
Fore
SplineSet
400 0 m 1
 0 0 l 1
 0 200 l 1
 400 200 l 1
 400 0 l 1
EndSplineSet
EndChar

StartChar: uniE284
Encoding: 57988 57988 644
Width: 1400
VWidth: 0
Flags: HW
LayerCount: 2
Fore
SplineSet
400 200 m 1
 600 200 l 1
 600 0 l 1
 400 0 l 1
 400 200 l 1
EndSplineSet
EndChar

StartChar: uniE285
Encoding: 57989 57989 645
Width: 1400
VWidth: 0
Flags: HW
LayerCount: 2
Fore
SplineSet
0 200 m 1
 200 200 l 1
 200 0 l 1
 0 0 l 1
 0 200 l 1
400 200 m 1
 600 200 l 1
 600 0 l 1
 400 0 l 1
 400 200 l 1
EndSplineSet
EndChar

StartChar: uniE286
Encoding: 57990 57990 646
Width: 1400
VWidth: 0
Flags: HW
LayerCount: 2
Fore
SplineSet
600 0 m 1
 200 0 l 1
 200 200 l 1
 600 200 l 1
 600 0 l 1
EndSplineSet
EndChar

StartChar: uniE287
Encoding: 57991 57991 647
Width: 1400
VWidth: 0
Flags: HW
LayerCount: 2
Fore
SplineSet
0 200 m 1
 600 200 l 1
 600 0 l 1
 0 0 l 1
 0 200 l 1
EndSplineSet
EndChar

StartChar: uniE288
Encoding: 57992 57992 648
Width: 1400
VWidth: 0
Flags: HW
LayerCount: 2
Fore
SplineSet
600 200 m 1
 800 200 l 1
 800 0 l 1
 600 0 l 1
 600 200 l 1
EndSplineSet
EndChar

StartChar: uniE289
Encoding: 57993 57993 649
Width: 1400
VWidth: 0
Flags: HW
LayerCount: 2
Fore
SplineSet
600 200 m 1
 800 200 l 1
 800 0 l 1
 600 0 l 1
 600 200 l 1
0 200 m 1
 200 200 l 1
 200 0 l 1
 0 0 l 1
 0 200 l 1
EndSplineSet
EndChar

StartChar: uniE28A
Encoding: 57994 57994 650
Width: 1400
VWidth: 0
Flags: HW
LayerCount: 2
Fore
SplineSet
600 200 m 1
 800 200 l 1
 800 0 l 1
 600 0 l 1
 600 200 l 1
200 200 m 1
 400 200 l 1
 400 0 l 1
 200 0 l 1
 200 200 l 1
EndSplineSet
EndChar

StartChar: uniE28B
Encoding: 57995 57995 651
Width: 1400
VWidth: 0
Flags: HW
LayerCount: 2
Fore
SplineSet
600 200 m 1
 800 200 l 1
 800 0 l 1
 600 0 l 1
 600 200 l 1
400 0 m 1
 0 0 l 1
 0 200 l 1
 400 200 l 1
 400 0 l 1
EndSplineSet
EndChar

StartChar: uniE28C
Encoding: 57996 57996 652
Width: 1400
VWidth: 0
Flags: HW
LayerCount: 2
Fore
SplineSet
800 0 m 1
 400 0 l 1
 400 200 l 1
 800 200 l 1
 800 0 l 1
EndSplineSet
EndChar

StartChar: uniE28D
Encoding: 57997 57997 653
Width: 1400
VWidth: 0
Flags: HW
LayerCount: 2
Fore
SplineSet
800 0 m 1
 400 0 l 1
 400 200 l 1
 800 200 l 1
 800 0 l 1
0 200 m 1
 200 200 l 1
 200 0 l 1
 0 0 l 1
 0 200 l 1
EndSplineSet
EndChar

StartChar: uniE28E
Encoding: 57998 57998 654
Width: 1400
VWidth: 0
Flags: HW
LayerCount: 2
Fore
SplineSet
200 200 m 1
 800 200 l 1
 800 0 l 1
 200 0 l 1
 200 200 l 1
EndSplineSet
EndChar

StartChar: uniE28F
Encoding: 57999 57999 655
Width: 1400
VWidth: 0
Flags: HW
LayerCount: 2
Fore
SplineSet
800 0 m 1
 0 0 l 1
 0 200 l 1
 800 200 l 1
 800 0 l 1
EndSplineSet
EndChar

StartChar: uniE290
Encoding: 58000 58000 656
Width: 1400
VWidth: 0
Flags: HW
LayerCount: 2
Fore
SplineSet
800 200 m 1
 1000 200 l 1
 1000 0 l 1
 800 0 l 1
 800 200 l 1
EndSplineSet
EndChar

StartChar: uniE291
Encoding: 58001 58001 657
Width: 1400
VWidth: 0
Flags: HW
LayerCount: 2
Fore
SplineSet
0 200 m 1
 200 200 l 1
 200 0 l 1
 0 0 l 1
 0 200 l 1
800 200 m 1
 1000 200 l 1
 1000 0 l 1
 800 0 l 1
 800 200 l 1
EndSplineSet
EndChar

StartChar: uniE292
Encoding: 58002 58002 658
Width: 1400
VWidth: 0
Flags: HW
LayerCount: 2
Fore
SplineSet
200 200 m 1
 400 200 l 1
 400 0 l 1
 200 0 l 1
 200 200 l 1
800 200 m 1
 1000 200 l 1
 1000 0 l 1
 800 0 l 1
 800 200 l 1
EndSplineSet
EndChar

StartChar: uniE293
Encoding: 58003 58003 659
Width: 1400
VWidth: 0
Flags: HW
LayerCount: 2
Fore
SplineSet
400 0 m 1
 0 0 l 1
 0 200 l 1
 400 200 l 1
 400 0 l 1
800 200 m 1
 1000 200 l 1
 1000 0 l 1
 800 0 l 1
 800 200 l 1
EndSplineSet
EndChar

StartChar: uniE294
Encoding: 58004 58004 660
Width: 1400
VWidth: 0
Flags: HW
LayerCount: 2
Fore
SplineSet
400 200 m 1
 600 200 l 1
 600 0 l 1
 400 0 l 1
 400 200 l 1
800 200 m 1
 1000 200 l 1
 1000 0 l 1
 800 0 l 1
 800 200 l 1
EndSplineSet
EndChar

StartChar: uniE295
Encoding: 58005 58005 661
Width: 1400
VWidth: 0
Flags: HW
LayerCount: 2
Fore
SplineSet
400 200 m 1
 600 200 l 1
 600 0 l 1
 400 0 l 1
 400 200 l 1
0 200 m 1
 200 200 l 1
 200 0 l 1
 0 0 l 1
 0 200 l 1
800 200 m 1
 1000 200 l 1
 1000 0 l 1
 800 0 l 1
 800 200 l 1
EndSplineSet
EndChar

StartChar: uniE296
Encoding: 58006 58006 662
Width: 1400
VWidth: 0
Flags: HW
LayerCount: 2
Fore
SplineSet
600 0 m 1
 200 0 l 1
 200 200 l 1
 600 200 l 1
 600 0 l 1
800 200 m 1
 1000 200 l 1
 1000 0 l 1
 800 0 l 1
 800 200 l 1
EndSplineSet
EndChar

StartChar: uniE297
Encoding: 58007 58007 663
Width: 1400
VWidth: 0
Flags: HW
LayerCount: 2
Fore
SplineSet
0 200 m 1
 600 200 l 1
 600 0 l 1
 0 0 l 1
 0 200 l 1
800 200 m 1
 1000 200 l 1
 1000 0 l 1
 800 0 l 1
 800 200 l 1
EndSplineSet
EndChar

StartChar: uniE298
Encoding: 58008 58008 664
Width: 1400
VWidth: 0
Flags: HW
LayerCount: 2
Fore
SplineSet
1000 0 m 1
 600 0 l 1
 600 200 l 1
 1000 200 l 1
 1000 0 l 1
EndSplineSet
EndChar

StartChar: uniE299
Encoding: 58009 58009 665
Width: 1400
VWidth: 0
Flags: HW
LayerCount: 2
Fore
SplineSet
1000 0 m 1
 600 0 l 1
 600 200 l 1
 1000 200 l 1
 1000 0 l 1
0 200 m 1
 200 200 l 1
 200 0 l 1
 0 0 l 1
 0 200 l 1
EndSplineSet
EndChar

StartChar: uniE29A
Encoding: 58010 58010 666
Width: 1400
VWidth: 0
Flags: HW
LayerCount: 2
Fore
SplineSet
1000 0 m 1
 600 0 l 1
 600 200 l 1
 1000 200 l 1
 1000 0 l 1
200 200 m 1
 400 200 l 1
 400 0 l 1
 200 0 l 1
 200 200 l 1
EndSplineSet
EndChar

StartChar: uniE29B
Encoding: 58011 58011 667
Width: 1400
VWidth: 0
Flags: HW
LayerCount: 2
Fore
SplineSet
1000 0 m 1
 600 0 l 1
 600 200 l 1
 1000 200 l 1
 1000 0 l 1
400 0 m 1
 0 0 l 1
 0 200 l 1
 400 200 l 1
 400 0 l 1
EndSplineSet
EndChar

StartChar: uniE29C
Encoding: 58012 58012 668
Width: 1400
VWidth: 0
Flags: HW
LayerCount: 2
Fore
SplineSet
1000 0 m 1
 400 0 l 1
 400 200 l 1
 1000 200 l 1
 1000 0 l 1
EndSplineSet
EndChar

StartChar: uniE29D
Encoding: 58013 58013 669
Width: 1400
VWidth: 0
Flags: HW
LayerCount: 2
Fore
SplineSet
1000 0 m 1
 400 0 l 1
 400 200 l 1
 1000 200 l 1
 1000 0 l 1
0 200 m 1
 200 200 l 1
 200 0 l 1
 0 0 l 1
 0 200 l 1
EndSplineSet
EndChar

StartChar: uniE29E
Encoding: 58014 58014 670
Width: 1400
VWidth: 0
Flags: HW
LayerCount: 2
Fore
SplineSet
1000 0 m 1
 200 0 l 1
 200 200 l 1
 1000 200 l 1
 1000 0 l 1
EndSplineSet
EndChar

StartChar: uniE29F
Encoding: 58015 58015 671
Width: 1400
VWidth: 0
Flags: HW
LayerCount: 2
Fore
SplineSet
1000 0 m 1
 0 0 l 1
 0 200 l 1
 1000 200 l 1
 1000 0 l 1
EndSplineSet
EndChar

StartChar: uniE2A0
Encoding: 58016 58016 672
Width: 1400
VWidth: 0
Flags: HW
LayerCount: 2
Fore
SplineSet
1000 200 m 1
 1200 200 l 1
 1200 0 l 1
 1000 0 l 1
 1000 200 l 1
EndSplineSet
EndChar

StartChar: uniE2A1
Encoding: 58017 58017 673
Width: 1400
VWidth: 0
Flags: HW
LayerCount: 2
Fore
SplineSet
0 200 m 1
 200 200 l 1
 200 0 l 1
 0 0 l 1
 0 200 l 1
1000 200 m 1
 1200 200 l 1
 1200 0 l 1
 1000 0 l 1
 1000 200 l 1
EndSplineSet
EndChar

StartChar: uniE2A2
Encoding: 58018 58018 674
Width: 1400
VWidth: 0
Flags: HW
LayerCount: 2
Fore
SplineSet
200 200 m 1
 400 200 l 1
 400 0 l 1
 200 0 l 1
 200 200 l 1
1000 200 m 1
 1200 200 l 1
 1200 0 l 1
 1000 0 l 1
 1000 200 l 1
EndSplineSet
EndChar

StartChar: uniE2A3
Encoding: 58019 58019 675
Width: 1400
VWidth: 0
Flags: HW
LayerCount: 2
Fore
SplineSet
400 0 m 1
 0 0 l 1
 0 200 l 1
 400 200 l 1
 400 0 l 1
1000 200 m 1
 1200 200 l 1
 1200 0 l 1
 1000 0 l 1
 1000 200 l 1
EndSplineSet
EndChar

StartChar: uniE2A4
Encoding: 58020 58020 676
Width: 1400
VWidth: 0
Flags: HW
LayerCount: 2
Fore
SplineSet
400 200 m 1
 600 200 l 1
 600 0 l 1
 400 0 l 1
 400 200 l 1
1000 200 m 1
 1200 200 l 1
 1200 0 l 1
 1000 0 l 1
 1000 200 l 1
EndSplineSet
EndChar

StartChar: uniE2A5
Encoding: 58021 58021 677
Width: 1400
VWidth: 0
Flags: HW
LayerCount: 2
Fore
SplineSet
400 200 m 1
 600 200 l 1
 600 0 l 1
 400 0 l 1
 400 200 l 1
0 200 m 1
 200 200 l 1
 200 0 l 1
 0 0 l 1
 0 200 l 1
1000 200 m 1
 1200 200 l 1
 1200 0 l 1
 1000 0 l 1
 1000 200 l 1
EndSplineSet
EndChar

StartChar: uniE2A6
Encoding: 58022 58022 678
Width: 1400
VWidth: 0
Flags: HW
LayerCount: 2
Fore
SplineSet
600 0 m 1
 200 0 l 1
 200 200 l 1
 600 200 l 1
 600 0 l 1
1000 200 m 1
 1200 200 l 1
 1200 0 l 1
 1000 0 l 1
 1000 200 l 1
EndSplineSet
EndChar

StartChar: uniE2A7
Encoding: 58023 58023 679
Width: 1400
VWidth: 0
Flags: HW
LayerCount: 2
Fore
SplineSet
0 200 m 1
 600 200 l 1
 600 0 l 1
 0 0 l 1
 0 200 l 1
1000 200 m 1
 1200 200 l 1
 1200 0 l 1
 1000 0 l 1
 1000 200 l 1
EndSplineSet
EndChar

StartChar: uniE2A8
Encoding: 58024 58024 680
Width: 1400
VWidth: 0
Flags: HW
LayerCount: 2
Fore
SplineSet
600 200 m 1
 800 200 l 1
 800 0 l 1
 600 0 l 1
 600 200 l 1
1000 200 m 1
 1200 200 l 1
 1200 0 l 1
 1000 0 l 1
 1000 200 l 1
EndSplineSet
EndChar

StartChar: uniE2A9
Encoding: 58025 58025 681
Width: 1400
VWidth: 0
Flags: HW
LayerCount: 2
Fore
SplineSet
0 200 m 1
 200 200 l 1
 200 0 l 1
 0 0 l 1
 0 200 l 1
600 200 m 1
 800 200 l 1
 800 0 l 1
 600 0 l 1
 600 200 l 1
1000 200 m 1
 1200 200 l 1
 1200 0 l 1
 1000 0 l 1
 1000 200 l 1
EndSplineSet
EndChar

StartChar: uniE2AA
Encoding: 58026 58026 682
Width: 1400
VWidth: 0
Flags: HW
LayerCount: 2
Fore
SplineSet
200 200 m 1
 400 200 l 1
 400 0 l 1
 200 0 l 1
 200 200 l 1
600 200 m 1
 800 200 l 1
 800 0 l 1
 600 0 l 1
 600 200 l 1
1000 200 m 1
 1200 200 l 1
 1200 0 l 1
 1000 0 l 1
 1000 200 l 1
EndSplineSet
EndChar

StartChar: uniE2AB
Encoding: 58027 58027 683
Width: 1400
VWidth: 0
Flags: HW
LayerCount: 2
Fore
SplineSet
400 0 m 1
 0 0 l 1
 0 200 l 1
 400 200 l 1
 400 0 l 1
600 200 m 1
 800 200 l 1
 800 0 l 1
 600 0 l 1
 600 200 l 1
1000 200 m 1
 1200 200 l 1
 1200 0 l 1
 1000 0 l 1
 1000 200 l 1
EndSplineSet
EndChar

StartChar: uniE2AC
Encoding: 58028 58028 684
Width: 1400
VWidth: 0
Flags: HW
LayerCount: 2
Fore
SplineSet
800 0 m 1
 400 0 l 1
 400 200 l 1
 800 200 l 1
 800 0 l 1
1000 200 m 1
 1200 200 l 1
 1200 0 l 1
 1000 0 l 1
 1000 200 l 1
EndSplineSet
EndChar

StartChar: uniE2AD
Encoding: 58029 58029 685
Width: 1400
VWidth: 0
Flags: HW
LayerCount: 2
Fore
SplineSet
800 0 m 1
 400 0 l 1
 400 200 l 1
 800 200 l 1
 800 0 l 1
0 200 m 1
 200 200 l 1
 200 0 l 1
 0 0 l 1
 0 200 l 1
1000 200 m 1
 1200 200 l 1
 1200 0 l 1
 1000 0 l 1
 1000 200 l 1
EndSplineSet
EndChar

StartChar: uniE2AE
Encoding: 58030 58030 686
Width: 1400
VWidth: 0
Flags: HW
LayerCount: 2
Fore
SplineSet
200 200 m 1
 800 200 l 1
 800 0 l 1
 200 0 l 1
 200 200 l 1
1000 200 m 1
 1200 200 l 1
 1200 0 l 1
 1000 0 l 1
 1000 200 l 1
EndSplineSet
EndChar

StartChar: uniE2AF
Encoding: 58031 58031 687
Width: 1400
VWidth: 0
Flags: HW
LayerCount: 2
Fore
SplineSet
800 0 m 1
 0 0 l 1
 0 200 l 1
 800 200 l 1
 800 0 l 1
1000 200 m 1
 1200 200 l 1
 1200 0 l 1
 1000 0 l 1
 1000 200 l 1
EndSplineSet
EndChar

StartChar: uniE2B0
Encoding: 58032 58032 688
Width: 1400
VWidth: 0
Flags: HW
LayerCount: 2
Fore
SplineSet
1200 0 m 1
 800 0 l 1
 800 200 l 1
 1200 200 l 1
 1200 0 l 1
EndSplineSet
EndChar

StartChar: uniE2B1
Encoding: 58033 58033 689
Width: 1400
VWidth: 0
Flags: HW
LayerCount: 2
Fore
SplineSet
1200 0 m 1
 800 0 l 1
 800 200 l 1
 1200 200 l 1
 1200 0 l 1
0 200 m 1
 200 200 l 1
 200 0 l 1
 0 0 l 1
 0 200 l 1
EndSplineSet
EndChar

StartChar: uniE2B2
Encoding: 58034 58034 690
Width: 1400
VWidth: 0
Flags: HW
LayerCount: 2
Fore
SplineSet
1200 0 m 1
 800 0 l 1
 800 200 l 1
 1200 200 l 1
 1200 0 l 1
200 200 m 1
 400 200 l 1
 400 0 l 1
 200 0 l 1
 200 200 l 1
EndSplineSet
EndChar

StartChar: uniE2B3
Encoding: 58035 58035 691
Width: 1400
VWidth: 0
Flags: HW
LayerCount: 2
Fore
SplineSet
1200 0 m 1
 800 0 l 1
 800 200 l 1
 1200 200 l 1
 1200 0 l 1
400 0 m 1
 0 0 l 1
 0 200 l 1
 400 200 l 1
 400 0 l 1
EndSplineSet
EndChar

StartChar: uniE2B4
Encoding: 58036 58036 692
Width: 1400
VWidth: 0
Flags: HW
LayerCount: 2
Fore
SplineSet
1200 0 m 1
 800 0 l 1
 800 200 l 1
 1200 200 l 1
 1200 0 l 1
400 200 m 1
 600 200 l 1
 600 0 l 1
 400 0 l 1
 400 200 l 1
EndSplineSet
EndChar

StartChar: uniE2B5
Encoding: 58037 58037 693
Width: 1400
VWidth: 0
Flags: HW
LayerCount: 2
Fore
SplineSet
1200 0 m 1
 800 0 l 1
 800 200 l 1
 1200 200 l 1
 1200 0 l 1
0 200 m 1
 200 200 l 1
 200 0 l 1
 0 0 l 1
 0 200 l 1
400 200 m 1
 600 200 l 1
 600 0 l 1
 400 0 l 1
 400 200 l 1
EndSplineSet
EndChar

StartChar: uniE2B6
Encoding: 58038 58038 694
Width: 1400
VWidth: 0
Flags: HW
LayerCount: 2
Fore
SplineSet
1200 0 m 1
 800 0 l 1
 800 200 l 1
 1200 200 l 1
 1200 0 l 1
600 0 m 1
 200 0 l 1
 200 200 l 1
 600 200 l 1
 600 0 l 1
EndSplineSet
EndChar

StartChar: uniE2B7
Encoding: 58039 58039 695
Width: 1400
VWidth: 0
Flags: HW
LayerCount: 2
Fore
SplineSet
1200 0 m 1
 800 0 l 1
 800 200 l 1
 1200 200 l 1
 1200 0 l 1
0 200 m 1
 600 200 l 1
 600 0 l 1
 0 0 l 1
 0 200 l 1
EndSplineSet
EndChar

StartChar: uniE2B8
Encoding: 58040 58040 696
Width: 1400
VWidth: 0
Flags: HW
LayerCount: 2
Fore
SplineSet
600 200 m 1
 1200 200 l 1
 1200 0 l 1
 600 0 l 1
 600 200 l 1
EndSplineSet
EndChar

StartChar: uniE2B9
Encoding: 58041 58041 697
Width: 1400
VWidth: 0
Flags: HW
LayerCount: 2
Fore
SplineSet
600 200 m 1
 1200 200 l 1
 1200 0 l 1
 600 0 l 1
 600 200 l 1
0 200 m 1
 200 200 l 1
 200 0 l 1
 0 0 l 1
 0 200 l 1
EndSplineSet
EndChar

StartChar: uniE2BA
Encoding: 58042 58042 698
Width: 1400
VWidth: 0
Flags: HW
LayerCount: 2
Fore
SplineSet
600 200 m 1
 1200 200 l 1
 1200 0 l 1
 600 0 l 1
 600 200 l 1
200 200 m 1
 400 200 l 1
 400 0 l 1
 200 0 l 1
 200 200 l 1
EndSplineSet
EndChar

StartChar: uniE2BB
Encoding: 58043 58043 699
Width: 1400
VWidth: 0
Flags: HW
LayerCount: 2
Fore
SplineSet
600 200 m 1
 1200 200 l 1
 1200 0 l 1
 600 0 l 1
 600 200 l 1
400 0 m 1
 0 0 l 1
 0 200 l 1
 400 200 l 1
 400 0 l 1
EndSplineSet
EndChar

StartChar: uniE2BC
Encoding: 58044 58044 700
Width: 1400
VWidth: 0
Flags: HW
LayerCount: 2
Fore
SplineSet
400 200 m 1
 1200 200 l 1
 1200 0 l 1
 400 0 l 1
 400 200 l 1
EndSplineSet
EndChar

StartChar: uniE2BD
Encoding: 58045 58045 701
Width: 1400
VWidth: 0
Flags: HW
LayerCount: 2
Fore
SplineSet
400 200 m 1
 1200 200 l 1
 1200 0 l 1
 400 0 l 1
 400 200 l 1
0 200 m 1
 200 200 l 1
 200 0 l 1
 0 0 l 1
 0 200 l 1
EndSplineSet
EndChar

StartChar: uniE2BE
Encoding: 58046 58046 702
Width: 1400
VWidth: 0
Flags: HW
LayerCount: 2
Fore
SplineSet
200 200 m 1
 1200 200 l 1
 1200 0 l 1
 200 0 l 1
 200 200 l 1
EndSplineSet
EndChar

StartChar: uniE2BF
Encoding: 58047 58047 703
Width: 1400
VWidth: 0
Flags: HW
LayerCount: 2
Fore
SplineSet
0 200 m 1
 1200 200 l 1
 1200 0 l 1
 0 0 l 1
 0 200 l 1
EndSplineSet
EndChar

StartChar: uniE2C0
Encoding: 58048 58048 704
Width: 1400
VWidth: 0
Flags: HW
LayerCount: 2
Fore
SplineSet
1200 200 m 1
 1400 200 l 1
 1400 0 l 1
 1200 0 l 1
 1200 200 l 1
EndSplineSet
EndChar

StartChar: uniE2C1
Encoding: 58049 58049 705
Width: 1400
VWidth: 0
Flags: HW
LayerCount: 2
Fore
SplineSet
0 200 m 1
 200 200 l 1
 200 0 l 1
 0 0 l 1
 0 200 l 1
1200 200 m 1
 1400 200 l 1
 1400 0 l 1
 1200 0 l 1
 1200 200 l 1
EndSplineSet
EndChar

StartChar: uniE2C2
Encoding: 58050 58050 706
Width: 1400
VWidth: 0
Flags: HW
LayerCount: 2
Fore
SplineSet
200 200 m 1
 400 200 l 1
 400 0 l 1
 200 0 l 1
 200 200 l 1
1200 200 m 1
 1400 200 l 1
 1400 0 l 1
 1200 0 l 1
 1200 200 l 1
EndSplineSet
EndChar

StartChar: uniE2C3
Encoding: 58051 58051 707
Width: 1400
VWidth: 0
Flags: HW
LayerCount: 2
Fore
SplineSet
400 0 m 1
 0 0 l 1
 0 200 l 1
 400 200 l 1
 400 0 l 1
1200 200 m 1
 1400 200 l 1
 1400 0 l 1
 1200 0 l 1
 1200 200 l 1
EndSplineSet
EndChar

StartChar: uniE2C4
Encoding: 58052 58052 708
Width: 1400
VWidth: 0
Flags: HW
LayerCount: 2
Fore
SplineSet
400 200 m 1
 600 200 l 1
 600 0 l 1
 400 0 l 1
 400 200 l 1
1200 200 m 1
 1400 200 l 1
 1400 0 l 1
 1200 0 l 1
 1200 200 l 1
EndSplineSet
EndChar

StartChar: uniE2C5
Encoding: 58053 58053 709
Width: 1400
VWidth: 0
Flags: HW
LayerCount: 2
Fore
SplineSet
400 200 m 1
 600 200 l 1
 600 0 l 1
 400 0 l 1
 400 200 l 1
0 200 m 1
 200 200 l 1
 200 0 l 1
 0 0 l 1
 0 200 l 1
1200 200 m 1
 1400 200 l 1
 1400 0 l 1
 1200 0 l 1
 1200 200 l 1
EndSplineSet
EndChar

StartChar: uniE2C6
Encoding: 58054 58054 710
Width: 1400
VWidth: 0
Flags: HW
LayerCount: 2
Fore
SplineSet
600 0 m 1
 200 0 l 1
 200 200 l 1
 600 200 l 1
 600 0 l 1
1200 200 m 1
 1400 200 l 1
 1400 0 l 1
 1200 0 l 1
 1200 200 l 1
EndSplineSet
EndChar

StartChar: uniE2C7
Encoding: 58055 58055 711
Width: 1400
VWidth: 0
Flags: HW
LayerCount: 2
Fore
SplineSet
0 200 m 1
 600 200 l 1
 600 0 l 1
 0 0 l 1
 0 200 l 1
1200 200 m 1
 1400 200 l 1
 1400 0 l 1
 1200 0 l 1
 1200 200 l 1
EndSplineSet
EndChar

StartChar: uniE2C8
Encoding: 58056 58056 712
Width: 1400
VWidth: 0
Flags: HW
LayerCount: 2
Fore
SplineSet
600 200 m 1
 800 200 l 1
 800 0 l 1
 600 0 l 1
 600 200 l 1
1200 200 m 1
 1400 200 l 1
 1400 0 l 1
 1200 0 l 1
 1200 200 l 1
EndSplineSet
EndChar

StartChar: uniE2C9
Encoding: 58057 58057 713
Width: 1400
VWidth: 0
Flags: HW
LayerCount: 2
Fore
SplineSet
0 200 m 1
 200 200 l 1
 200 0 l 1
 0 0 l 1
 0 200 l 1
600 200 m 1
 800 200 l 1
 800 0 l 1
 600 0 l 1
 600 200 l 1
1200 200 m 1
 1400 200 l 1
 1400 0 l 1
 1200 0 l 1
 1200 200 l 1
EndSplineSet
EndChar

StartChar: uniE2CA
Encoding: 58058 58058 714
Width: 1400
VWidth: 0
Flags: HW
LayerCount: 2
Fore
SplineSet
200 200 m 1
 400 200 l 1
 400 0 l 1
 200 0 l 1
 200 200 l 1
600 200 m 1
 800 200 l 1
 800 0 l 1
 600 0 l 1
 600 200 l 1
1200 200 m 1
 1400 200 l 1
 1400 0 l 1
 1200 0 l 1
 1200 200 l 1
EndSplineSet
EndChar

StartChar: uniE2CB
Encoding: 58059 58059 715
Width: 1400
VWidth: 0
Flags: HW
LayerCount: 2
Fore
SplineSet
400 0 m 1
 0 0 l 1
 0 200 l 1
 400 200 l 1
 400 0 l 1
600 200 m 1
 800 200 l 1
 800 0 l 1
 600 0 l 1
 600 200 l 1
1200 200 m 1
 1400 200 l 1
 1400 0 l 1
 1200 0 l 1
 1200 200 l 1
EndSplineSet
EndChar

StartChar: uniE2CC
Encoding: 58060 58060 716
Width: 1400
VWidth: 0
Flags: HW
LayerCount: 2
Fore
SplineSet
800 0 m 1
 400 0 l 1
 400 200 l 1
 800 200 l 1
 800 0 l 1
1200 200 m 1
 1400 200 l 1
 1400 0 l 1
 1200 0 l 1
 1200 200 l 1
EndSplineSet
EndChar

StartChar: uniE2CD
Encoding: 58061 58061 717
Width: 1400
VWidth: 0
Flags: HW
LayerCount: 2
Fore
SplineSet
800 0 m 1
 400 0 l 1
 400 200 l 1
 800 200 l 1
 800 0 l 1
0 200 m 1
 200 200 l 1
 200 0 l 1
 0 0 l 1
 0 200 l 1
1200 200 m 1
 1400 200 l 1
 1400 0 l 1
 1200 0 l 1
 1200 200 l 1
EndSplineSet
EndChar

StartChar: uniE2CE
Encoding: 58062 58062 718
Width: 1400
VWidth: 0
Flags: HW
LayerCount: 2
Fore
SplineSet
200 200 m 1
 800 200 l 1
 800 0 l 1
 200 0 l 1
 200 200 l 1
1200 200 m 1
 1400 200 l 1
 1400 0 l 1
 1200 0 l 1
 1200 200 l 1
EndSplineSet
EndChar

StartChar: uniE2CF
Encoding: 58063 58063 719
Width: 1400
VWidth: 0
Flags: HW
LayerCount: 2
Fore
SplineSet
800 0 m 1
 0 0 l 1
 0 200 l 1
 800 200 l 1
 800 0 l 1
1200 200 m 1
 1400 200 l 1
 1400 0 l 1
 1200 0 l 1
 1200 200 l 1
EndSplineSet
EndChar

StartChar: uniE2D0
Encoding: 58064 58064 720
Width: 1400
VWidth: 0
Flags: HW
LayerCount: 2
Fore
SplineSet
800 200 m 1
 1000 200 l 1
 1000 0 l 1
 800 0 l 1
 800 200 l 1
1200 200 m 1
 1400 200 l 1
 1400 0 l 1
 1200 0 l 1
 1200 200 l 1
EndSplineSet
EndChar

StartChar: uniE2D1
Encoding: 58065 58065 721
Width: 1400
VWidth: 0
Flags: HW
LayerCount: 2
Fore
SplineSet
800 200 m 1
 1000 200 l 1
 1000 0 l 1
 800 0 l 1
 800 200 l 1
0 200 m 1
 200 200 l 1
 200 0 l 1
 0 0 l 1
 0 200 l 1
1200 200 m 1
 1400 200 l 1
 1400 0 l 1
 1200 0 l 1
 1200 200 l 1
EndSplineSet
EndChar

StartChar: uniE2D2
Encoding: 58066 58066 722
Width: 1400
VWidth: 0
Flags: HW
LayerCount: 2
Fore
SplineSet
800 200 m 1
 1000 200 l 1
 1000 0 l 1
 800 0 l 1
 800 200 l 1
200 200 m 1
 400 200 l 1
 400 0 l 1
 200 0 l 1
 200 200 l 1
1200 200 m 1
 1400 200 l 1
 1400 0 l 1
 1200 0 l 1
 1200 200 l 1
EndSplineSet
EndChar

StartChar: uniE2D3
Encoding: 58067 58067 723
Width: 1400
VWidth: 0
Flags: HW
LayerCount: 2
Fore
SplineSet
800 200 m 1
 1000 200 l 1
 1000 0 l 1
 800 0 l 1
 800 200 l 1
400 0 m 1
 0 0 l 1
 0 200 l 1
 400 200 l 1
 400 0 l 1
1200 200 m 1
 1400 200 l 1
 1400 0 l 1
 1200 0 l 1
 1200 200 l 1
EndSplineSet
EndChar

StartChar: uniE2D4
Encoding: 58068 58068 724
Width: 1400
VWidth: 0
Flags: HW
LayerCount: 2
Fore
SplineSet
800 200 m 1
 1000 200 l 1
 1000 0 l 1
 800 0 l 1
 800 200 l 1
400 200 m 1
 600 200 l 1
 600 0 l 1
 400 0 l 1
 400 200 l 1
1200 200 m 1
 1400 200 l 1
 1400 0 l 1
 1200 0 l 1
 1200 200 l 1
EndSplineSet
EndChar

StartChar: uniE2D5
Encoding: 58069 58069 725
Width: 1400
VWidth: 0
Flags: HW
LayerCount: 2
Fore
SplineSet
800 200 m 1
 1000 200 l 1
 1000 0 l 1
 800 0 l 1
 800 200 l 1
0 200 m 1
 200 200 l 1
 200 0 l 1
 0 0 l 1
 0 200 l 1
400 200 m 1
 600 200 l 1
 600 0 l 1
 400 0 l 1
 400 200 l 1
1200 200 m 1
 1400 200 l 1
 1400 0 l 1
 1200 0 l 1
 1200 200 l 1
EndSplineSet
EndChar

StartChar: uniE2D6
Encoding: 58070 58070 726
Width: 1400
VWidth: 0
Flags: HW
LayerCount: 2
Fore
SplineSet
800 200 m 1
 1000 200 l 1
 1000 0 l 1
 800 0 l 1
 800 200 l 1
600 0 m 1
 200 0 l 1
 200 200 l 1
 600 200 l 1
 600 0 l 1
1200 200 m 1
 1400 200 l 1
 1400 0 l 1
 1200 0 l 1
 1200 200 l 1
EndSplineSet
EndChar

StartChar: uniE2D7
Encoding: 58071 58071 727
Width: 1400
VWidth: 0
Flags: HW
LayerCount: 2
Fore
SplineSet
800 200 m 1
 1000 200 l 1
 1000 0 l 1
 800 0 l 1
 800 200 l 1
0 200 m 1
 600 200 l 1
 600 0 l 1
 0 0 l 1
 0 200 l 1
1200 200 m 1
 1400 200 l 1
 1400 0 l 1
 1200 0 l 1
 1200 200 l 1
EndSplineSet
EndChar

StartChar: uniE2D8
Encoding: 58072 58072 728
Width: 1400
VWidth: 0
Flags: HW
LayerCount: 2
Fore
SplineSet
1000 0 m 1
 600 0 l 1
 600 200 l 1
 1000 200 l 1
 1000 0 l 1
1200 200 m 1
 1400 200 l 1
 1400 0 l 1
 1200 0 l 1
 1200 200 l 1
EndSplineSet
EndChar

StartChar: uniE2D9
Encoding: 58073 58073 729
Width: 1400
VWidth: 0
Flags: HW
LayerCount: 2
Fore
SplineSet
0 200 m 1
 200 200 l 1
 200 0 l 1
 0 0 l 1
 0 200 l 1
1000 0 m 1
 600 0 l 1
 600 200 l 1
 1000 200 l 1
 1000 0 l 1
1200 200 m 1
 1400 200 l 1
 1400 0 l 1
 1200 0 l 1
 1200 200 l 1
EndSplineSet
EndChar

StartChar: uniE2DA
Encoding: 58074 58074 730
Width: 1400
VWidth: 0
Flags: HW
LayerCount: 2
Fore
SplineSet
200 200 m 1
 400 200 l 1
 400 0 l 1
 200 0 l 1
 200 200 l 1
1000 0 m 1
 600 0 l 1
 600 200 l 1
 1000 200 l 1
 1000 0 l 1
1200 200 m 1
 1400 200 l 1
 1400 0 l 1
 1200 0 l 1
 1200 200 l 1
EndSplineSet
EndChar

StartChar: uniE2DB
Encoding: 58075 58075 731
Width: 1400
VWidth: 0
Flags: HW
LayerCount: 2
Fore
SplineSet
400 0 m 1
 0 0 l 1
 0 200 l 1
 400 200 l 1
 400 0 l 1
1000 0 m 1
 600 0 l 1
 600 200 l 1
 1000 200 l 1
 1000 0 l 1
1200 200 m 1
 1400 200 l 1
 1400 0 l 1
 1200 0 l 1
 1200 200 l 1
EndSplineSet
EndChar

StartChar: uniE2DC
Encoding: 58076 58076 732
Width: 1400
VWidth: 0
Flags: HW
LayerCount: 2
Fore
SplineSet
1000 0 m 1
 400 0 l 1
 400 200 l 1
 1000 200 l 1
 1000 0 l 1
1200 200 m 1
 1400 200 l 1
 1400 0 l 1
 1200 0 l 1
 1200 200 l 1
EndSplineSet
EndChar

StartChar: uniE2DD
Encoding: 58077 58077 733
Width: 1400
VWidth: 0
Flags: HW
LayerCount: 2
Fore
SplineSet
0 200 m 1
 200 200 l 1
 200 0 l 1
 0 0 l 1
 0 200 l 1
1000 0 m 1
 400 0 l 1
 400 200 l 1
 1000 200 l 1
 1000 0 l 1
1200 200 m 1
 1400 200 l 1
 1400 0 l 1
 1200 0 l 1
 1200 200 l 1
EndSplineSet
EndChar

StartChar: uniE2DE
Encoding: 58078 58078 734
Width: 1400
VWidth: 0
Flags: HW
LayerCount: 2
Fore
SplineSet
1000 0 m 1
 200 0 l 1
 200 200 l 1
 1000 200 l 1
 1000 0 l 1
1200 200 m 1
 1400 200 l 1
 1400 0 l 1
 1200 0 l 1
 1200 200 l 1
EndSplineSet
EndChar

StartChar: uniE2DF
Encoding: 58079 58079 735
Width: 1400
VWidth: 0
Flags: HW
LayerCount: 2
Fore
SplineSet
1000 0 m 1
 0 0 l 1
 0 200 l 1
 1000 200 l 1
 1000 0 l 1
1200 200 m 1
 1400 200 l 1
 1400 0 l 1
 1200 0 l 1
 1200 200 l 1
EndSplineSet
EndChar

StartChar: uniE2E0
Encoding: 58080 58080 736
Width: 1400
VWidth: 0
Flags: HW
LayerCount: 2
Fore
SplineSet
1400 0 m 1
 1000 0 l 1
 1000 200 l 1
 1400 200 l 1
 1400 0 l 1
EndSplineSet
EndChar

StartChar: uniE2E1
Encoding: 58081 58081 737
Width: 1400
VWidth: 0
Flags: HW
LayerCount: 2
Fore
SplineSet
1400 0 m 1
 1000 0 l 1
 1000 200 l 1
 1400 200 l 1
 1400 0 l 1
0 200 m 1
 200 200 l 1
 200 0 l 1
 0 0 l 1
 0 200 l 1
EndSplineSet
EndChar

StartChar: uniE2E2
Encoding: 58082 58082 738
Width: 1400
VWidth: 0
Flags: HW
LayerCount: 2
Fore
SplineSet
1400 0 m 1
 1000 0 l 1
 1000 200 l 1
 1400 200 l 1
 1400 0 l 1
200 200 m 1
 400 200 l 1
 400 0 l 1
 200 0 l 1
 200 200 l 1
EndSplineSet
EndChar

StartChar: uniE2E3
Encoding: 58083 58083 739
Width: 1400
VWidth: 0
Flags: HW
LayerCount: 2
Fore
SplineSet
1400 0 m 1
 1000 0 l 1
 1000 200 l 1
 1400 200 l 1
 1400 0 l 1
400 0 m 1
 0 0 l 1
 0 200 l 1
 400 200 l 1
 400 0 l 1
EndSplineSet
EndChar

StartChar: uniE2E4
Encoding: 58084 58084 740
Width: 1400
VWidth: 0
Flags: HW
LayerCount: 2
Fore
SplineSet
1400 0 m 1
 1000 0 l 1
 1000 200 l 1
 1400 200 l 1
 1400 0 l 1
400 200 m 1
 600 200 l 1
 600 0 l 1
 400 0 l 1
 400 200 l 1
EndSplineSet
EndChar

StartChar: uniE2E5
Encoding: 58085 58085 741
Width: 1400
VWidth: 0
Flags: HW
LayerCount: 2
Fore
SplineSet
1400 0 m 1
 1000 0 l 1
 1000 200 l 1
 1400 200 l 1
 1400 0 l 1
0 200 m 1
 200 200 l 1
 200 0 l 1
 0 0 l 1
 0 200 l 1
400 200 m 1
 600 200 l 1
 600 0 l 1
 400 0 l 1
 400 200 l 1
EndSplineSet
EndChar

StartChar: uniE2E6
Encoding: 58086 58086 742
Width: 1400
VWidth: 0
Flags: HW
LayerCount: 2
Fore
SplineSet
1400 0 m 1
 1000 0 l 1
 1000 200 l 1
 1400 200 l 1
 1400 0 l 1
600 0 m 1
 200 0 l 1
 200 200 l 1
 600 200 l 1
 600 0 l 1
EndSplineSet
EndChar

StartChar: uniE2E7
Encoding: 58087 58087 743
Width: 1400
VWidth: 0
Flags: HW
LayerCount: 2
Fore
SplineSet
1400 0 m 1
 1000 0 l 1
 1000 200 l 1
 1400 200 l 1
 1400 0 l 1
0 200 m 1
 600 200 l 1
 600 0 l 1
 0 0 l 1
 0 200 l 1
EndSplineSet
EndChar

StartChar: uniE2E8
Encoding: 58088 58088 744
Width: 1400
VWidth: 0
Flags: HW
LayerCount: 2
Fore
SplineSet
1400 0 m 1
 1000 0 l 1
 1000 200 l 1
 1400 200 l 1
 1400 0 l 1
600 200 m 1
 800 200 l 1
 800 0 l 1
 600 0 l 1
 600 200 l 1
EndSplineSet
EndChar

StartChar: uniE2E9
Encoding: 58089 58089 745
Width: 1400
VWidth: 0
Flags: HW
LayerCount: 2
Fore
SplineSet
1400 0 m 1
 1000 0 l 1
 1000 200 l 1
 1400 200 l 1
 1400 0 l 1
600 200 m 1
 800 200 l 1
 800 0 l 1
 600 0 l 1
 600 200 l 1
0 200 m 1
 200 200 l 1
 200 0 l 1
 0 0 l 1
 0 200 l 1
EndSplineSet
EndChar

StartChar: uniE2EA
Encoding: 58090 58090 746
Width: 1400
VWidth: 0
Flags: HW
LayerCount: 2
Fore
SplineSet
1400 0 m 1
 1000 0 l 1
 1000 200 l 1
 1400 200 l 1
 1400 0 l 1
600 200 m 1
 800 200 l 1
 800 0 l 1
 600 0 l 1
 600 200 l 1
200 200 m 1
 400 200 l 1
 400 0 l 1
 200 0 l 1
 200 200 l 1
EndSplineSet
EndChar

StartChar: uniE2EB
Encoding: 58091 58091 747
Width: 1400
VWidth: 0
Flags: HW
LayerCount: 2
Fore
SplineSet
1400 0 m 1
 1000 0 l 1
 1000 200 l 1
 1400 200 l 1
 1400 0 l 1
600 200 m 1
 800 200 l 1
 800 0 l 1
 600 0 l 1
 600 200 l 1
400 0 m 1
 0 0 l 1
 0 200 l 1
 400 200 l 1
 400 0 l 1
EndSplineSet
EndChar

StartChar: uniE2EC
Encoding: 58092 58092 748
Width: 1400
VWidth: 0
Flags: HW
LayerCount: 2
Fore
SplineSet
1400 0 m 1
 1000 0 l 1
 1000 200 l 1
 1400 200 l 1
 1400 0 l 1
800 0 m 1
 400 0 l 1
 400 200 l 1
 800 200 l 1
 800 0 l 1
EndSplineSet
EndChar

StartChar: uniE2ED
Encoding: 58093 58093 749
Width: 1400
VWidth: 0
Flags: HW
LayerCount: 2
Fore
SplineSet
1400 0 m 1
 1000 0 l 1
 1000 200 l 1
 1400 200 l 1
 1400 0 l 1
0 200 m 1
 200 200 l 1
 200 0 l 1
 0 0 l 1
 0 200 l 1
800 0 m 1
 400 0 l 1
 400 200 l 1
 800 200 l 1
 800 0 l 1
EndSplineSet
EndChar

StartChar: uniE2EE
Encoding: 58094 58094 750
Width: 1400
VWidth: 0
Flags: HW
LayerCount: 2
Fore
SplineSet
1400 0 m 1
 1000 0 l 1
 1000 200 l 1
 1400 200 l 1
 1400 0 l 1
200 200 m 1
 800 200 l 1
 800 0 l 1
 200 0 l 1
 200 200 l 1
EndSplineSet
EndChar

StartChar: uniE2EF
Encoding: 58095 58095 751
Width: 1400
VWidth: 0
Flags: HW
LayerCount: 2
Fore
SplineSet
1400 0 m 1
 1000 0 l 1
 1000 200 l 1
 1400 200 l 1
 1400 0 l 1
800 0 m 1
 0 0 l 1
 0 200 l 1
 800 200 l 1
 800 0 l 1
EndSplineSet
EndChar

StartChar: uniE2F0
Encoding: 58096 58096 752
Width: 1400
VWidth: 0
Flags: HW
LayerCount: 2
Fore
SplineSet
800 200 m 1
 1400 200 l 1
 1400 0 l 1
 800 0 l 1
 800 200 l 1
EndSplineSet
EndChar

StartChar: uniE2F1
Encoding: 58097 58097 753
Width: 1400
VWidth: 0
Flags: HW
LayerCount: 2
Fore
SplineSet
800 200 m 1
 1400 200 l 1
 1400 0 l 1
 800 0 l 1
 800 200 l 1
0 200 m 1
 200 200 l 1
 200 0 l 1
 0 0 l 1
 0 200 l 1
EndSplineSet
EndChar

StartChar: uniE2F2
Encoding: 58098 58098 754
Width: 1400
VWidth: 0
Flags: HW
LayerCount: 2
Fore
SplineSet
800 200 m 1
 1400 200 l 1
 1400 0 l 1
 800 0 l 1
 800 200 l 1
200 200 m 1
 400 200 l 1
 400 0 l 1
 200 0 l 1
 200 200 l 1
EndSplineSet
EndChar

StartChar: uniE2F3
Encoding: 58099 58099 755
Width: 1400
VWidth: 0
Flags: HW
LayerCount: 2
Fore
SplineSet
800 200 m 1
 1400 200 l 1
 1400 0 l 1
 800 0 l 1
 800 200 l 1
400 0 m 1
 0 0 l 1
 0 200 l 1
 400 200 l 1
 400 0 l 1
EndSplineSet
EndChar

StartChar: uniE2F4
Encoding: 58100 58100 756
Width: 1400
VWidth: 0
Flags: HW
LayerCount: 2
Fore
SplineSet
800 200 m 1
 1400 200 l 1
 1400 0 l 1
 800 0 l 1
 800 200 l 1
400 200 m 1
 600 200 l 1
 600 0 l 1
 400 0 l 1
 400 200 l 1
EndSplineSet
EndChar

StartChar: uniE2F5
Encoding: 58101 58101 757
Width: 1400
VWidth: 0
Flags: HW
LayerCount: 2
Fore
SplineSet
800 200 m 1
 1400 200 l 1
 1400 0 l 1
 800 0 l 1
 800 200 l 1
400 200 m 1
 600 200 l 1
 600 0 l 1
 400 0 l 1
 400 200 l 1
0 200 m 1
 200 200 l 1
 200 0 l 1
 0 0 l 1
 0 200 l 1
EndSplineSet
EndChar

StartChar: uniE2F6
Encoding: 58102 58102 758
Width: 1400
VWidth: 0
Flags: HW
LayerCount: 2
Fore
SplineSet
800 200 m 1
 1400 200 l 1
 1400 0 l 1
 800 0 l 1
 800 200 l 1
600 0 m 1
 200 0 l 1
 200 200 l 1
 600 200 l 1
 600 0 l 1
EndSplineSet
EndChar

StartChar: uniE2F7
Encoding: 58103 58103 759
Width: 1400
VWidth: 0
Flags: HW
LayerCount: 2
Fore
SplineSet
800 200 m 1
 1400 200 l 1
 1400 0 l 1
 800 0 l 1
 800 200 l 1
0 200 m 1
 600 200 l 1
 600 0 l 1
 0 0 l 1
 0 200 l 1
EndSplineSet
EndChar

StartChar: uniE2F8
Encoding: 58104 58104 760
Width: 1400
VWidth: 0
Flags: HW
LayerCount: 2
Fore
SplineSet
1400 0 m 1
 600 0 l 1
 600 200 l 1
 1400 200 l 1
 1400 0 l 1
EndSplineSet
EndChar

StartChar: uniE2F9
Encoding: 58105 58105 761
Width: 1400
VWidth: 0
Flags: HW
LayerCount: 2
Fore
SplineSet
1400 0 m 1
 600 0 l 1
 600 200 l 1
 1400 200 l 1
 1400 0 l 1
0 200 m 1
 200 200 l 1
 200 0 l 1
 0 0 l 1
 0 200 l 1
EndSplineSet
EndChar

StartChar: uniE2FA
Encoding: 58106 58106 762
Width: 1400
VWidth: 0
Flags: HW
LayerCount: 2
Fore
SplineSet
1400 0 m 1
 600 0 l 1
 600 200 l 1
 1400 200 l 1
 1400 0 l 1
200 200 m 1
 400 200 l 1
 400 0 l 1
 200 0 l 1
 200 200 l 1
EndSplineSet
EndChar

StartChar: uniE2FB
Encoding: 58107 58107 763
Width: 1400
VWidth: 0
Flags: HW
LayerCount: 2
Fore
SplineSet
1400 0 m 1
 600 0 l 1
 600 200 l 1
 1400 200 l 1
 1400 0 l 1
400 0 m 1
 0 0 l 1
 0 200 l 1
 400 200 l 1
 400 0 l 1
EndSplineSet
EndChar

StartChar: uniE2FC
Encoding: 58108 58108 764
Width: 1400
VWidth: 0
Flags: HW
LayerCount: 2
Fore
SplineSet
1400 0 m 1
 400 0 l 1
 400 200 l 1
 1400 200 l 1
 1400 0 l 1
EndSplineSet
EndChar

StartChar: uniE2FD
Encoding: 58109 58109 765
Width: 1400
VWidth: 0
Flags: HW
LayerCount: 2
Fore
SplineSet
1400 0 m 1
 400 0 l 1
 400 200 l 1
 1400 200 l 1
 1400 0 l 1
0 200 m 1
 200 200 l 1
 200 0 l 1
 0 0 l 1
 0 200 l 1
EndSplineSet
EndChar

StartChar: uniE2FE
Encoding: 58110 58110 766
Width: 1400
VWidth: 0
Flags: HW
LayerCount: 2
Fore
SplineSet
1400 0 m 1
 200 0 l 1
 200 200 l 1
 1400 200 l 1
 1400 0 l 1
EndSplineSet
EndChar

StartChar: uniE2FF
Encoding: 58111 58111 767
Width: 1400
VWidth: 0
Flags: HW
LayerCount: 2
Fore
SplineSet
1400 0 m 1
 0 0 l 1
 0 200 l 1
 1400 200 l 1
 1400 0 l 1
EndSplineSet
EndChar

StartChar: uniE301
Encoding: 58113 58113 769
Width: 700
VWidth: 0
Flags: HW
LayerCount: 2
Fore
SplineSet
0 200 m 1
 100 200 l 1
 100 0 l 1
 0 0 l 1
 0 200 l 1
EndSplineSet
EndChar

StartChar: uniE302
Encoding: 58114 58114 770
Width: 700
VWidth: 0
Flags: HW
LayerCount: 2
Fore
SplineSet
100 200 m 1
 200 200 l 1
 200 0 l 1
 100 0 l 1
 100 200 l 1
EndSplineSet
EndChar

StartChar: uniE303
Encoding: 58115 58115 771
Width: 700
VWidth: 0
Flags: HW
LayerCount: 2
Fore
SplineSet
200 0 m 1
 0 0 l 1
 0 200 l 1
 200 200 l 1
 200 0 l 1
EndSplineSet
EndChar

StartChar: uniE304
Encoding: 58116 58116 772
Width: 700
VWidth: 0
Flags: HW
LayerCount: 2
Fore
SplineSet
200 200 m 1
 300 200 l 1
 300 0 l 1
 200 0 l 1
 200 200 l 1
EndSplineSet
EndChar

StartChar: uniE305
Encoding: 58117 58117 773
Width: 700
VWidth: 0
Flags: HW
LayerCount: 2
Fore
SplineSet
0 200 m 1
 100 200 l 1
 100 0 l 1
 0 0 l 1
 0 200 l 1
200 200 m 1
 300 200 l 1
 300 0 l 1
 200 0 l 1
 200 200 l 1
EndSplineSet
EndChar

StartChar: uniE306
Encoding: 58118 58118 774
Width: 700
VWidth: 0
Flags: HW
LayerCount: 2
Fore
SplineSet
300 0 m 1
 100 0 l 1
 100 200 l 1
 300 200 l 1
 300 0 l 1
EndSplineSet
EndChar

StartChar: uniE307
Encoding: 58119 58119 775
Width: 700
VWidth: 0
Flags: HW
LayerCount: 2
Fore
SplineSet
0 200 m 1
 300 200 l 1
 300 0 l 1
 0 0 l 1
 0 200 l 1
EndSplineSet
EndChar

StartChar: uniE308
Encoding: 58120 58120 776
Width: 700
VWidth: 0
Flags: HW
LayerCount: 2
Fore
SplineSet
300 200 m 1
 400 200 l 1
 400 0 l 1
 300 0 l 1
 300 200 l 1
EndSplineSet
EndChar

StartChar: uniE309
Encoding: 58121 58121 777
Width: 700
VWidth: 0
Flags: HW
LayerCount: 2
Fore
SplineSet
300 200 m 1
 400 200 l 1
 400 0 l 1
 300 0 l 1
 300 200 l 1
0 200 m 1
 100 200 l 1
 100 0 l 1
 0 0 l 1
 0 200 l 1
EndSplineSet
EndChar

StartChar: uniE30A
Encoding: 58122 58122 778
Width: 700
VWidth: 0
Flags: HW
LayerCount: 2
Fore
SplineSet
300 200 m 1
 400 200 l 1
 400 0 l 1
 300 0 l 1
 300 200 l 1
100 200 m 1
 200 200 l 1
 200 0 l 1
 100 0 l 1
 100 200 l 1
EndSplineSet
EndChar

StartChar: uniE30B
Encoding: 58123 58123 779
Width: 700
VWidth: 0
Flags: HW
LayerCount: 2
Fore
SplineSet
300 200 m 1
 400 200 l 1
 400 0 l 1
 300 0 l 1
 300 200 l 1
200 0 m 1
 0 0 l 1
 0 200 l 1
 200 200 l 1
 200 0 l 1
EndSplineSet
EndChar

StartChar: uniE30C
Encoding: 58124 58124 780
Width: 700
VWidth: 0
Flags: HW
LayerCount: 2
Fore
SplineSet
400 0 m 1
 200 0 l 1
 200 200 l 1
 400 200 l 1
 400 0 l 1
EndSplineSet
EndChar

StartChar: uniE30D
Encoding: 58125 58125 781
Width: 700
VWidth: 0
Flags: HW
LayerCount: 2
Fore
SplineSet
400 0 m 1
 200 0 l 1
 200 200 l 1
 400 200 l 1
 400 0 l 1
0 200 m 1
 100 200 l 1
 100 0 l 1
 0 0 l 1
 0 200 l 1
EndSplineSet
EndChar

StartChar: uniE30E
Encoding: 58126 58126 782
Width: 700
VWidth: 0
Flags: HW
LayerCount: 2
Fore
SplineSet
100 200 m 1
 400 200 l 1
 400 0 l 1
 100 0 l 1
 100 200 l 1
EndSplineSet
EndChar

StartChar: uniE30F
Encoding: 58127 58127 783
Width: 700
VWidth: 0
Flags: HW
LayerCount: 2
Fore
SplineSet
400 0 m 1
 0 0 l 1
 0 200 l 1
 400 200 l 1
 400 0 l 1
EndSplineSet
EndChar

StartChar: uniE310
Encoding: 58128 58128 784
Width: 700
VWidth: 0
Flags: HW
LayerCount: 2
Fore
SplineSet
400 200 m 1
 500 200 l 1
 500 0 l 1
 400 0 l 1
 400 200 l 1
EndSplineSet
EndChar

StartChar: uniE311
Encoding: 58129 58129 785
Width: 700
VWidth: 0
Flags: HW
LayerCount: 2
Fore
SplineSet
0 200 m 1
 100 200 l 1
 100 0 l 1
 0 0 l 1
 0 200 l 1
400 200 m 1
 500 200 l 1
 500 0 l 1
 400 0 l 1
 400 200 l 1
EndSplineSet
EndChar

StartChar: uniE312
Encoding: 58130 58130 786
Width: 700
VWidth: 0
Flags: HW
LayerCount: 2
Fore
SplineSet
100 200 m 1
 200 200 l 1
 200 0 l 1
 100 0 l 1
 100 200 l 1
400 200 m 1
 500 200 l 1
 500 0 l 1
 400 0 l 1
 400 200 l 1
EndSplineSet
EndChar

StartChar: uniE313
Encoding: 58131 58131 787
Width: 700
VWidth: 0
Flags: HW
LayerCount: 2
Fore
SplineSet
200 0 m 1
 0 0 l 1
 0 200 l 1
 200 200 l 1
 200 0 l 1
400 200 m 1
 500 200 l 1
 500 0 l 1
 400 0 l 1
 400 200 l 1
EndSplineSet
EndChar

StartChar: uniE314
Encoding: 58132 58132 788
Width: 700
VWidth: 0
Flags: HW
LayerCount: 2
Fore
SplineSet
200 200 m 1
 300 200 l 1
 300 0 l 1
 200 0 l 1
 200 200 l 1
400 200 m 1
 500 200 l 1
 500 0 l 1
 400 0 l 1
 400 200 l 1
EndSplineSet
EndChar

StartChar: uniE315
Encoding: 58133 58133 789
Width: 700
VWidth: 0
Flags: HW
LayerCount: 2
Fore
SplineSet
200 200 m 1
 300 200 l 1
 300 0 l 1
 200 0 l 1
 200 200 l 1
0 200 m 1
 100 200 l 1
 100 0 l 1
 0 0 l 1
 0 200 l 1
400 200 m 1
 500 200 l 1
 500 0 l 1
 400 0 l 1
 400 200 l 1
EndSplineSet
EndChar

StartChar: uniE316
Encoding: 58134 58134 790
Width: 700
VWidth: 0
Flags: HW
LayerCount: 2
Fore
SplineSet
300 0 m 1
 100 0 l 1
 100 200 l 1
 300 200 l 1
 300 0 l 1
400 200 m 1
 500 200 l 1
 500 0 l 1
 400 0 l 1
 400 200 l 1
EndSplineSet
EndChar

StartChar: uniE317
Encoding: 58135 58135 791
Width: 700
VWidth: 0
Flags: HW
LayerCount: 2
Fore
SplineSet
0 200 m 1
 300 200 l 1
 300 0 l 1
 0 0 l 1
 0 200 l 1
400 200 m 1
 500 200 l 1
 500 0 l 1
 400 0 l 1
 400 200 l 1
EndSplineSet
EndChar

StartChar: uniE318
Encoding: 58136 58136 792
Width: 700
VWidth: 0
Flags: HW
LayerCount: 2
Fore
SplineSet
500 0 m 1
 300 0 l 1
 300 200 l 1
 500 200 l 1
 500 0 l 1
EndSplineSet
EndChar

StartChar: uniE319
Encoding: 58137 58137 793
Width: 700
VWidth: 0
Flags: HW
LayerCount: 2
Fore
SplineSet
500 0 m 1
 300 0 l 1
 300 200 l 1
 500 200 l 1
 500 0 l 1
0 200 m 1
 100 200 l 1
 100 0 l 1
 0 0 l 1
 0 200 l 1
EndSplineSet
EndChar

